<?xml version="1.0" encoding="UTF-8" standalone="no"?>
<!-- Created with Inkscape (http://www.inkscape.org/) -->

<svg
   xmlns:osb="http://www.openswatchbook.org/uri/2009/osb"
   xmlns:dc="http://purl.org/dc/elements/1.1/"
   xmlns:cc="http://creativecommons.org/ns#"
   xmlns:rdf="http://www.w3.org/1999/02/22-rdf-syntax-ns#"
   xmlns:svg="http://www.w3.org/2000/svg"
   xmlns="http://www.w3.org/2000/svg"
   xmlns:sodipodi="http://sodipodi.sourceforge.net/DTD/sodipodi-0.dtd"
   xmlns:inkscape="http://www.inkscape.org/namespaces/inkscape"
   version="1.1"
   id="svg4504"
   width="346"
   height="290"
   viewBox="0 0 346 290"
   sodipodi:docname="logo404.svg"
   inkscape:version="0.92.2 (5c3e80d, 2017-08-06)">
  <metadata
     id="metadata4510">
    <rdf:RDF>
      <cc:Work
         rdf:about="">
        <dc:format>image/svg+xml</dc:format>
        <dc:type
           rdf:resource="http://purl.org/dc/dcmitype/StillImage" />
        <dc:title></dc:title>
      </cc:Work>
    </rdf:RDF>
  </metadata>
  <defs
     id="defs4508">
    <inkscape:path-effect
       effect="spiro"
       id="path-effect4838"
       is_visible="true" />
    <linearGradient
       id="linearGradient4803"
       osb:paint="solid">
      <stop
         style="stop-color:#665101;stop-opacity:1;"
         offset="0"
         id="stop4801" />
    </linearGradient>
  </defs>
  <sodipodi:namedview
     pagecolor="#ffffff"
     bordercolor="#666666"
     borderopacity="1"
     objecttolerance="10"
     gridtolerance="10"
     guidetolerance="10"
     inkscape:pageopacity="0"
     inkscape:pageshadow="2"
     inkscape:window-width="1536"
     inkscape:window-height="801"
     id="namedview4506"
     showgrid="false"
     inkscape:snap-nodes="false"
     inkscape:zoom="1.47"
     inkscape:cx="178.5099"
     inkscape:cy="118.85898"
     inkscape:window-x="-8"
     inkscape:window-y="-8"
     inkscape:window-maximized="1"
     inkscape:current-layer="svg4504" />
  <path
     style="fill:#ffffff;stroke-width:2.26414466"
     inkscape:connector-curvature="0"
     d="m 112.87649,4.552902 c -7.25205,0 -8.46788,0.09033 -13.288249,1.3516721 -5.945663,1.575836 -9.414323,3.556951 -13.469417,7.6572849 -2.071672,2.026394 -3.108661,3.332825 -4.098066,4.999219 -2.476951,4.279181 -4.098066,9.147099 -5.089738,15.722117 -0.543421,3.196951 -0.5887,4.369814 -0.543421,12.296542 0,8.334349 0.993978,33.740298 1.578142,41.352338 0.407508,5.04681 0.226393,5.58792 -4.007547,11.48829 a 187.48476,187.48476 0 0 0 -4.59617,6.710885 c -2.836951,4.36985 -6.846727,10.00078 -10.134274,14.32528 -6.081487,7.83844 -7.614274,10.72071 -11.442936,21.12673 -3.692825,10.17951 -5.945688,15.22624 -11.395464,25.81103 -2.793978,5.31621 -3.51394,7.56904 -3.649814,11.35238 -0.18104,3.24223 0.271748,7.74785 0.765278,8.5584 0.407585,0.54112 0.901153,0.67476 1.892863,0.40759 -0.135685,0.13341 -0.226393,0.22412 -0.317102,0.26721 -1.575874,1.03695 -3.378104,3.24446 -4.503383,6.03613 -0.04535,0.0454 -0.04535,0.13607 -0.09033,0.18104 -0.405279,0.63171 -0.855837,1.71175 -1.396989,3.37814 -1.621115,4.59621 -2.972788,6.6226 -5.404498,7.929 -2.07171,1.12524 -3.916989,1.39695 -9.323755,1.39695 -5.58565,0 -6.803754,0.26948 -8.467917,1.71171 -2.9750565,2.52223 -3.4256515,7.52145 -1.396953,14.45877 1.84528,6.26257 1.754685,9.1448 -0.6317095,16.17268 -1.306431,3.87163 -1.487546,4.68449 -1.487546,6.35089 0,1.26115 0.135685,2.20754 0.407546,2.79171 0.584164,1.2181 2.4317105,2.70334 4.2339405,3.46866 2.026431,0.76751 12.206022,3.28978 19.503345,4.73204 11.307137,2.29584 15.36223,3.51168 25.856542,7.70264 9.325984,3.69279 13.290482,5.0445 16.442155,5.54037 1.487546,0.2264 4.550929,-0.0453 5.94788,-0.58643 1.666394,-0.58643 3.24223,-1.66643 6.710891,-4.5962 6.126724,-5.13283 9.459554,-6.75621 16.306327,-7.83625 2.567549,-0.40751 4.910929,-0.45279 24.504829,-0.45279 11.89357,0 22.38784,0.0907 23.33427,0.2264 2.20755,0.27174 3.06339,0.99171 4.91093,4.23394 2.83699,5.09208 6.30565,7.3449 12.61126,8.28903 2.97509,0.45282 8.06491,0.49814 10.40829,0.13568 5.13509,-0.85583 7.70264,-2.38639 13.51242,-8.1962 6.75849,-6.80376 13.06414,-11.08298 21.93957,-14.95696 4.50338,-1.98338 6.52981,-3.10862 11.84602,-6.71312 6.53201,-4.41509 7.7932,-5.80977 7.7932,-8.69427 0,-3.0181 -1.62116,-4.90866 -7.61435,-8.87316 -5.71922,-3.78334 -8.28677,-6.08145 -10.67543,-9.59539 -1.66639,-2.47699 -2.25283,-4.36978 -2.47699,-8.06253 -0.0903,-1.71174 -0.27175,-2.88226 -0.49587,-3.60453 -0.2264,-2.56751 -1.26112,-5.49509 -3.10866,-6.44149 -2.56755,-1.35171 -3.46867,-0.94639 -4.32454,-0.40528 2.88454,-3.24223 3.82866,-4.77505 4.77736,-7.56672 1.66416,-4.95617 1.30413,-10.49655 -1.5781,-24.90996 -3.33283,-16.75918 -9.0113,-28.74097 -20.72143,-43.78621 -7.4332,-9.59542 -10.4513,-14.37052 -17.70335,-27.973485 -3.60453,-6.80149 -4.64152,-9.14491 -5.49509,-12.79241 -1.26115,-5.27093 -1.84755,-10.000749 -2.79398,-23.470153 C 155.53537,40.636127 154.90592,35.453526 153.73314,31.083711 150.6267,19.192486 141.30299,10.183529 128.28415,6.4431951 122.74151,4.867358 120.35511,4.552637 112.87664,4.552637 Z"
     id="path7285"
     inkscape:export-xdpi="96"
     inkscape:export-ydpi="96" />
  <path
     sodipodi:nodetypes="csssscc"
     inkscape:connector-curvature="0"
     id="path4877"
     d="m 151.13346,74.055162 c -3.77024,-1.414688 -11.01509,-5.847986 -13.66552,-7.531962 -11.24027,-7.141629 -25.70698,-7.013928 -26.40428,-3.065519 -0.46334,2.624159 3.15177,4.501988 11.58388,5.339036 4.62774,0.459383 9.28139,0.767987 10.76515,1.015471 5.53828,0.923769 17.72074,4.242985 17.72074,4.242985 z"
     style="fill:#5f8dd3;stroke:#000000;stroke-width:0;stroke-linecap:butt;stroke-linejoin:miter;stroke-miterlimit:4;stroke-dasharray:none;stroke-opacity:1"
     inkscape:export-xdpi="96"
     inkscape:export-ydpi="96" />
  <path
     style="fill:#5f8dd3;stroke:#000000;stroke-width:0;stroke-linecap:butt;stroke-linejoin:miter;stroke-miterlimit:4;stroke-dasharray:none;stroke-opacity:1"
     d="m 107.10426,60.838409 c -1.99893,0.121063 -7.432985,-0.329282 -8.942753,-0.506028 -4.98112,-0.583128 -10.138213,6.754415 -12.298621,7.132665 -2.564367,0.448976 1.673327,3.893045 6.142302,0.822295 2.452677,-1.685307 4.918978,-3.564584 5.705433,-3.984366 2.935509,-1.566863 9.393619,-3.46454 9.393619,-3.46454 z"
     id="path4883"
     inkscape:connector-curvature="0"
     sodipodi:nodetypes="csssscc"
     inkscape:export-xdpi="96"
     inkscape:export-ydpi="96" />
  <path
     style="fill:#ffd42a;stroke-width:2.26414466"
     inkscape:connector-curvature="0"
     d="m 140.94637,79.122932 c 0,6.28302 -7.48524,7.60978 -11.11468,9.86261 -3.3781,3.12907 -22.82937,11.966018 -27.98484,11.966018 -8.286764,-1.752458 -18.373531,-14.119218 -19.67539,-22.328998 0,-4.78186 6.083755,-8.61056 9.486766,-11.73959 3.38033,-3.129032 7.28375,-6.083753 13.942614,-4.831709 5.15769,0 13.21806,2.45435 16.59617,5.583419 6.75843,2.25279 18.7471,3.70413 18.7471,11.48825 z M 4.6720209,247.01091 c 7.6981041,3.50491 25.6323781,7.98561 31.9402961,8.73732 4.231672,1.75245 32.166728,8.25959 38.599143,8.25959 9.53658,-6.75844 11.114684,-16.99691 8.436208,-27.35985 -11.891301,-19.19988 -21.076913,-44.35434 -43.304013,-53.01694 -2.227918,1.10037 -4.05736,4.07996 -4.856617,4.58033 -1.603011,1.02565 -3.380372,3.25357 -4.50565,6.0339 -1.177323,2.90264 -2.252826,6.45729 -3.566023,11.63766 -2.567546,5.15769 -13.052787,0.50264 -20.2346831,4.25658 -2.61959,7.93576 1.849852,27.50922 -2.508661,36.87141 z M 211.58542,217.5998 c 4.8068,3.92829 12.33959,6.85806 15.74486,13.39007 -6.48223,7.73654 -12.06565,10.46483 -20.27542,14.37044 -11.26411,5.35476 -18.32374,10.38792 -23.4792,13.89056 -5.1577,4.50565 -17.12145,7.26112 -22.55312,6.50944 -3.43019,-2.25286 -7.28602,-29.61275 -6.03394,-38.54925 0,-4.75465 -5.83245,-23.80513 3.50486,-35.42011 9.03621,-1.72754 16.79543,6.53428 22.52826,12.16517 4.73208,-3.17881 12.21505,-8.0603 17.87318,-9.28521 1.85204,-0.42565 1.9268,-2.35468 5.80754,-0.32617 1.85205,0.97584 2.92751,4.03015 3.129,6.63387 0.32617,4.20453 0.75175,13.11613 3.75394,16.6188 z"
     id="path7287"
     inkscape:export-xdpi="96"
     inkscape:export-ydpi="96" />
  <path
     inkscape:connector-curvature="0"
     d="m 69.229602,270.01459 c -3.153978,-0.49811 -7.132082,-1.75019 -16.444498,-5.50636 -10.514683,-4.25662 -14.544869,-5.25736 -25.858809,-7.75926 -7.283755,-1.25208 -17.5018211,-3.88074 -19.4942741,-4.68223 -1.804498,-0.72453 -3.679219,-2.22791 -4.254312,-3.45282 -0.267213,-0.55019 -0.407547,-1.52829 -0.407547,-2.7781 0,-1.70264 0.18104,-2.45435 1.49435,-6.3351 2.379591,-7.05728 2.495055,-9.93725 0.642973,-16.19527 -2.051301,-6.93283 -1.571301,-11.93881 1.383421,-14.46785 1.670929,-1.42639 2.886803,-1.67542 8.4611141,-1.67542 5.418104,0 7.247509,-0.27629 9.344126,-1.42643 2.415837,-1.32904 3.77658,-3.33052 5.377323,-7.93577 1.027918,-2.97962 1.70264,-4.15695 2.354722,-4.15695 0.525278,0 0.973568,1.30186 0.973568,2.87997 0,1.40148 -1.575836,7.30862 -2.352416,8.83464 -0.824163,1.65283 -1.95171,2.92978 -3.251338,3.68149 -2.42264,1.42639 -7.091301,1.80223 -12.212788,1.02565 -3.27171,-0.52532 -5.1486611,-0.40078 -6.4007431,0.35112 -1.852082,1.12528 -2.155464,3.65431 -0.810557,6.78334 2.6037541,6.03167 3.1018961,7.3358 3.6520821,9.36219 0.654312,2.42714 0.758475,4.55543 0.34885,7.0822 -0.407546,2.50412 -1.127546,4.07996 -3.2513381,7.05955 -1.098104,1.5532 -2.101115,3.20379 -2.234722,3.70416 -0.373417,1.35168 0.17915,2.37736 1.670967,3.15394 1.267918,0.62718 19.3289951,5.30714 32.0897011,8.18714 3.930557,1.00074 11.089814,2.75323 15.894312,4.00528 4.831672,1.24981 9.839962,2.25282 11.139591,2.50186 4.030185,0.50037 7.761486,0 10.340334,-1.50112 3.57736,-2.25279 6.081486,-7.43542 6.382639,-13.46713 0.199181,-3.98038 -0.676989,-7.55993 -3.004536,-12.19008 -1.77736,-3.55472 -2.653568,-4.9313 -11.089776,-17.67386 -14.893531,-22.42851 -21.350892,-29.91145 -26.857285,-31.0639 -1.777361,-0.35074 -2.954684,-0.14929 -5.332044,0.92833 -2.277733,1.02338 -3.05658,1.07546 -3.604536,0.24907 -0.527546,-0.80145 -0.950929,-5.2822 -0.801487,-8.53576 0.174237,-3.78108 0.901115,-6.03391 3.654312,-11.38855 5.456618,-10.56446 7.684536,-15.62253 11.413569,-25.78394 3.830929,-10.41502 5.381858,-13.29052 11.415798,-21.1516 3.554277,-4.63766 6.935458,-9.40546 10.13658,-14.29357 1.513216,-2.26563 3.057513,-4.51035 4.632454,-6.733518 4.204497,-5.90945 4.406022,-6.45736 4.005278,-11.49056 -0.602267,-7.58487 -1.603011,-33.015763 -1.603011,-41.327435 -0.02646,-7.908662 0.02646,-9.110929 0.525279,-12.316952 1.027918,-6.54565 2.628662,-11.461115 5.132788,-15.715426 0.950967,-1.661897 2.026393,-2.977361 4.052825,-5.024164 4.057323,-4.0890326 7.562235,-6.0520436 13.494315,-7.6052406 4.831674,-1.263383 6.056584,-1.390186 13.290524,-1.381115 7.46033,0.0038 9.8377,0.29896 15.39617,1.89736 13.01658,3.7380666 22.35164,12.7561706 25.48067,24.6270616 1.15244,4.381153 1.77735,9.588699 2.6785,22.154722 0.95093,13.442189 1.52829,18.172009 2.80525,23.479179 0.85133,3.6045 1.87698,5.98186 5.47925,12.76524 7.26112,13.618848 10.26562,18.373488 17.69881,27.937288 11.71469,15.06788 17.37281,27.03379 20.72601,43.80423 2.88,14.41799 3.23092,19.95152 1.5781,24.9326 -1.00074,3.00227 -1.97658,4.50565 -5.40677,8.28673 -7.20905,7.98334 -15.24451,12.98936 -20.75091,12.98936 -5.00602,0 -9.58866,-3.40305 -12.86713,-9.58635 -1.52603,-3.40528 -1.32681,-6.13353 -5.70565,-5.1577 -2.12829,0.57736 -3.88075,3.15391 -4.40829,6.48446 -0.39848,2.37736 -0.32391,11.48825 0.10167,13.76595 0.17423,1.02788 0.77435,4.07992 1.27702,6.75844 0.90108,4.63238 0.95089,5.13278 0.95089,9.88747 0,4.38108 -0.10204,5.70788 -0.82639,10.51461 -0.67699,4.50565 -0.80152,6.05658 -0.72454,8.51093 0.0971,2.85278 0.14967,3.12903 0.99852,4.90639 1.02792,2.25279 3.28074,4.75472 5.23241,6.00676 4.3064,2.7532 10.3132,3.0045 15.36904,0.50038 1.42643,-0.74945 3.50487,-2.25283 7.00977,-5.00372 5.68301,-4.60758 9.91246,-7.5374 13.11623,-9.16305 1.22714,-0.60223 4.17959,-1.72755 6.55922,-2.50413 9.8626,-3.17884 14.36825,-5.0807 16.87011,-7.15918 2.97963,-2.42717 4.40606,-5.0558 3.88074,-7.03468 -0.67695,-2.45204 -3.50487,-4.2045 -9.28751,-5.70561 -4.35394,-1.15242 -5.40676,-1.6777 -7.18412,-3.62937 -1.57584,-1.72758 -2.80301,-4.2068 -3.70413,-7.51015 -0.87624,-3.22866 -1.00078,-8.46108 -0.24907,-10.51238 0.52528,-1.45356 1.05056,-2.12829 1.65283,-2.12829 0.69962,0 1.05055,1.22718 1.24981,4.50565 0.24907,3.65424 0.82639,5.58108 2.50416,8.03539 2.37733,3.52978 4.90413,5.80747 10.63692,9.61123 5.98416,3.95546 7.63472,5.85732 7.63472,8.88673 0,2.87773 -1.27699,4.27922 -7.78413,8.66029 -5.33208,3.6045 -7.33583,4.75469 -11.84148,6.70866 -8.8845,3.88075 -15.19244,8.18487 -21.97582,14.94335 -5.80751,5.75773 -8.33658,7.51019 -13.51691,8.26186 -2.32986,0.24907 -7.41056,0.24907 -10.39019,-0.24907 -6.30792,-0.75168 -9.73583,-3.0045 -12.61583,-8.26413 -1.82714,-3.25134 -2.67844,-4.00297 -4.88145,-4.25435 -0.95097,0 -11.46338,-0.24907 -23.37959,-0.24907 -19.57349,0 -21.92822,0.24907 -24.454984,0.50045 -6.860375,1.25204 -10.238479,2.75319 -16.34714,7.75922 -3.452825,3.00449 -5.030929,4.00751 -6.708661,4.75468 -1.376618,0.50264 -4.453569,0.75394 -5.932045,0.50264 z m 22.578034,-16.14331 c 0.55245,-0.4755 1.37884,-1.57814 1.85434,-2.45435 0.74941,-1.40375 0.85131,-1.82714 0.92603,-3.98037 0.17423,-3.95547 -0.67695,-6.18112 -3.479966,-9.13584 -1.926803,-2.02862 -2.203049,-2.90483 -1.102639,-3.40524 1.02788,-0.45052 2.329775,0.12435 4.657325,2.07851 4.40602,3.729 7.007514,4.35617 16.618814,4.15469 10.34037,-0.24907 15.9713,-1.3268 21.65431,-4.17959 3.67922,-1.85205 6.10866,-3.95547 9.18788,-8.0377 2.17584,-2.85278 3.15394,-3.82639 4.37881,-4.32899 2.0287,-0.8513 3.10417,0.80148 3.05662,4.732 -0.0265,1.82718 -0.22639,2.97736 -1.05282,6.03168 -2.25279,8.13501 -2.95469,12.71765 -2.32755,15.0452 0.37342,1.35167 1.55097,2.37736 2.62643,2.27773 0.75167,-0.0748 0.77658,-0.12434 0.9781,-1.57814 0.0994,-0.82639 0.52528,-3.6294 0.95093,-6.2581 0.40075,-2.60376 0.90112,-5.98182 1.12528,-7.50785 0.52528,-3.95542 0.92829,-16.22252 0.95093,-29.53784 0.0265,-11.49048 0.0265,-11.51542 0.62718,-13.26784 0.47546,-1.35171 0.90115,-2.02635 1.87698,-3.00227 1.52602,-1.50338 2.95472,-2.05353 6.18111,-2.27996 l 2.15547,-0.17423 0.29896,-1.52603 c 0.72453,-3.47996 2.80301,-5.45654 6.91018,-6.55918 1.32677,-0.35074 2.6513,-0.47542 5.5064,-0.47542 4.12977,0 5.28223,0.24907 9.01126,2.05353 1.6755,0.79925 3.12907,1.07546 3.12907,0.6 0,-0.37569 -2.02866,-2.2777 -3.65431,-3.43015 -1.02051,-0.71097 -2.11155,-1.31492 -3.25584,-1.80227 -1.27472,-0.52528 -1.75018,-0.85134 -1.80226,-1.22487 -0.0499,-0.30123 0.32617,-1.97888 0.82639,-3.75624 1.45361,-5.25729 1.92903,-8.58554 1.95398,-13.59156 0.0499,-8.23465 -1.40379,-13.69346 -6.18339,-22.92885 -4.43092,-8.56074 -9.11092,-14.84372 -12.81505,-17.19617 -1.07773,-0.65208 -2.35472,-1.10264 -2.35472,-0.82639 0,0.0994 0.90111,1.42639 1.97885,2.97732 5.10565,7.23394 10.41282,16.47164 12.66565,22.10479 1.82713,4.50562 3.20375,10.61197 3.62944,16.17045 0.7245,9.11085 -1.75249,16.89494 -6.00907,18.7968 -0.84904,0.40074 -1.80227,0.55245 -3.87848,0.60227 -3.30565,0.12434 -3.75621,-0.0499 -4.63245,-1.80227 l -0.62491,-1.25205 -0.14967,-10.01196 c -0.27628,-17.04892 -1.07773,-19.95156 -10.0143,-36.0971 -2.7532,-4.95621 -3.30339,-6.2581 -4.48071,-10.76375 -2.4,-9.26034 -4.73208,-14.69428 -8.38412,-19.598438 -5.58339,-7.46033 -6.30792,-10.5645 -4.08,-17.44751 1.42639,-4.48297 1.40152,-6.78334 -0.10205,-8.3094 -1.10037,-1.12755 -1.95167,-1.52829 -6.9826,-3.1313 -7.63469,-2.42718 -11.1645,-4.60528 -12.14034,-7.483016 -0.97587,-2.830148 -0.27628,-7.435427 1.47621,-9.713159 1.25208,-1.652826 2.85283,-2.354722 5.30714,-2.354722 1.62795,0.02646 2.27773,0.151937 3.40531,0.652082 1.72525,0.826394 3.10186,2.003755 3.80376,3.32829 0.75167,1.426394 0.7245,4.806765 -0.0499,7.286022 -1.27699,4.030183 -1.22718,3.604503 -0.32617,4.406023 1.62791,1.44903 4.20676,1.57584 5.33204,0.22639 0.97584,-1.15472 1.27699,-2.329811 1.40379,-5.633194 0.14967,-3.604498 -0.22639,-6.009033 -1.7049,-10.539591 -2.02644,-6.20829 -4.05283,-8.010557 -10.18867,-9.011301 -4.5781,-0.75171 -7.08226,-0.149669 -9.38487,2.227919 -3.60453,3.75394 -5.4068,9.735836 -4.68226,15.744869 0.40074,3.32829 0.32617,3.479962 -1.55097,2.879962 -1.67543,-0.527508 -5.35695,-0.950929 -7.48524,-0.876208 -2.27774,0.0994 -2.47696,-0.102047 -2.47696,-2.653568 -0.0265,-10.387918 -3.153974,-16.046022 -8.886764,-15.99617 -3.980374,0 -7.209073,3.029404 -8.411303,7.83394 -0.475502,1.879219 -0.375685,7.261115 0.151937,10.390148 1.075464,6.158474 3.403011,9.237694 5.230148,6.833194 0.75171,-1.02565 1.403792,-2.32754 1.403792,-2.75319 0,-0.17651 -0.577361,-0.57736 -1.252082,-0.901157 -0.75171,-0.35074 -1.426394,-0.901115 -1.727546,-1.403754 -1.426394,-2.275465 -2.12829,-6.357732 -1.52829,-8.535836 0.776617,-2.753197 4.555465,-4.453569 7.159224,-3.228662 2.20301,1.052825 4.55546,5.909405 4.30639,8.961487 -0.20145,2.429442 -0.65204,3.178847 -2.85283,4.806762 -1.10264,0.80153 -2.879959,2.25283 -3.98033,3.2287 -1.10041,0.97584 -2.45435,2.10339 -3.004536,2.50413 -2.803011,2.02643 -4.381115,4.40602 -4.381115,6.65658 0,1.47851 0.6,2.28 2.479219,3.20602 1.476246,0.74944 2.803011,2.0513 4.204535,4.10491 1.879219,2.70338 4.104907,3.55472 9.212787,3.52981 6.230934,-0.0265 11.814324,-1.35171 22.279194,-5.25736 5.86386,-0.846473 3.81241,-0.952839 6.63947,-1.023177 1.51441,-0.315796 2.88562,0.990607 3.77208,1.202542 0.85219,0.203742 1.78944,4.813457 0.64559,2.595018 -0.70038,-1.358357 -1.52283,-3.874753 -9.68279,-1.096653 -2.80144,0.985771 -5.5574,2.09631 -8.25963,3.32829 -4.30636,2.05357 -5.50636,2.47926 -8.33658,3.02941 -2.32751,0.45059 -7.709374,0.50041 -10.664094,0.0994 -2.4,-0.32617 -3.853611,-0.14929 -3.729038,0.4755 0.124348,0.65208 5.682978,4.98112 6.959968,5.45658 1.802264,0.62718 5.356954,0.75171 7.659634,0.22639 3.47996,-0.75171 14.46784,-5.48148 19.92446,-8.53583 1.82713,-1.02565 2.85282,-1.4513 3.50487,-1.4513 1.10037,-0.0227 1.95171,0.67472 1.95171,1.55093 0,0.95093 -1.85209,2.57888 -3.87852,3.43018 -3.57959,1.4513 -4.33126,1.85205 -7.88598,4.10491 -4.85658,3.10186 -6.98264,4.655048 -10.18866,7.460328 -3.42788,2.97736 -4.40376,3.37811 -8.20978,3.42792 -3.029444,0.0265 -3.955474,-0.27402 -5.932084,-1.97658 -1.5532,-1.3268 -5.257328,-5.932078 -6.307885,-7.861108 -1.10264,-2.00153 -3.554722,-4.77963 -4.206803,-4.77963 -0.423383,0 -0.475465,0.0994 -1.2,3.25357 -0.500372,2.25282 -2.354684,6.507128 -5.356952,12.389398 -3.604497,7.08677 -3.781115,7.71167 -3.781115,15.14714 0,6.20602 0.151937,5.68074 -2.877732,9.88524 -3.704126,5.20755 -9.461858,18.7991 -10.838438,25.65713 -1.050595,5.13279 -1.777398,13.86781 -1.578142,18.7742 0.151559,3.90561 -0.04989,5.0558 -0.973568,5.63316 -0.950929,0.6 -2.078476,-0.0265 -4.40829,-2.32755 -3.654312,-3.68148 -4.829405,-6.73349 -4.804498,-12.5659 0.02268,-3.7064 0.348851,-6.55919 1.075465,-9.31238 0.624869,-2.35472 0.652082,-3.02945 0.07484,-2.90487 -0.6,0.10167 -1.951711,2.87996 -2.603793,5.35691 -0.398475,1.47848 -0.550185,3.0045 -0.649776,6.10863 -0.0994,3.80375 -0.07484,4.3562 0.525279,7.00747 0.724778,3.27452 2.141338,6.35622 4.154683,9.03843 3.029443,4.00524 18.373569,17.62175 28.5871,25.40584 2.454312,1.85204 5.182601,4.18182 6.083754,5.15765 5.406771,5.85736 4.35394,11.21428 -3.029442,15.34409 -1.152454,0.64978 -2.103383,1.22714 -2.103383,1.27695 0,0.0499 0.950929,1.37662 2.103383,2.90261 4.229442,5.70565 6.683792,9.8875 7.535093,12.81501 0.575093,1.92904 0.550185,4.70945 -0.07484,6.48454 -0.251339,0.80148 -0.400743,1.4513 -0.301228,1.4513 0.0994,0 0.624907,-0.49811 1.177358,-0.87625 z m 4.33133,-186.388308 c -0.77661,-1.47621 0.67695,-2.7532 3.15394,-2.7532 0.876214,0 1.652834,0.0994 1.727514,0.24908 0.17424,0.30122 -0.67468,0.75171 -1.426394,0.75171 -0.45283,0 -0.7019,0.25133 -1.07773,1.07773 -0.39848,0.87621 -0.62491,1.07546 -1.29963,1.12528 -0.60227,0.0499 -0.8513,-0.0499 -1.0777,-0.4506 z m 14.843724,-1.07546 c -1.45133,-0.52532 -2.57884,-1.25208 -2.30264,-1.52833 0.0748,-0.0748 0.92829,-0.199182 1.87926,-0.298962 2.25052,-0.201448 3.10186,0.124347 3.10186,1.125282 0,0.50037 -0.17424,0.85134 -0.47546,1.02792 -0.27629,0.12434 -0.52528,0.24907 -0.5751,0.22639 -0.0264,0 -0.77662,-0.25134 -1.62792,-0.55242 z M 58.866591,136.57334 c 2.402268,-2.47926 3.079257,-3.7313 2.929814,-5.50866 -0.0771,-1.22718 -0.552453,-1.65283 -1.553197,-1.4038 -0.724535,0.17651 -1.125278,0.92829 -1.77736,3.20606 -0.274016,1.10034 -0.724536,1.82718 -1.752454,2.9796 -1.376617,1.55092 -1.62565,2.12829 -1.075464,2.67843 0.575092,0.5751 1.050557,0.29896 3.228661,-1.95394 z M 155.138,94.317622 c 0.52755,-0.32618 1.5781,-2.90264 1.5781,-3.88075 0,-0.77435 -0.14967,-1.12531 -0.77658,-1.70037 -0.42565,-0.40078 -0.87624,-0.7268 -1.00074,-0.7268 -0.12472,0 -1.1004,-0.40074 -2.17809,-0.92606 -1.32455,-0.628021 -2.5339,-1.474563 -3.57737,-2.50413 -0.90338,-0.8513 -1.77962,-1.57583 -1.92907,-1.57583 -0.14967,0 -0.35074,0.30123 -0.45055,0.64981 -0.27629,1.15246 0.12472,2.92982 1.17736,5.0332 0.90111,1.87699 1.2249,2.25279 3.30338,3.9532 2.22792,1.82717 3.05435,2.1781 3.85583,1.67773 z M 94.911796,60.799219 c 0.30123,-0.77435 0.22639,-1.376618 -0.55022,-3.903383 -0.32618,-1.102639 -0.80149,-2.028661 -1.30186,-2.578885 -0.72454,-0.776579 -0.8513,-0.826394 -1.426397,-0.525279 -0.826432,0.450596 -0.75171,1.451339 0.226397,2.551711 0.72449,0.826393 1.35167,2.404497 1.65282,4.206765 0.19918,1.150186 1.00075,1.301896 1.39922,0.249071 z m 35.270824,-0.701896 c 0.55018,-0.649814 0.14967,-3.75394 -0.6,-4.904126 -0.77658,-1.177361 -2.58112,-2.252826 -4.00751,-2.402268 -0.95093,-0.126614 -1.12528,-0.05216 -1.39926,0.42565 -0.35111,0.649815 -0.1765,0.849071 1.05056,1.224907 1.55093,0.500372 2.97963,2.6287 3.3532,4.981115 0.15156,0.876246 0.27628,1.052826 0.7268,1.052826 0.32931,-0.0088 0.64279,-0.143215 0.87621,-0.375685 z m 1.6755,-33.715427 c 1.8045,-1.245241 1.92903,-1.299591 3.65658,-1.34487 2.20301,-0.05669 2.67848,-0.242267 2.67848,-1.018885 0,-1.209033 -4.15473,-4.892787 -5.90941,-5.218847 -1.75018,-0.330709 -2.37736,0.620372 -2.72602,4.181896 -0.15156,1.333569 -0.32617,1.88829 -0.90115,2.603754 -0.77658,0.98264 -0.90116,1.56 -0.40075,2.055837 0.49811,0.51171 1.57584,0.135685 3.6045,-1.258885 z"
     id="path7289"
     style="stroke-width:2.26414466"
     sodipodi:nodetypes="cccccscccsccssccccccccccccccccccccccccccccccccccccccccccscccccsccccccccccccccscccscccccccscccccccccccccccccccccccccccccscscccccccsccccccccccccccccccccccccccccccccccsccccccccscccccsscccccccccsccccccsccscccccccccccccccscccscccscsccccccscccccccccccccscsccsccccccccccccccccccccccccscccccc"
     inkscape:export-xdpi="96"
     inkscape:export-ydpi="96" />
  <path
     id="path1492"
     d="m 250.43782,264.68463 1.51295,13.45014 v 0 l -1.51295,-13.45014 v 0"
     inkscape:connector-curvature="0"
     style="fill:#aa8800;fill-opacity:0.9906977;stroke:#000000;stroke-width:0.61060959;stroke-opacity:0.6"
     inkscape:export-xdpi="96"
     inkscape:export-ydpi="96" />
  <path
     style="opacity:1;fill:#665101;fill-opacity:0.9906977;fill-rule:evenodd;stroke:#281717;stroke-width:0.76075578;stroke-linecap:round;stroke-linejoin:miter;stroke-miterlimit:4;stroke-dasharray:none;stroke-opacity:1;paint-order:fill markers stroke"
     d="m 254.1153,255.45034 -116.86148,10.92015 71.36413,24.56581 116.86149,-10.9201 z"
     id="path1500"
     inkscape:connector-curvature="0"
     inkscape:export-xdpi="96"
     inkscape:export-ydpi="96" />
  <path
     style="fill:#554400;fill-opacity:1;stroke:#000000;stroke-width:0.61060953;stroke-opacity:0.6"
     inkscape:connector-curvature="0"
     d="m 252.60236,242.00022 1.51298,13.45014 -116.86144,10.92013 -1.51299,-13.45014 116.86145,-10.92013"
     id="path1502"
     inkscape:export-xdpi="96"
     inkscape:export-ydpi="96" />
  <path
     style="fill:#806600;fill-opacity:0.9906977;stroke:#000000;stroke-width:0.61060953;stroke-opacity:0.6"
     inkscape:connector-curvature="0"
     d="m 135.74091,252.92035 1.51299,13.45014 71.36413,24.56581 -1.51295,-13.45013 -71.36417,-24.56582"
     id="path1504"
     inkscape:export-xdpi="96"
     inkscape:export-ydpi="96" />
  <path
     style="fill:#806600;fill-opacity:0.9906977;stroke:#000000;stroke-width:0.61060953;stroke-opacity:0.6"
     inkscape:connector-curvature="0"
     d="m 323.96653,266.56604 1.51298,13.45014 -71.36417,-24.56582 -1.51298,-13.45014 71.36417,24.56582"
     id="path1506"
     inkscape:export-xdpi="96"
     inkscape:export-ydpi="96" />
  <path
     style="fill:#554400;fill-opacity:0.75541795;stroke:none;stroke-width:0.60518175;stroke-linecap:butt;stroke-linejoin:miter;stroke-miterlimit:4;stroke-dasharray:none;stroke-opacity:1"
     d="m 216.99271,272.79383 c -4.21516,10.57491 4.93429,6.19648 4.80971,12.24911 -0.0882,4.28785 15.20382,1.32392 15.07042,-2.96349 -0.0886,-2.84958 10.18825,-1.56853 11.22266,-4.34646 2.29564,-6.16503 13.17617,-3.32401 5.77165,-7.7051 -3.22329,-1.90714 -8.85087,0.0315 -15.71171,-0.98782 -7.80595,-1.15972 -13.5417,-14.0584 -21.16273,3.75376 z"
     id="path4905"
     inkscape:connector-curvature="0"
     sodipodi:nodetypes="csssssc"
     inkscape:export-xdpi="96"
     inkscape:export-ydpi="96" />
  <path
     style="fill:#aa8800;fill-opacity:0.9906977;stroke:#000000;stroke-width:0.61060953;stroke-opacity:0.6"
     inkscape:connector-curvature="0"
     d="m 207.10508,277.48617 1.51295,13.45013 116.86148,-10.92012 -1.51298,-13.45014 -116.86145,10.92013"
     id="path1508"
     inkscape:export-xdpi="96"
     inkscape:export-ydpi="96" />
  <path
     style="fill:#aa8800;fill-opacity:0.9906977;stroke:#000000;stroke-width:0.61060953;stroke-opacity:0.6"
     inkscape:connector-curvature="0"
     d="m 252.60236,242.00022 1.51298,13.45014 v 0 l -1.51298,-13.45014 v 0"
     id="path1510"
     inkscape:export-xdpi="96"
     inkscape:export-ydpi="96" />
  <path
     inkscape:connector-curvature="0"
     id="path4799"
     d="m 223.53324,152.44834 -115.90875,10.79552 28.21123,89.75485 115.90869,-10.79539 z"
     style="opacity:1;fill:#665100;fill-opacity:0.99706744;fill-rule:evenodd;stroke:#281717;stroke-width:0.103;stroke-linecap:round;stroke-linejoin:miter;stroke-miterlimit:4;stroke-dasharray:none;stroke-opacity:1;paint-order:fill markers stroke"
     inkscape:export-xdpi="96"
     inkscape:export-ydpi="96" />
  <path
     inkscape:connector-curvature="0"
     style="fill:#554400;fill-opacity:1;stroke:#000000;stroke-width:0.57213449;stroke-opacity:0.6"
     d="m 226.92383,141.28711 -49.93555,4.15039 a 5.5632668,8.1629238 87.255379 0 1 0.0918,0.61914 5.5632668,8.1629238 87.255379 0 1 -7.88867,5.94727 5.5632668,8.1629238 87.255379 0 1 -8.41993,-5.16602 5.5632668,8.1629238 87.255379 0 1 0.002,-0.0547 l -49.95899,4.15235 1.50391,11.88476 116.10742,-9.64843 z"
     id="path4815"
     inkscape:export-xdpi="96"
     inkscape:export-ydpi="96" />
  <path
     id="path4811"
     d="m 254.66064,229.89236 -2.99938,11.52293 -27.69871,-88.05137 2.99938,-11.52294 27.69871,88.05138"
     inkscape:connector-curvature="0"
     style="fill:#806600;fill-opacity:0.9906977;stroke:#000000;stroke-width:0.48547876;stroke-opacity:0.6"
     inkscape:export-xdpi="96"
     inkscape:export-ydpi="96" />
  <path
     style="fill:#806600;fill-opacity:0.9906977;stroke:#000000;stroke-width:0.49084473;stroke-opacity:0.6"
     inkscape:connector-curvature="0"
     d="m 138.47895,241.38011 -2.99836,11.78308 -27.68929,-90.03921 2.99836,-11.78307 27.68929,90.0392"
     id="path4813"
     inkscape:export-xdpi="96"
     inkscape:export-ydpi="96" />
  <ellipse
     style="opacity:1;fill:#000000;fill-opacity:1;fill-rule:nonzero;stroke:none;stroke-width:0.11236539;stroke-linecap:round;stroke-linejoin:round;stroke-miterlimit:4;stroke-dasharray:none;stroke-dashoffset:0;stroke-opacity:1;paint-order:stroke fill markers"
     id="path4828"
     cx="125.02837"
     cy="-39.037342"
     rx="13.853186"
     ry="6.3182659"
     transform="matrix(0.81596946,0.57809501,-0.71297839,0.701186,0,0)"
     inkscape:export-xdpi="96"
     inkscape:export-ydpi="96" />
  <ellipse
     transform="matrix(0.88984127,-0.45627022,0.29213125,0.95637824,0,0)"
     ry="6.3182659"
     rx="13.853186"
     cy="78.9189"
     cx="74.73616"
     id="ellipse4830"
     style="opacity:1;fill:#000000;fill-opacity:1;fill-rule:nonzero;stroke:none;stroke-width:0.11236539;stroke-linecap:round;stroke-linejoin:round;stroke-miterlimit:4;stroke-dasharray:none;stroke-dashoffset:0;stroke-opacity:1;paint-order:stroke fill markers"
     inkscape:transform-center-x="7.0588235"
     inkscape:transform-center-y="1.7647059"
     inkscape:export-xdpi="96"
     inkscape:export-ydpi="96" />
  <g
     id="g4881"
     transform="matrix(0.33513413,-0.03446751,0.03446751,0.33513413,70.761876,54.457663)"
     inkscape:export-xdpi="96"
     inkscape:export-ydpi="96">
    <path
       sodipodi:nodetypes="csssscc"
       inkscape:connector-curvature="0"
       id="path4842"
       d="m 180.03758,58.394736 c 0.36859,2.749445 -1.00326,9.981739 -1.58048,12.698162 -2.44796,11.520186 5.70584,15.755467 10.88087,11.479109 3.43937,-2.842098 3.71831,-6.070995 0.0714,-9.575516 -2.00152,-1.923353 -4.20026,-3.683181 -4.72046,-4.413736 -1.94166,-2.726833 -4.6513,-10.188019 -4.6513,-10.188019 z"
       style="fill:#5f8dd3;stroke:#000000;stroke-width:0;stroke-linecap:butt;stroke-linejoin:miter;stroke-miterlimit:4;stroke-dasharray:none;stroke-opacity:1" />
    <path
       style="fill:#d7e3f4;stroke:#000000;stroke-width:0;stroke-linecap:butt;stroke-linejoin:miter;stroke-miterlimit:4;stroke-dasharray:none;stroke-opacity:1"
       d="m 180.82765,73.386576 c 0.25601,0.901845 0.31212,3.380836 0.31687,4.314759 0.0201,3.960719 2.41445,5.004146 3.53176,3.339435 0.74258,-1.106377 -0.19576,-1.00574 -1.35969,-2.010442 -0.63879,-0.551397 -0.9533,-1.222583 -1.13265,-1.442963 -0.66943,-0.822588 -1.35628,-4.200791 -1.35628,-4.200791 z"
       id="path4844"
       inkscape:connector-curvature="0"
       sodipodi:nodetypes="csssscc" />
  </g>
  <ellipse
     transform="matrix(0.81596946,0.57809501,-0.71297839,0.701186,0,0)"
     ry="6.3182659"
     rx="13.853186"
     cy="-39.037342"
     cx="125.02837"
     id="ellipse4885"
     style="opacity:1;fill:#000000;fill-opacity:1;fill-rule:nonzero;stroke:none;stroke-width:0.11236539;stroke-linecap:round;stroke-linejoin:round;stroke-miterlimit:4;stroke-dasharray:none;stroke-dashoffset:0;stroke-opacity:1;paint-order:stroke fill markers"
     inkscape:export-xdpi="96"
     inkscape:export-ydpi="96" />
  <g
     transform="matrix(0.21258752,-0.0403785,0.02186397,0.39260778,100.58292,59.652717)"
     id="g4893"
     inkscape:export-xdpi="96"
     inkscape:export-ydpi="96">
    <path
       style="fill:#5f8dd3;stroke:#000000;stroke-width:0;stroke-linecap:butt;stroke-linejoin:miter;stroke-miterlimit:4;stroke-dasharray:none;stroke-opacity:1"
       d="m 180.03758,58.394736 c 0.36859,2.749445 -1.00326,9.981739 -1.58048,12.698162 -2.44796,11.520186 5.70584,15.755467 10.88087,11.479109 3.43937,-2.842098 3.71831,-6.070995 0.0714,-9.575516 -2.00152,-1.923353 -4.20026,-3.683181 -4.72046,-4.413736 -1.94166,-2.726833 -4.6513,-10.188019 -4.6513,-10.188019 z"
       id="path4889"
       inkscape:connector-curvature="0"
       sodipodi:nodetypes="csssscc" />
    <path
       sodipodi:nodetypes="csssscc"
       inkscape:connector-curvature="0"
       id="path4891"
       d="m 180.82765,73.386576 c 0.25601,0.901845 0.31212,3.380836 0.31687,4.314759 0.0201,3.960719 2.41445,5.004146 3.53176,3.339435 0.74258,-1.106377 -0.19576,-1.00574 -1.35969,-2.010442 -0.63879,-0.551397 -0.9533,-1.222583 -1.13265,-1.442963 -0.66943,-0.822588 -1.35628,-4.200791 -1.35628,-4.200791 z"
       style="fill:#d7e3f4;stroke:#000000;stroke-width:0;stroke-linecap:butt;stroke-linejoin:miter;stroke-miterlimit:4;stroke-dasharray:none;stroke-opacity:1" />
  </g>
  <g
     id="g4899"
     transform="matrix(-0.26935561,0.01139547,0.04825019,0.39059485,182.57412,60.56097)"
     inkscape:export-xdpi="96"
     inkscape:export-ydpi="96">
    <path
       sodipodi:nodetypes="csssscc"
       inkscape:connector-curvature="0"
       id="path4895"
       d="m 180.03758,58.394736 c 0.36859,2.749445 -1.00326,9.981739 -1.58048,12.698162 -2.44796,11.520186 5.70584,15.755467 10.88087,11.479109 3.43937,-2.842098 3.71831,-6.070995 0.0714,-9.575516 -2.00152,-1.923353 -4.20026,-3.683181 -4.72046,-4.413736 -1.94166,-2.726833 -4.6513,-10.188019 -4.6513,-10.188019 z"
       style="fill:#5f8dd3;stroke:#000000;stroke-width:0;stroke-linecap:butt;stroke-linejoin:miter;stroke-miterlimit:4;stroke-dasharray:none;stroke-opacity:1" />
    <path
       style="fill:#d7e3f4;stroke:#000000;stroke-width:0;stroke-linecap:butt;stroke-linejoin:miter;stroke-miterlimit:4;stroke-dasharray:none;stroke-opacity:1"
       d="m 180.82765,73.386576 c 0.25601,0.901845 0.31212,3.380836 0.31687,4.314759 0.0201,3.960719 2.41445,5.004146 3.53176,3.339435 0.74258,-1.106377 -0.19576,-1.00574 -1.35969,-2.010442 -0.63879,-0.551397 -0.9533,-1.222583 -1.13265,-1.442963 -0.66943,-0.822588 -1.35628,-4.200791 -1.35628,-4.200791 z"
       id="path4897"
       inkscape:connector-curvature="0"
       sodipodi:nodetypes="csssscc" />
  </g>
  <path
     style="fill:#f2f2f2;stroke:#000000;stroke-width:0;stroke-linecap:butt;stroke-linejoin:miter;stroke-miterlimit:4;stroke-dasharray:none;stroke-opacity:1"
     d="m 138.83664,49.272813 c -4.10677,-1.480822 -11.22398,-11.436663 -11.55949,-11.74669 -6.40324,-5.916883 -9.24343,-0.653794 -7.88424,-0.160742 7.28036,-4.734671 15.36246,13.601122 19.44373,11.907432 z"
     id="path4901"
     inkscape:connector-curvature="0"
     sodipodi:nodetypes="cscc"
     inkscape:export-xdpi="96"
     inkscape:export-ydpi="96" />
  <path
     sodipodi:nodetypes="cscc"
     inkscape:connector-curvature="0"
     id="path4903"
     d="m 82.450318,44.618507 c 3.489113,-1.127238 9.535898,-8.705862 9.820949,-8.941862 5.44019,-4.504074 7.853223,-0.497684 6.698446,-0.12236 -6.185396,-3.604146 -13.051937,10.3535 -16.519395,9.064222 z"
     style="fill:#f9f9f9;stroke:#000000;stroke-width:0;stroke-linecap:butt;stroke-linejoin:miter;stroke-miterlimit:4;stroke-dasharray:none;stroke-opacity:1"
     inkscape:export-xdpi="96"
     inkscape:export-ydpi="96" />
  <path
     sodipodi:nodetypes="csssssc"
     inkscape:connector-curvature="0"
     id="path4907"
     d="m 240.29682,260.65594 c -1.10055,2.96276 1.2883,1.73606 1.25578,3.43181 -0.023,1.20132 3.96959,0.37092 3.93476,-0.83027 -0.0231,-0.79837 2.66008,-0.43946 2.93015,-1.21774 0.59938,-1.72725 3.4402,-0.93129 1.50693,-2.15873 -0.84157,-0.53432 -2.31089,0.009 -4.1022,-0.27676 -2.03807,-0.32491 -3.53563,-3.93872 -5.52542,1.05169 z"
     style="fill:#554400;fill-opacity:0.75541795;stroke:none;stroke-width:0.16367875;stroke-linecap:butt;stroke-linejoin:miter;stroke-miterlimit:4;stroke-dasharray:none;stroke-opacity:1"
     inkscape:export-xdpi="96"
     inkscape:export-ydpi="96" />
  <path
     style="fill:#554400;fill-opacity:0.75541795;stroke:none;stroke-width:0.41124961;stroke-linecap:butt;stroke-linejoin:miter;stroke-miterlimit:4;stroke-dasharray:none;stroke-opacity:1"
     d="m 141.2051,205.59705 c -2.3118,8.90396 2.70618,5.21737 2.63787,10.3136 -0.0483,3.61032 8.33844,1.11472 8.26528,-2.49521 -0.0485,-2.39934 5.58771,-1.32071 6.15502,-3.65967 1.25904,-5.19089 7.22641,-2.7988 3.16542,-6.48761 -1.76778,-1.60579 -4.85421,0.027 -8.617,-0.83175 -4.28113,-0.97645 -7.42688,-11.83701 -11.60659,3.16064 z"
     id="path4909"
     inkscape:connector-curvature="0"
     sodipodi:nodetypes="csssssc"
     inkscape:transform-center-x="-228.04262"
     inkscape:transform-center-y="256.25769"
     inkscape:export-xdpi="96"
     inkscape:export-ydpi="96" />
  <path
     inkscape:transform-center-y="390.68036"
     inkscape:transform-center-x="338.34732"
     sodipodi:nodetypes="csssssc"
     inkscape:connector-curvature="0"
     id="path4911"
     d="m 216.18497,180.48452 c 3.46548,13.537 -4.00843,7.9474 -3.89113,15.70006 0.083,5.49222 -12.39717,1.72709 -12.29952,-3.76499 0.0656,-3.6503 -8.31388,-1.98824 -9.16478,-5.54438 -1.88842,-7.89223 3.80259,2.42437 9.83057,-3.20266 2.62404,-2.44953 -7.339,-6.63232 -1.74577,-7.95279 6.36372,-1.50155 11.00845,-18.03559 17.27063,4.76476 z"
     style="fill:#554400;fill-opacity:0.75541795;stroke:none;stroke-width:0.61857766;stroke-linecap:butt;stroke-linejoin:miter;stroke-miterlimit:4;stroke-dasharray:none;stroke-opacity:1"
     inkscape:export-xdpi="96"
     inkscape:export-ydpi="96" />
  <path
     style="fill:#554400;fill-opacity:0.75541795;stroke:none;stroke-width:0.16265294;stroke-linecap:butt;stroke-linejoin:miter;stroke-miterlimit:4;stroke-dasharray:none;stroke-opacity:1"
     d="m 192.70493,173.80088 c 1.03073,3.14684 -1.19223,1.84747 -1.15734,3.64967 0.0247,1.27674 -3.68727,0.40149 -3.65823,-0.87522 0.0195,-0.84855 -2.47279,-0.46219 -2.72587,-1.28885 -0.56167,-1.83465 1.131,0.56357 2.9239,-0.7445 0.78046,-0.56943 -2.18283,-1.54177 -0.51925,-1.84873 1.89276,-0.34905 3.27423,-4.19259 5.13679,1.10763 z"
     id="path4913"
     inkscape:connector-curvature="0"
     sodipodi:nodetypes="csssssc"
     inkscape:transform-center-x="100.63421"
     inkscape:transform-center-y="90.818434"
     inkscape:export-xdpi="96"
     inkscape:export-ydpi="96" />
  <path
     inkscape:transform-center-y="90.818434"
     inkscape:transform-center-x="100.63421"
     sodipodi:nodetypes="csssssc"
     inkscape:connector-curvature="0"
     id="path4915"
     d="m 214.33408,266.9726 c 1.03073,3.14684 -1.19223,1.84747 -1.15734,3.64967 0.0247,1.27674 -3.68727,0.40149 -3.65823,-0.87522 0.0195,-0.84855 -2.47279,-0.46219 -2.72587,-1.28885 -0.56167,-1.83465 1.131,0.56357 2.9239,-0.7445 0.78046,-0.56943 -2.18283,-1.54177 -0.51925,-1.84873 1.89276,-0.34905 3.27423,-4.19259 5.13679,1.10763 z"
     style="fill:#554400;fill-opacity:0.75541795;stroke:none;stroke-width:0.16265294;stroke-linecap:butt;stroke-linejoin:miter;stroke-miterlimit:4;stroke-dasharray:none;stroke-opacity:1"
     inkscape:export-xdpi="96"
     inkscape:export-ydpi="96" />
  <g
     id="g1073"
     transform="matrix(-0.63305045,0.10528791,0.55689983,0.35844773,187.66399,203.40784)"
     inkscape:export-xdpi="96"
     inkscape:export-ydpi="96">
    <ellipse
       ry="3.7557929"
       rx="4.0799131"
       cy="165.82751"
       cx="34.678223"
       id="ellipse1065"
       style="opacity:1;fill:#28170b;fill-opacity:0.9906977;fill-rule:evenodd;stroke:#281717;stroke-width:0.1;stroke-linecap:round;stroke-linejoin:miter;stroke-miterlimit:4;stroke-dasharray:none;stroke-opacity:1;paint-order:fill markers stroke" />
    <ellipse
       style="opacity:1;fill:#483737;fill-opacity:0.9906977;fill-rule:evenodd;stroke:#281717;stroke-width:0.1;stroke-linecap:round;stroke-linejoin:miter;stroke-miterlimit:4;stroke-dasharray:none;stroke-opacity:1;paint-order:fill markers stroke"
       id="ellipse1067"
       cx="34.878674"
       cy="165.32639"
       rx="3.7491369"
       ry="3.1911559" />
    <ellipse
       ry="1.6697948"
       rx="1.8339037"
       cy="165.32336"
       cx="34.807175"
       id="ellipse1069"
       style="opacity:1;fill:#28170b;fill-opacity:0.9906977;fill-rule:evenodd;stroke:#281717;stroke-width:0.2;stroke-linecap:round;stroke-linejoin:miter;stroke-miterlimit:4;stroke-dasharray:none;stroke-opacity:1;paint-order:fill markers stroke" />
    <ellipse
       style="opacity:1;fill:#483737;fill-opacity:0.9906977;fill-rule:evenodd;stroke:none;stroke-width:0.05266184;stroke-linecap:round;stroke-linejoin:miter;stroke-miterlimit:4;stroke-dasharray:none;stroke-opacity:1;paint-order:fill markers stroke"
       id="ellipse1071"
       cx="34.826504"
       cy="166.37663"
       rx="1.4007366"
       ry="0.65893716" />
  </g>
  <path
     style="fill:#d45500;stroke:#000000;stroke-width:0.05926504;stroke-linecap:butt;stroke-linejoin:miter;stroke-miterlimit:4;stroke-dasharray:none;stroke-opacity:1"
     d="m 197.18728,270.09841 c 0,0 4.63012,-1.53322 6.96543,-4.5126 1.24256,-0.36854 1.07909,-0.0569 1.07909,-0.0569 0,0 -2.20034,2.23988 -1.6221,2.72526 0.27905,0.46336 -6.42247,1.84428 -6.42247,1.84428 z"
     id="path1225"
     inkscape:connector-curvature="0"
     sodipodi:nodetypes="ccccc"
     inkscape:transform-center-x="-2.3473783"
     inkscape:transform-center-y="2.0594335"
     inkscape:export-xdpi="96"
     inkscape:export-ydpi="96" />
  <path
     sodipodi:nodetypes="ccssssssscc"
     inkscape:connector-curvature="0"
     id="path1315"
     d="m 232.73357,259.97689 c 0,0 1.48473,-0.70646 0.9837,0.26576 0.92508,0.16729 0.64189,1.35579 0.50732,1.36945 -0.13459,0.0137 2.30953,1.05355 0.7133,1.25846 -0.50859,0.0653 2.7981,0.92537 2.89186,1.37725 0.054,0.26049 -0.92076,0.68373 -0.0651,1.00485 0.67343,0.25274 0.85488,0.66464 1.13524,0.69672 0.39303,0.0449 0.36391,0.40374 1.01035,0.34408 1.16791,-0.10781 1.98654,-0.15585 1.98654,-0.15585 0.15477,1.26049 -4.81639,0.71325 -6.16318,0.14553 0.0551,-1.57273 -6.40012,-4.57171 -3.00002,-6.30625 z"
     style="fill:#c8ab37;stroke:#000000;stroke-width:0.02097391;stroke-linecap:butt;stroke-linejoin:miter;stroke-miterlimit:4;stroke-dasharray:none;stroke-opacity:1"
     inkscape:export-xdpi="96"
     inkscape:export-ydpi="96" />
  <path
     style="fill:#c8ab37;stroke:#000000;stroke-width:0.02517309;stroke-linecap:butt;stroke-linejoin:miter;stroke-miterlimit:4;stroke-dasharray:none;stroke-opacity:1"
     d="m 187.00405,267.69253 c 0,0 3.5654,0.42378 2.36224,-0.15943 2.22147,-0.10038 1.54142,-0.81329 1.21827,-0.82147 -0.3232,-0.008 5.54606,-0.632 1.7129,-0.75491 -1.22131,-0.0392 6.7193,-0.5551 6.94446,-0.82617 0.12967,-0.15626 -2.21109,-0.41015 -0.15633,-0.60277 1.61716,-0.15162 2.05289,-0.3987 2.72614,-0.41794 0.94382,-0.0269 0.87389,-0.24219 2.42624,-0.2064 2.80459,0.0647 4.77043,0.0935 4.77043,0.0935 0.37166,-0.75612 -11.56598,-0.42785 -14.80013,-0.0873 0.13231,0.94343 -15.36913,2.74241 -7.20419,3.78291 z"
     id="path5017"
     inkscape:connector-curvature="0"
     sodipodi:nodetypes="ccssssssscc"
     inkscape:export-xdpi="96"
     inkscape:export-ydpi="96" />
  <g
     transform="matrix(-0.56947704,0.10539636,0.50097376,0.35881695,146.93445,210.80048)"
     id="g5027"
     inkscape:export-xdpi="96"
     inkscape:export-ydpi="96">
    <ellipse
       style="opacity:1;fill:#28170b;fill-opacity:0.9906977;fill-rule:evenodd;stroke:#281717;stroke-width:0.1;stroke-linecap:round;stroke-linejoin:miter;stroke-miterlimit:4;stroke-dasharray:none;stroke-opacity:1;paint-order:fill markers stroke"
       id="ellipse5019"
       cx="34.678223"
       cy="165.82751"
       rx="4.0799131"
       ry="3.7557929" />
    <ellipse
       ry="3.1911559"
       rx="3.7491369"
       cy="165.32639"
       cx="34.878674"
       id="ellipse5021"
       style="opacity:1;fill:#483737;fill-opacity:0.9906977;fill-rule:evenodd;stroke:#281717;stroke-width:0.1;stroke-linecap:round;stroke-linejoin:miter;stroke-miterlimit:4;stroke-dasharray:none;stroke-opacity:1;paint-order:fill markers stroke" />
    <ellipse
       style="opacity:1;fill:#28170b;fill-opacity:0.9906977;fill-rule:evenodd;stroke:#281717;stroke-width:0.2;stroke-linecap:round;stroke-linejoin:miter;stroke-miterlimit:4;stroke-dasharray:none;stroke-opacity:1;paint-order:fill markers stroke"
       id="ellipse5023"
       cx="34.807175"
       cy="165.32336"
       rx="1.8339037"
       ry="1.6697948" />
    <ellipse
       ry="0.65893716"
       rx="1.4007366"
       cy="166.37663"
       cx="34.826504"
       id="ellipse5025"
       style="opacity:1;fill:#483737;fill-opacity:0.9906977;fill-rule:evenodd;stroke:none;stroke-width:0.05266184;stroke-linecap:round;stroke-linejoin:miter;stroke-miterlimit:4;stroke-dasharray:none;stroke-opacity:1;paint-order:fill markers stroke" />
  </g>
  <path
     inkscape:transform-center-y="1.7598565"
     inkscape:transform-center-x="-3.7103959"
     sodipodi:nodetypes="ccccc"
     inkscape:connector-curvature="0"
     id="path5029"
     d="m 248.66573,268.39257 c 0,0 1.9147,-1.31019 1.19595,-3.85614 0.54661,-0.31493 0.67566,-0.0486 0.67566,-0.0486 0,0 0.24404,1.91403 1.00001,2.32881 0.53975,0.39595 -2.8716,1.57598 -2.8716,1.57598 z"
     style="fill:#d45500;stroke:#000000;stroke-width:0.04472229;stroke-linecap:butt;stroke-linejoin:miter;stroke-miterlimit:4;stroke-dasharray:none;stroke-opacity:1"
     inkscape:export-xdpi="96"
     inkscape:export-ydpi="96" />
</svg>
