<?xml version="1.0" encoding="UTF-8" standalone="no"?>
<!-- Created with Inkscape (http://www.inkscape.org/) -->

<svg
   xmlns:dc="http://purl.org/dc/elements/1.1/"
   xmlns:cc="http://creativecommons.org/ns#"
   xmlns:rdf="http://www.w3.org/1999/02/22-rdf-syntax-ns#"
   xmlns:svg="http://www.w3.org/2000/svg"
   xmlns="http://www.w3.org/2000/svg"
   xmlns:sodipodi="http://sodipodi.sourceforge.net/DTD/sodipodi-0.dtd"
   xmlns:inkscape="http://www.inkscape.org/namespaces/inkscape"
   width="210mm"
   height="297mm"
   viewBox="0 0 210 297"
   version="1.1"
   id="svg5108"
   sodipodi:docname="logo5xx.svg"
   inkscape:version="0.92.2 (5c3e80d, 2017-08-06)">
  <defs
     id="defs5102" />
  <sodipodi:namedview
     id="base"
     pagecolor="#ffffff"
     bordercolor="#666666"
     borderopacity="1.0"
     inkscape:pageopacity="0.0"
     inkscape:pageshadow="2"
     inkscape:zoom="1.0951916"
     inkscape:cx="442.8875"
     inkscape:cy="456.26227"
     inkscape:document-units="mm"
     inkscape:current-layer="layer1"
     showgrid="false"
     inkscape:snap-nodes="false"
     inkscape:window-width="1920"
     inkscape:window-height="1137"
     inkscape:window-x="-8"
     inkscape:window-y="-8"
     inkscape:window-maximized="1" />
  <metadata
     id="metadata5105">
    <rdf:RDF>
      <cc:Work
         rdf:about="">
        <dc:format>image/svg+xml</dc:format>
        <dc:type
           rdf:resource="http://purl.org/dc/dcmitype/StillImage" />
      </cc:Work>
    </rdf:RDF>
  </metadata>
  <g
     inkscape:label="Layer 1"
     inkscape:groupmode="layer"
     id="layer1">
    <path
       style="fill:#ffffff;stroke-width:0.57805681"
       inkscape:connector-curvature="0"
       d="m 82.466706,173.87034 c -1.831171,0 -2.138171,0.0234 -3.355332,0.34893 -1.501302,0.40679 -2.377152,0.91821 -3.401078,1.97669 -0.523104,0.5231 -0.784948,0.86036 -1.034776,1.29053 -0.625441,1.10465 -1.034779,2.36128 -1.285178,4.05859 -0.137216,0.82529 -0.14865,1.12805 -0.137216,3.17431 0,2.15148 0.250982,8.70991 0.398485,10.67492 0.102897,1.30282 0.05716,1.44251 -1.011919,2.96566 -0.399059,0.56882 -0.786,1.14641 -1.16055,1.73239 -0.716342,1.12806 -1.728825,2.58166 -2.558943,3.698 -1.535599,2.02347 0.191248,3.97544 -0.775503,6.66171 -0.932453,2.6278 -1.622103,3.38702 -2.998191,6.11944 -0.705491,1.37236 0.260252,2.43709 0.225944,3.41374 -0.04572,0.83697 0.491396,0.91294 0.616011,1.12218 3.122747,0.13969 -3.335854,0.11379 -3.085444,0.0448 -0.03426,0.0345 0.365616,0.72216 0.342716,0.73336 -0.397913,0.26768 -1.27576,0.17318 -1.559896,0.89383 -0.01145,0.0117 -0.01145,0.0352 -0.02281,0.0467 -0.10233,0.16307 -0.216103,0.44187 -0.352744,0.87205 -0.409338,1.18648 -0.750641,1.70959 -1.364658,2.04683 -0.523114,0.29047 -0.02271,2.95766 -1.387938,2.95766 -1.410398,0 -1.959559,-0.53436 -2.379766,-0.16208 -0.751214,0.6511 -1.589749,-0.0515 -1.077495,1.73938 0.46594,1.61666 0.443064,2.36069 -0.15951,4.17491 -0.329878,0.99944 -0.37561,1.20928 -0.37561,1.63945 0,0.32557 0.03426,0.56987 0.102906,0.72067 0.147504,0.31445 0.614016,0.69785 1.069087,0.89542 0.511681,0.19813 3.082066,0.84924 4.924668,1.22156 2.855094,0.59266 3.879021,0.90652 6.528875,1.9884 2.354845,0.95327 3.355896,1.30221 4.151705,1.43023 0.375612,0.0584 1.149127,-0.0117 1.501862,-0.15139 0.420771,-0.15138 0.818676,-0.43018 1.694526,-1.1865 1.547022,-1.32501 2.388572,-1.74408 4.117406,-2.02289 0.648317,-0.10519 1.240029,-0.11688 6.187562,-0.11688 3.003172,0 5.653014,0.0235 5.891992,0.0584 0.557414,0.0702 0.773517,0.25601 1.240028,1.09297 0.71635,1.3145 1.5922,1.89605 3.184391,2.13979 0.751222,0.11688 2.03642,0.12858 2.628132,0.0351 1.296631,-0.22093 1.944941,-0.61604 3.411945,-2.11582 1.70655,-1.75636 3.29874,-2.86102 5.53983,-3.86108 1.13712,-0.51199 1.6488,-0.80247 2.99116,-1.73296 1.64936,-1.13973 1.96781,-1.49977 1.96781,-2.24439 0,-0.77911 -0.62288,-0.9255 -2.13618,-1.94891 -1.44412,-0.97666 -1.87891,-1.91155 -2.48205,-2.81866 -0.42078,-0.63942 -0.56886,-1.12805 -0.62545,-2.08132 -0.0229,-0.44187 -0.0687,-0.74403 -0.12522,-0.93049 -0.0571,-0.66279 -0.31843,-1.41853 -0.78495,-1.66283 -0.64831,-0.34894 -0.87584,-0.24431 -1.09196,-0.10464 0.72835,-0.83697 0.96675,-1.23265 1.2063,-1.9533 0.42022,-1.27942 0.32931,-2.70965 -0.39847,-6.43041 -0.84155,-4.3263 -2.27539,-7.41935 -5.23225,-11.30322 -1.876913,-2.47702 -2.638991,-3.70968 -4.470161,-7.22123 -0.910157,-1.75578 -1.172001,-2.36072 -1.387532,-3.30231 -0.318443,-1.36067 -0.466512,-2.58165 -0.705489,-6.05871 -0.227533,-3.24387 -0.386472,-4.58173 -0.682604,-5.70978 -0.784389,-3.06967 -3.138659,-5.39529 -6.425965,-6.36084 -1.399538,-0.4068 -2.002114,-0.48804 -3.890454,-0.48804 z"
       id="path7285"
       sodipodi:nodetypes="ccccccccccccccccccccscccsccccccccscccccccscccccccccccccccc"
       inkscape:export-xdpi="96"
       inkscape:export-ydpi="96" />
    <path
       style="fill:#ffd42a;stroke-width:0.59905493"
       inkscape:connector-curvature="0"
       d="m 89.919685,193.31364 c 0,1.66238 -1.98047,2.01342 -2.94076,2.60948 -0.893788,0.8279 -6.04027,3.16601 -7.40432,3.16601 -2.19254,-0.46367 -4.86133,-3.73571 -5.20578,-5.90788 0,-1.2652 1.60966,-2.27821 2.51004,-3.1061 0.89438,-0.82789 1.92716,-1.60966 3.688981,-1.27839 1.364639,0 3.497279,0.64938 4.39107,1.47728 1.788168,0.59605 4.960171,0.98005 4.960171,3.0396 z M 53.863765,237.734 c 2.03679,0.92734 6.7819,2.11286 8.45087,2.31175 1.11963,0.46367 8.51078,2.18535 10.21269,2.18535 2.52322,-1.78817 2.94076,-4.4971 2.23208,-7.23896 -3.14624,-5.07997 -5.5766,-11.73542 -11.45752,-14.0274 -0.58947,0.29114 -1.07351,1.07949 -1.28498,1.21188 -0.42413,0.27137 -0.89439,0.86084 -1.19212,1.59647 -0.3115,0.76799 -0.59606,1.70849 -0.94351,3.07913 -0.67933,1.36464 -3.45355,0.13299 -5.35376,1.12622 -0.6931,2.09967 0.48944,7.27848 -0.66375,9.75556 z m 54.745835,-7.78169 c 1.2718,1.03936 3.26485,1.81453 4.16583,3.54279 -1.71509,2.04696 -3.19237,2.76882 -5.36454,3.80218 -2.9803,1.41678 -4.84816,2.74847 -6.21221,3.67521 -1.364637,1.19212 -4.530046,1.92117 -5.967175,1.72229 -0.907572,-0.59607 -1.92776,-7.83504 -1.59648,-10.19949 0,-1.258 -1.543169,-6.29844 0.927327,-9.37157 2.390831,-0.45708 4.443791,1.72886 5.960598,3.2187 1.25203,-0.84106 3.2319,-2.13262 4.72895,-2.45671 0.49002,-0.11262 0.5098,-0.62301 1.53658,-0.0863 0.49002,0.25819 0.77457,1.06631 0.82788,1.75521 0.0863,1.11245 0.1989,3.47031 0.99323,4.39706 z"
       id="path7287"
       inkscape:export-xdpi="96"
       inkscape:export-ydpi="96" />
    <g
       id="g6056"
       transform="matrix(0.81628696,-0.31825006,-0.56997423,-0.44254666,149.08033,370.63291)"
       inkscape:transform-center-x="5.8934895"
       inkscape:transform-center-y="2.6245106"
       inkscape:export-xdpi="96"
       inkscape:export-ydpi="96">
      <path
         sodipodi:nodetypes="ccssscc"
         inkscape:connector-curvature="0"
         id="path2928"
         d="m 84.304575,218.08354 c -2.85742,5.16598 -4.79156,10.39841 -7.75411,15.87302 -0.53882,-0.31609 -1.56136,-0.84447 -1.74577,-1.73482 -0.15623,-0.75421 -2.38944,-1.61086 -2.31411,-2.77771 0.0536,-0.83042 -2.22863,-2.39698 -1.82903,-3.35669 0.48713,-1.1699 -0.34177,-2.26977 -0.3353,-3.52111 6.89313,-3.07014 13.97832,-4.48269 13.97832,-4.48269 z"
         style="fill:#d4aa00;stroke:#000000;stroke-width:0.03279787;stroke-linecap:butt;stroke-linejoin:miter;stroke-miterlimit:4;stroke-dasharray:none;stroke-opacity:1" />
      <path
         sodipodi:nodetypes="cc"
         inkscape:connector-curvature="0"
         id="path2930"
         d="m 71.939205,221.89611 c 0,0 -0.20608,7.35654 5.69238,10.01367"
         style="fill:none;stroke:#000000;stroke-width:0.03279787;stroke-linecap:butt;stroke-linejoin:miter;stroke-miterlimit:4;stroke-dasharray:none;stroke-opacity:1" />
      <path
         sodipodi:nodetypes="ccsssccc"
         inkscape:connector-curvature="0"
         id="path2938"
         d="m 84.304575,218.08354 3.593129,0.58321 c 0,0 -3.284609,0.0964 -3.706788,1.92449 -0.277479,1.20154 0.11666,0.0918 -2.837321,5.37956 -0.97958,1.75352 -1.55313,3.325 -2.32765,5.02026 -0.63887,1.39837 -0.71006,3.16698 -1.2075,3.19587 -0.4191,0.11237 -1.26798,-0.23037 -1.26798,-0.23037 z"
         style="fill:#aa8800;stroke:#000000;stroke-width:0.03279787;stroke-linecap:butt;stroke-linejoin:miter;stroke-miterlimit:4;stroke-dasharray:none;stroke-opacity:1" />
      <path
         sodipodi:nodetypes="ccssssssssccc"
         inkscape:connector-curvature="0"
         id="path2940"
         d="m 77.546725,232.19021 c 0,0 1.72163,1.53428 1.14065,-0.57718 1.07268,-0.3633 0.74432,-2.94446 0.58827,-2.97414 -0.15606,-0.0297 2.67802,-2.28806 0.827112,-2.73308 -0.589742,-0.14178 3.244537,-2.00972 3.353257,-2.99109 0.0626,-0.56573 -1.067668,-1.4849 -0.0755,-2.18233 0.780881,-0.54889 0.99128,-1.44344 1.316371,-1.5131 0.45574,-0.0977 0.421979,-0.87685 1.171559,-0.74727 1.354241,0.23413 2.303489,0.33846 2.303489,0.33846 0.179473,-2.7375 -5.584848,-1.54901 -7.146528,-0.31605 -1.428871,1.12811 -8.599571,1.44167 -9.086221,3.40205 0,0 -0.21976,7.28078 5.607541,10.29373 z"
         style="fill:#ffdd55;stroke:#000000;stroke-width:0.03328375;stroke-linecap:butt;stroke-linejoin:miter;stroke-miterlimit:4;stroke-dasharray:none;stroke-opacity:1" />
      <g
         transform="matrix(-0.07913984,0.26150891,0.35250533,0.02553291,19.769205,215.86726)"
         id="g6728">
        <ellipse
           ry="3.7557929"
           rx="4.0799131"
           cy="165.82751"
           cx="34.678223"
           id="ellipse6720"
           style="opacity:1;fill:#28170b;fill-opacity:0.9906977;fill-rule:evenodd;stroke:#281717;stroke-width:0.1;stroke-linecap:round;stroke-linejoin:miter;stroke-miterlimit:4;stroke-dasharray:none;stroke-opacity:1;paint-order:fill markers stroke" />
        <ellipse
           style="opacity:1;fill:#483737;fill-opacity:0.9906977;fill-rule:evenodd;stroke:#281717;stroke-width:0.1;stroke-linecap:round;stroke-linejoin:miter;stroke-miterlimit:4;stroke-dasharray:none;stroke-opacity:1;paint-order:fill markers stroke"
           id="ellipse6722"
           cx="34.878674"
           cy="165.32639"
           rx="3.7491369"
           ry="3.1911559" />
        <ellipse
           ry="1.6697948"
           rx="1.8339037"
           cy="165.32336"
           cx="34.807175"
           id="ellipse6724"
           style="opacity:1;fill:#28170b;fill-opacity:0.9906977;fill-rule:evenodd;stroke:#281717;stroke-width:0.2;stroke-linecap:round;stroke-linejoin:miter;stroke-miterlimit:4;stroke-dasharray:none;stroke-opacity:1;paint-order:fill markers stroke" />
        <ellipse
           style="opacity:1;fill:#483737;fill-opacity:0.9906977;fill-rule:evenodd;stroke:none;stroke-width:0.05266184;stroke-linecap:round;stroke-linejoin:miter;stroke-miterlimit:4;stroke-dasharray:none;stroke-opacity:1;paint-order:fill markers stroke"
           id="ellipse6726"
           cx="34.826504"
           cy="166.37663"
           rx="1.4007366"
           ry="0.65893716" />
      </g>
      <path
         style="fill:#e9c6af;stroke:#000000;stroke-width:0.03279787;stroke-linecap:butt;stroke-linejoin:miter;stroke-miterlimit:4;stroke-dasharray:none;stroke-opacity:1"
         d="m 74.596945,227.16025 c 0,0 3.26018,-0.33081 3.14536,-0.58619 -0.11482,-0.25537 -0.57042,-0.39658 -0.32235,-0.95531 0.24807,-0.55875 -1.6779,-0.4547 -2.00464,-0.89485 0,0 -0.82762,0.52248 -1.29182,1.06272 0.58008,0.35741 0.78221,0.35661 0.47345,1.37363 z"
         id="path6697"
         inkscape:connector-curvature="0"
         sodipodi:nodetypes="ccsccc" />
      <g
         transform="matrix(-0.17203522,0.19497842,0.32036943,0.02320522,30.673164,214.41481)"
         id="g6718">
        <ellipse
           ry="3.7557929"
           rx="4.0799131"
           cy="165.82751"
           cx="34.678223"
           id="ellipse6710"
           style="opacity:1;fill:#28170b;fill-opacity:0.9906977;fill-rule:evenodd;stroke:#281717;stroke-width:0.1;stroke-linecap:round;stroke-linejoin:miter;stroke-miterlimit:4;stroke-dasharray:none;stroke-opacity:1;paint-order:fill markers stroke" />
        <ellipse
           style="opacity:1;fill:#483737;fill-opacity:0.9906977;fill-rule:evenodd;stroke:#281717;stroke-width:0.1;stroke-linecap:round;stroke-linejoin:miter;stroke-miterlimit:4;stroke-dasharray:none;stroke-opacity:1;paint-order:fill markers stroke"
           id="ellipse6712"
           cx="34.878674"
           cy="165.32639"
           rx="3.7491369"
           ry="3.1911559" />
        <ellipse
           ry="1.6697948"
           rx="1.8339037"
           cy="165.32336"
           cx="34.807175"
           id="ellipse6714"
           style="opacity:1;fill:#28170b;fill-opacity:0.9906977;fill-rule:evenodd;stroke:#281717;stroke-width:0.2;stroke-linecap:round;stroke-linejoin:miter;stroke-miterlimit:4;stroke-dasharray:none;stroke-opacity:1;paint-order:fill markers stroke" />
        <ellipse
           style="opacity:1;fill:#483737;fill-opacity:0.9906977;fill-rule:evenodd;stroke:none;stroke-width:0.05266184;stroke-linecap:round;stroke-linejoin:miter;stroke-miterlimit:4;stroke-dasharray:none;stroke-opacity:1;paint-order:fill markers stroke"
           id="ellipse6716"
           cx="34.826504"
           cy="166.37663"
           rx="1.4007366"
           ry="0.65893716" />
      </g>
      <path
         sodipodi:nodetypes="csc"
         inkscape:connector-curvature="0"
         id="path6681"
         d="m 78.280815,226.74531 c 0,0 0.71239,3.1756 -2.09673,4.20166 -1.79364,0.65514 0.75749,-5.04804 2.09673,-4.20166 z"
         style="fill:#d38d5f;stroke:#000000;stroke-width:0.03279787;stroke-linecap:butt;stroke-linejoin:miter;stroke-miterlimit:4;stroke-dasharray:none;stroke-opacity:1" />
      <path
         sodipodi:nodetypes="csc"
         inkscape:connector-curvature="0"
         id="path6683"
         d="m 75.149775,221.09446 c 0,0 -5.82674,1.06556 -2.5601,4.09672 1.63217,1.5145 3.97276,-4.58366 2.5601,-4.09672 z"
         style="fill:#d38d5f;stroke:#000000;stroke-width:0.03279787;stroke-linecap:butt;stroke-linejoin:miter;stroke-miterlimit:4;stroke-dasharray:none;stroke-opacity:1" />
      <path
         sodipodi:nodetypes="cccc"
         inkscape:connector-curvature="0"
         id="path6685"
         d="m 72.680805,224.16292 c 0.98922,1.38078 1.10782,2.83917 -0.13662,4.45069 l 1.56974,-0.27883 c 0,0 1.19214,-4.30287 -1.43312,-4.17186 z"
         style="fill:#d45500;stroke:#000000;stroke-width:0.03279787;stroke-linecap:butt;stroke-linejoin:miter;stroke-miterlimit:4;stroke-dasharray:none;stroke-opacity:1" />
      <path
         inkscape:connector-curvature="0"
         id="path6687"
         d="m 72.680805,224.16292 -0.0258,0.54344 0.58092,0.45842 z"
         style="fill:#ff9955;stroke:#000000;stroke-width:0.03279787;stroke-linecap:butt;stroke-linejoin:miter;stroke-miterlimit:4;stroke-dasharray:none;stroke-opacity:1" />
      <path
         inkscape:connector-curvature="0"
         id="path6689"
         d="m 75.595785,222.57272 c 0,0 -1.68442,1.58121 -1.25704,2.4827 0.42739,0.90149 1.07727,-0.29229 1.07727,-0.29229 0,0 0.43015,-0.9611 0.65002,-1.10919 0.21987,-0.14809 0.52135,0.0125 0.52135,0.0125 l 0.009,-1.12222 c -0.61279,-0.0318 -1.00056,0.0284 -1.00056,0.0284 z"
         style="fill:#cdde87;stroke:#000000;stroke-width:0.03279787;stroke-linecap:butt;stroke-linejoin:miter;stroke-miterlimit:4;stroke-dasharray:none;stroke-opacity:1" />
      <path
         sodipodi:nodetypes="ccccc"
         inkscape:connector-curvature="0"
         id="path6691"
         d="m 76.052945,222.08201 c 0,0 1.31777,-0.83235 0.40687,-2.54875 0.39433,-0.2123 0.53254,-0.0328 0.53254,-0.0328 0,0 0.44845,1.29037 1.10651,1.56998 0.4831,0.26694 -2.04591,1.01157 -2.04591,1.01157 z"
         style="fill:#ff6600;stroke:#000000;stroke-width:0.03279787;stroke-linecap:butt;stroke-linejoin:miter;stroke-miterlimit:4;stroke-dasharray:none;stroke-opacity:1" />
      <path
         style="fill:#d45500;stroke:#000000;stroke-width:0.03279787;stroke-linecap:butt;stroke-linejoin:miter;stroke-miterlimit:4;stroke-dasharray:none;stroke-opacity:1"
         d="m 76.113295,222.0865 c 0,0 1.35381,-0.88327 0.44289,-2.59966 0.39433,-0.21231 0.53256,-0.0328 0.53256,-0.0328 0,0 0.44844,1.29037 1.1065,1.56999 0.4831,0.26694 -2.08195,1.06247 -2.08195,1.06247 z"
         id="path6693"
         inkscape:connector-curvature="0"
         sodipodi:nodetypes="ccccc" />
      <path
         sodipodi:nodetypes="ccsccc"
         inkscape:connector-curvature="0"
         id="path6695"
         d="m 78.026229,219.44529 c 0,0 1.15795,1.89046 1.51852,1.72733 0.36057,-0.16313 0.480479,-0.49509 1.37058,-0.54417 0.890111,-0.0491 0.3434,-1.19891 0.93876,-1.55952 0,0 -0.953061,-0.32136 -1.859161,-0.41222 -0.419639,0.48688 -0.377489,0.61122 -1.968699,0.78858 z"
         style="fill:#e9c6af;stroke:#000000;stroke-width:0.03279787;stroke-linecap:butt;stroke-linejoin:miter;stroke-miterlimit:4;stroke-dasharray:none;stroke-opacity:1" />
      <path
         inkscape:connector-curvature="0"
         id="path6930"
         d="m 80.042185,225.23486 2.28495,-5.18719 c 0,0 -9.89532,1.06748 -2.28495,5.18719 z"
         style="fill:#d38d5f;stroke:#000000;stroke-width:0.03279787;stroke-linecap:butt;stroke-linejoin:miter;stroke-miterlimit:3.9000001;stroke-dasharray:none;stroke-opacity:1" />
      <g
         transform="matrix(-0.22646877,0.23067009,0.31683764,0.11691764,36.505906,194.05026)"
         id="g6708">
        <ellipse
           style="opacity:1;fill:#28170b;fill-opacity:0.9906977;fill-rule:evenodd;stroke:#281717;stroke-width:0.1;stroke-linecap:round;stroke-linejoin:miter;stroke-miterlimit:4;stroke-dasharray:none;stroke-opacity:1;paint-order:fill markers stroke"
           id="path2944"
           cx="34.678223"
           cy="165.82751"
           rx="4.0799131"
           ry="3.7557929" />
        <ellipse
           ry="3.1911559"
           rx="3.7491369"
           cy="165.32639"
           cx="34.878674"
           id="ellipse2949"
           style="opacity:1;fill:#483737;fill-opacity:0.9906977;fill-rule:evenodd;stroke:#281717;stroke-width:0.1;stroke-linecap:round;stroke-linejoin:miter;stroke-miterlimit:4;stroke-dasharray:none;stroke-opacity:1;paint-order:fill markers stroke" />
        <ellipse
           style="opacity:1;fill:#28170b;fill-opacity:0.9906977;fill-rule:evenodd;stroke:#281717;stroke-width:0.2;stroke-linecap:round;stroke-linejoin:miter;stroke-miterlimit:4;stroke-dasharray:none;stroke-opacity:1;paint-order:fill markers stroke"
           id="ellipse2951"
           cx="34.807175"
           cy="165.32336"
           rx="1.8339037"
           ry="1.6697948" />
        <ellipse
           ry="0.65893716"
           rx="1.4007366"
           cy="166.37663"
           cx="34.826504"
           id="ellipse6702"
           style="opacity:1;fill:#483737;fill-opacity:0.9906977;fill-rule:evenodd;stroke:none;stroke-width:0.05266184;stroke-linecap:round;stroke-linejoin:miter;stroke-miterlimit:4;stroke-dasharray:none;stroke-opacity:1;paint-order:fill markers stroke" />
      </g>
    </g>
    <path
       inkscape:connector-curvature="0"
       d="m 70.944625,243.82039 c -0.83449,-0.13179 -1.88703,-0.46307 -4.35094,-1.45689 -2.78201,-1.12623 -3.84833,-1.39101 -6.84181,-2.05297 -1.92716,-0.33128 -4.63069,-1.02678 -5.15786,-1.23884 -0.47744,-0.1917 -0.97346,-0.58947 -1.12562,-0.91356 -0.0707,-0.14557 -0.10783,-0.40436 -0.10783,-0.73504 0,-0.45049 0.0479,-0.64938 0.39538,-1.67616 0.6296,-1.86724 0.66015,-2.62923 0.17012,-4.285 -0.54274,-1.83431 -0.41574,-3.15881 0.36603,-3.82795 0.4421,-0.3774 0.7638,-0.44329 2.23867,-0.44329 1.43354,0 1.91757,-0.0731 2.4723,-0.37741 0.63919,-0.35164 0.99922,-0.8812 1.42275,-2.09967 0.27197,-0.78836 0.45049,-1.09986 0.62302,-1.09986 0.13898,0 0.25759,0.34445 0.25759,0.76199 0,0.37081 -0.41694,1.93374 -0.62241,2.3375 -0.21806,0.43731 -0.51639,0.77517 -0.86025,0.97406 -0.64099,0.3774 -1.87624,0.47684 -3.2313,0.27137 -0.86564,-0.13899 -1.36225,-0.10604 -1.69353,0.0929 -0.49003,0.29773 -0.5703,0.96687 -0.21446,1.79476 0.68891,1.59588 0.82071,1.94093 0.96628,2.47708 0.17312,0.64218 0.20068,1.20529 0.0923,1.87383 -0.10783,0.66255 -0.29833,1.07949 -0.86025,1.86784 -0.29054,0.41095 -0.55592,0.84767 -0.59127,0.98006 -0.0988,0.35763 0.0474,0.62901 0.44211,0.83448 0.33547,0.16594 5.11413,1.40418 8.4904,2.16618 1.03996,0.26478 2.93418,0.72846 4.20537,1.05973 1.27838,0.33068 2.60349,0.59606 2.94735,0.66195 1.06632,0.13239 2.05356,0 2.73588,-0.39717 0.94651,-0.59605 1.60906,-1.96729 1.68874,-3.56318 0.0527,-1.05314 -0.17912,-2.00023 -0.79495,-3.22529 -0.47026,-0.94052 -0.70209,-1.30474 -2.93417,-4.67621 -3.94058,-5.93421 -5.64909,-7.91407 -7.10599,-8.21899 -0.47026,-0.0928 -0.78176,-0.0395 -1.41077,0.24562 -0.60265,0.27077 -0.80872,0.28455 -0.9537,0.0659 -0.13958,-0.21205 2.153703,-0.59581 2.193243,-1.45665 -1.429746,0.25055 1.799587,-8.91857 4.968162,-11.57557 2.758774,-6.84347 4.933699,-7.33357 4.601045,-13.26139 -0.15935,-2.00683 -0.42413,-8.73542 -0.42413,-10.93455 -0.007,-2.0925 0.007,-2.4106 0.13898,-3.25886 0.27197,-1.73187 0.6955,-3.03242 1.35805,-4.15804 0.25161,-0.43971 0.53615,-0.78776 1.07231,-1.32931 1.0735,-1.08189 2.00084,-1.60127 3.57037,-2.01222 1.278379,-0.33427 1.60247,-0.36782 3.51645,-0.36542 1.973879,0.001 2.602892,0.0791 4.07357,0.50201 3.44397,0.98903 5.913872,3.37507 6.741761,6.51591 0.304916,1.15918 0.470257,2.53701 0.708686,5.86177 0.2516,3.55658 0.40436,4.80801 0.742223,6.2122 0.225247,0.95369 0.496617,1.5827 1.449718,3.37747 1.921171,3.60332 2.716112,4.86132 4.682807,7.39174 3.09951,3.98671 4.59656,7.15269 5.48376,11.58987 0.762,3.81476 0.85485,5.27884 0.41754,6.59675 -0.26478,0.79435 -0.52297,1.19212 -1.43054,2.19253 -1.9074,2.11226 -4.03345,3.43677 -5.490347,3.43677 -1.32451,0 -2.537,-0.90039 -3.404429,-2.53639 -0.403762,-0.90098 -0.351051,-1.62283 -1.509619,-1.36464 -0.563111,0.15276 -1.026782,0.83447 -1.166361,1.71568 -0.105431,0.62901 -0.0857,3.0396 0.0269,3.64224 0.0461,0.27196 0.20488,1.07948 0.337878,1.78817 0.238411,1.22565 0.25159,1.35805 0.25159,2.61606 0,1.15916 -0.027,1.51021 -0.21865,2.78199 -0.17912,1.19212 -0.212068,1.60247 -0.191701,2.25185 0.02569,0.7548 0.0396,0.82789 0.264192,1.29815 0.271971,0.59605 0.868029,1.25802 1.384409,1.58929 1.139401,0.72845 2.7287,0.79494 4.066391,0.13239 0.377407,-0.19829 0.927327,-0.59606 1.854667,-1.3239 1.50363,-1.21909 2.62267,-1.99427 3.47034,-2.42439 0.32468,-0.15934 1.10585,-0.45708 1.73546,-0.66255 2.60948,-0.84107 3.8016,-1.34427 4.46355,-1.8942 0.78836,-0.64219 1.16577,-1.33768 1.02678,-1.86126 -0.17911,-0.64877 -0.92733,-1.11244 -2.45732,-1.50961 -1.15198,-0.30491 -1.43054,-0.44389 -1.9008,-0.96027 -0.41694,-0.45709 -0.74163,-1.11305 -0.98005,-1.98706 -0.23184,-0.85425 -0.26479,-2.23866 -0.0659,-2.7814 0.13898,-0.38459 0.27796,-0.56311 0.43731,-0.56311 0.18511,0 0.27796,0.32469 0.33068,1.19212 0.0659,0.96685 0.21865,1.47666 0.66256,2.12603 0.629,0.93392 1.29755,1.53656 2.81435,2.54297 1.58331,1.04655 2.02002,1.54975 2.02002,2.35128 0,0.7614 -0.33787,1.13221 -2.05955,2.29137 -1.41078,0.95369 -1.94094,1.25801 -3.13306,1.775 -2.35069,1.02678 -4.01967,2.16558 -5.81444,3.95376 -1.53657,1.5234 -2.20572,1.98707 -3.576346,2.18595 -0.616442,0.0659 -1.960711,0.0659 -2.749071,-0.0659 -1.668971,-0.19888 -2.575939,-0.79494 -3.337939,-2.18655 -0.483431,-0.86025 -0.70867,-1.05912 -1.29155,-1.12563 -0.251611,0 -3.033019,-0.0659 -6.18585,-0.0659 -5.178819,0 -5.80184,0.0659 -6.47038,0.13241 -1.81514,0.33126 -2.70893,0.72844 -4.32518,2.05296 -0.91356,0.79493 -1.3311,1.06032 -1.775,1.25801 -0.36423,0.13299 -1.17834,0.19948 -1.56952,0.13299 z m 5.97377,-4.27125 c 0.14617,-0.12581 0.36482,-0.41755 0.49063,-0.64938 0.19828,-0.37141 0.22524,-0.48343 0.24501,-1.05314 0.0461,-1.04655 -0.17911,-1.63542 -0.92074,-2.41719 -0.5098,-0.53674 -0.58289,-0.76857 -0.29174,-0.90097 0.27196,-0.1192 0.61642,0.0329 1.23225,0.54994 1.16576,0.98663 1.85407,1.15257 4.39706,1.09926 2.73589,-0.0659 4.22574,-0.35105 5.729369,-1.10585 0.973461,-0.49002 1.61625,-1.04655 2.43096,-2.12664 0.575691,-0.7548 0.83448,-1.0124 1.158561,-1.14538 0.53676,-0.22524 0.821311,0.21206 0.80873,1.25201 -0.007,0.48344 -0.0599,0.78776 -0.278558,1.59588 -0.596051,2.15239 -0.781762,3.36488 -0.615831,3.98071 0.0988,0.35763 0.410361,0.62901 0.694909,0.60265 0.19888,-0.0198 0.20547,-0.0329 0.258789,-0.41755 0.0263,-0.21865 0.138981,-0.96028 0.2516,-1.65579 0.106032,-0.68891 0.238422,-1.58269 0.297731,-1.98645 0.13898,-1.04654 0.24561,-4.29221 0.2516,-7.81522 0.007,-3.04019 0.007,-3.04679 0.165941,-3.51045 0.125799,-0.35764 0.23843,-0.53614 0.496618,-0.79435 0.40376,-0.39777 0.78177,-0.54333 1.635419,-0.60324 l 0.570301,-0.0461 0.0791,-0.40377 c 0.191699,-0.92074 0.74163,-1.44371 1.828318,-1.73545 0.351042,-0.0928 0.70149,-0.12578 1.456902,-0.12578 1.092666,0 1.397586,0.0659 2.384226,0.54333 0.44331,0.21146 0.8279,0.28454 0.8279,0.15875 0,-0.0994 -0.53675,-0.60265 -0.96687,-0.90756 -0.27001,-0.18811 -0.55868,-0.3479 -0.86144,-0.47685 -0.33727,-0.13898 -0.46307,-0.22525 -0.47685,-0.32408 -0.0132,-0.0797 0.0863,-0.52358 0.21865,-0.99384 0.3846,-1.39099 0.51039,-2.27159 0.51699,-3.5961 0.0132,-2.17875 -0.37142,-3.62306 -1.636018,-6.06659 -1.172347,-2.26503 -2.410597,-3.9274 -3.390648,-4.54982 -0.28515,-0.17253 -0.62302,-0.29174 -0.62302,-0.21865 0,0.0263 0.238419,0.3774 0.523571,0.78775 1.35087,1.91398 2.755058,4.35812 3.35112,5.84856 0.483428,1.19211 0.847655,2.80775 0.960285,4.27843 0.19169,2.41058 -0.463676,4.47012 -1.589896,4.97332 -0.224642,0.10603 -0.47685,0.14617 -1.026181,0.15935 -0.87462,0.0329 -0.993831,-0.0132 -1.225669,-0.47685 l -0.165341,-0.33127 -0.0396,-2.649 c -0.0731,-4.51086 -0.285149,-5.27885 -2.649617,-9.55069 -0.728451,-1.31133 -0.874022,-1.65579 -1.185521,-2.84791 -0.635,-2.45013 -1.25203,-3.88786 -2.218299,-5.18542 -1.477271,-1.97388 -1.66897,-2.79519 -1.0795,-4.61632 0.3774,-1.18612 0.370819,-1.79476 -0.027,-2.19853 -0.29114,-0.29833 -0.51638,-0.40436 -1.84748,-0.82849 -2.020012,-0.64219 -2.95394,-1.21848 -3.212131,-1.97988 -0.258199,-0.74881 -0.0731,-1.96729 0.39058,-2.56994 0.33128,-0.43731 0.754811,-0.62302 1.404181,-0.62302 0.430728,0.007 0.602649,0.0402 0.900988,0.17253 0.456473,0.21865 0.820701,0.53016 1.006412,0.88061 0.198879,0.3774 0.19169,1.27179 -0.0132,1.92776 -0.33787,1.06632 -0.324691,0.95369 -0.0863,1.16576 0.430718,0.38339 1.113038,0.41694 1.410769,0.0599 0.258191,-0.30552 0.33787,-0.61643 0.371419,-1.49045 0.0396,-0.95369 -0.0599,-1.58989 -0.451088,-2.7886 -0.536162,-1.64261 -1.072311,-2.11946 -2.695752,-2.38424 -1.211289,-0.19889 -1.873848,-0.0396 -2.48308,0.58947 -0.953699,0.99323 -1.43055,2.57594 -1.238848,4.16583 0.106029,0.88061 0.0863,0.92074 -0.410361,0.76199 -0.443291,-0.13957 -1.41736,-0.2516 -1.98047,-0.23183 -0.60265,0.0263 -0.65536,-0.027 -0.65536,-0.70209 -0.007,-2.74847 -0.83449,-4.24551 -2.35129,-4.23232 -1.05314,0 -1.9074,0.80153 -2.22549,2.07273 -0.12581,0.49721 -0.0994,1.92117 0.0402,2.74906 0.284549,1.62943 0.90038,2.44414 1.38381,1.80795 0.19889,-0.27137 0.37142,-0.61583 0.37142,-0.72845 0,-0.0467 -0.152761,-0.15276 -0.33128,-0.23843 -0.19889,-0.0928 -0.377401,-0.23842 -0.45708,-0.37141 -0.3774,-0.60205 -0.56311,-1.68215 -0.40436,-2.25844 0.20548,-0.72845 1.2053,-1.17834 1.89421,-0.85425 0.58288,0.27856 1.2053,1.56353 1.1394,2.37106 -0.0533,0.64279 -0.17252,0.84107 -0.754811,1.27179 -0.291739,0.21207 -0.761989,0.59606 -1.053129,0.85426 -0.29115,0.25819 -0.64938,0.55652 -0.79495,0.66255 -0.74163,0.53616 -1.15917,1.16576 -1.15917,1.76122 0,0.39119 0.15875,0.60325 0.65596,0.84826 0.39059,0.19829 0.74163,0.54274 1.112449,1.08609 0.497211,0.71527 1.086091,0.94052 2.437551,0.93393 1.648599,-0.007 3.12587,-0.35764 5.894701,-1.39101 1.503029,-0.56311 2.185616,1.06477 2.325613,0.50674 -1.123366,0.3218 -1.565679,-0.22935 -1.961983,-0.0628 -0.741215,0.26082 -1.470396,0.55465 -2.185361,0.88061 -1.139391,0.54334 -1.456891,0.65597 -2.20572,0.80153 -0.61582,0.11922 -2.03977,0.1324 -2.82154,0.0263 -0.635,-0.0863 -1.0196,-0.0395 -0.986641,0.12581 0.0329,0.17253 1.503621,1.31792 1.841491,1.44372 0.47685,0.16594 1.41736,0.19889 2.02661,0.0599 0.92074,-0.19889 3.82795,-1.45031 5.27168,-2.25844 0.483429,-0.27137 0.754809,-0.38399 0.927331,-0.38399 0.291139,-0.006 0.51639,0.17852 0.51639,0.41035 0,0.2516 -0.490033,0.68233 -1.026192,0.90757 -0.9471,0.38399 -1.145979,0.49002 -2.086499,1.08609 -1.28497,0.8207 -1.84749,1.23165 -2.69575,1.97388 -0.90696,0.78776 -1.165161,0.89379 -2.17217,0.90697 -0.80154,0.007 -1.04655,-0.0725 -1.56953,-0.52297 -0.41095,-0.35105 -1.391,-1.56953 -1.66896,-2.07992 -0.29174,-0.52957 -0.940521,-1.26461 -1.11305,-1.26461 -0.11202,0 -0.1258,0.0263 -0.3175,0.86084 -0.13239,0.59606 -1.13927,0.81822 -1.933621,2.37457 -0.953689,1.87504 -2.152239,1.4611 -2.152239,3.4284 0,1.64201 -0.679016,1.75132 -0.802197,3.65525 -2.301684,3.69986 -5.049042,9.92686 -3.589733,13.79522 7.480001,9.36974 7.925096,9.17666 10.36545,16.64286 0.15216,0.51039 0.14557,1.24604 -0.0198,1.7157 -0.0665,0.21206 -0.10603,0.38399 -0.0797,0.38399 0.0263,0 0.16534,-0.13179 0.31151,-0.23184 z m 1.146,-49.31524 c -0.20548,-0.39058 0.17911,-0.72845 0.83448,-0.72845 0.23183,0 0.43731,0.0263 0.45707,0.0659 0.0461,0.0797 -0.17851,0.19889 -0.3774,0.19889 -0.11981,0 -0.18571,0.0665 -0.28515,0.28515 -0.10543,0.23183 -0.16534,0.28455 -0.34386,0.29773 -0.15935,0.0132 -0.22524,-0.0132 -0.28514,-0.11922 z m 3.927399,-0.28455 c -0.383997,-0.13899 -0.682318,-0.33128 -0.60924,-0.40437 0.01979,-0.0198 0.24561,-0.0527 0.497221,-0.0791 0.59545,-0.0533 0.8207,0.0329 0.8207,0.29773 0,0.13239 -0.0461,0.22525 -0.125798,0.27197 -0.0731,0.0329 -0.138981,0.0659 -0.152162,0.0599 -0.007,0 -0.205481,-0.0665 -0.430721,-0.14616 z m 11.682759,7.38455 c 0.139581,-0.0863 0.417539,-0.76799 0.417539,-1.02678 0,-0.20488 -0.0396,-0.29774 -0.20547,-0.44989 -0.11262,-0.10604 -0.231838,-0.1923 -0.264779,-0.1923 -0.033,0 -0.291147,-0.10603 -0.576286,-0.24502 -0.350453,-0.16616 -0.670429,-0.39014 -0.946513,-0.66255 -0.239019,-0.22524 -0.470858,-0.41694 -0.5104,-0.41694 -0.0396,0 -0.0928,0.0797 -0.119208,0.17193 -0.0731,0.30492 0.033,0.77518 0.31151,1.3317 0.238419,0.49662 0.324088,0.59605 0.87402,1.04595 0.58947,0.48344 0.80813,0.57629 1.020188,0.4439 z m -15.934848,-8.86841 c 0.0797,-0.20488 0.0599,-0.36423 -0.14558,-1.03277 -0.0863,-0.29174 -0.21206,-0.53675 -0.34445,-0.68233 -0.1917,-0.20547 -0.22524,-0.21865 -0.3774,-0.13898 -0.21866,0.11922 -0.19889,0.384 0.0599,0.67514 0.19169,0.21865 0.35763,0.63619 0.43731,1.11304 0.0527,0.30432 0.26478,0.34446 0.37021,0.0659 z m 9.332071,-0.18571 c 0.145568,-0.17193 0.0396,-0.99323 -0.15875,-1.29755 -0.20547,-0.31151 -0.682922,-0.59606 -1.060321,-0.6356 -0.2516,-0.0335 -0.29773,-0.0138 -0.370221,0.11262 -0.0929,0.17193 -0.0467,0.22465 0.277961,0.32409 0.41035,0.13239 0.788361,0.69551 0.887201,1.31792 0.0401,0.23184 0.0731,0.27856 0.192299,0.27856 0.08713,-0.002 0.170073,-0.0379 0.231831,-0.0994 z m 0.443309,-8.92054 c 0.477441,-0.32947 0.510389,-0.34385 0.96747,-0.35583 0.58288,-0.015 0.708681,-0.0641 0.708681,-0.26958 0,-0.31989 -1.099272,-1.29455 -1.563531,-1.38082 -0.463068,-0.0875 -0.62901,0.16414 -0.721259,1.10646 -0.0401,0.35284 -0.0863,0.49961 -0.23843,0.68891 -0.20547,0.25999 -0.238432,0.41275 -0.106032,0.54394 0.131792,0.13539 0.416941,0.0359 0.953691,-0.33308 z"
       id="path7289"
       style="stroke:#ffffff;stroke-width:0.099;stroke-miterlimit:4;stroke-dasharray:none;stroke-opacity:0.91162809"
       sodipodi:nodetypes="cccccscccsccssccccccccccccccccccccccccccccccccccccccscccccsccccccccccccccscccscccccccscccccccccccccccccccccccccccccscscccccccsccccccccccccccccccccccccccccccccccsccccccccsccccccccccccccsccccccsccsccccscccscsccccccscccccscsccsccccccccccccccccccccccccscccccc"
       inkscape:export-xdpi="96"
       inkscape:export-ydpi="96" />
    <path
       style="opacity:1;fill:#806600;fill-opacity:0.9906977;fill-rule:evenodd;stroke:#281717;stroke-width:0.20128331;stroke-linecap:round;stroke-linejoin:miter;stroke-miterlimit:4;stroke-dasharray:none;stroke-opacity:0.91162809;paint-order:fill markers stroke"
       d="m 122.95354,239.41755 -30.78708,3.40899 18.99925,6.19594 30.78707,-3.409 z"
       id="path1404"
       inkscape:connector-curvature="0"
       inkscape:export-xdpi="96"
       inkscape:export-ydpi="96" />
    <path
       style="fill:#806600;fill-opacity:0.9906977;stroke:#000000;stroke-width:0.16155711;stroke-opacity:0.6"
       inkscape:connector-curvature="0"
       d="m 122.46861,235.85967 0.48493,3.55787 -30.78708,3.409 -0.48493,-3.55787 30.78708,-3.409"
       id="path1411"
       inkscape:export-xdpi="96"
       inkscape:export-ydpi="96" />
    <path
       style="fill:#806600;fill-opacity:0.9906977;stroke:#000000;stroke-width:0.16155711;stroke-opacity:0.6"
       inkscape:connector-curvature="0"
       d="m 91.68153,239.26867 0.48493,3.55787 18.99925,6.19593 -0.48493,-3.55787 -18.99925,-6.19593"
       id="path1413"
       inkscape:export-xdpi="96"
       inkscape:export-ydpi="96" />
    <path
       style="fill:#806600;fill-opacity:0.9906977;stroke:#000000;stroke-width:0.16155711;stroke-opacity:0.6"
       inkscape:connector-curvature="0"
       d="m 141.46786,242.0556 0.48492,3.55788 -18.99924,-6.19594 -0.48493,-3.55787 18.99925,6.19593"
       id="path1417"
       inkscape:export-xdpi="96"
       inkscape:export-ydpi="96" />
    <path
       style="fill:#aa8800;fill-opacity:0.9906977;stroke:#000000;stroke-width:0.16155711;stroke-opacity:0.6"
       inkscape:connector-curvature="0"
       d="m 110.68078,245.4646 0.48493,3.55787 30.78707,-3.40899 -0.48492,-3.55788 -30.78708,3.409"
       id="path1415"
       inkscape:export-xdpi="96"
       inkscape:export-ydpi="96" />
    <path
       inkscape:connector-curvature="0"
       id="rect1401"
       d="m 122.46861,235.85967 -30.78708,3.409 18.99925,6.19593 30.78708,-3.409 z"
       style="opacity:1;fill:#806600;fill-opacity:0.9906977;fill-rule:evenodd;stroke:#281717;stroke-width:0.20128331;stroke-linecap:round;stroke-linejoin:miter;stroke-miterlimit:4;stroke-dasharray:none;stroke-opacity:0.91162809;paint-order:fill markers stroke"
       inkscape:export-xdpi="96"
       inkscape:export-ydpi="96" />
    <g
       id="g5923"
       transform="matrix(0.92585337,0.04763978,-0.44015136,1.0574367,92.46689,6.7916614)"
       inkscape:export-xdpi="96"
       inkscape:export-ydpi="96">
      <path
         id="path5909"
         d="m 153.1836,215.2149 0.48475,3.55677 v 0 l -0.48475,-3.55677 v 0"
         inkscape:connector-curvature="0"
         style="fill:#806600;fill-opacity:0.9906977;stroke:#000000;stroke-width:0.16155711;stroke-opacity:0.6" />
      <path
         inkscape:connector-curvature="0"
         id="path5911"
         d="m 148.23239,209.5657 -30.91959,2.88929 18.88177,6.4997 30.9196,-2.88928 z"
         style="opacity:1;fill:#aa8800;fill-opacity:0.9906977;fill-rule:evenodd;stroke:#281717;stroke-width:0.20128331;stroke-linecap:round;stroke-linejoin:miter;stroke-miterlimit:4;stroke-dasharray:none;stroke-opacity:0.91162809;paint-order:fill markers stroke" />
      <path
         id="path5913"
         d="m 147.83209,206.00702 0.4003,3.55868 -30.91959,2.88929 -0.40031,-3.55869 30.9196,-2.88928"
         inkscape:connector-curvature="0"
         style="fill:#aa8800;fill-opacity:0.9906977;stroke:#000000;stroke-width:0.16155712;stroke-opacity:0.6" />
      <path
         id="path5915"
         d="m 116.91249,208.8963 0.40031,3.55869 18.88177,6.4997 -0.40031,-3.55868 -18.88177,-6.49971"
         inkscape:connector-curvature="0"
         style="fill:#806600;fill-opacity:0.9906977;stroke:#000000;stroke-width:0.16155712;stroke-opacity:0.6" />
      <path
         id="path5917"
         d="m 166.71386,212.50672 0.40031,3.55869 -18.88178,-6.49971 -0.4003,-3.55868 18.88177,6.4997"
         inkscape:connector-curvature="0"
         style="fill:#aa8800;fill-opacity:0.9906977;stroke:#000000;stroke-width:0.16155712;stroke-opacity:0.6" />
      <path
         id="path5919"
         d="m 135.79426,215.39601 0.40031,3.55868 30.9196,-2.88928 -0.40031,-3.55869 -30.9196,2.88929"
         inkscape:connector-curvature="0"
         style="fill:#aa8800;fill-opacity:0.9906977;stroke:#000000;stroke-width:0.16155712;stroke-opacity:0.6" />
      <path
         style="opacity:1;fill:#927608;fill-opacity:0.9906977;fill-rule:evenodd;stroke:#281717;stroke-width:0.20128331;stroke-linecap:round;stroke-linejoin:miter;stroke-miterlimit:4;stroke-dasharray:none;stroke-opacity:0.91162809;paint-order:fill markers stroke"
         d="m 147.83209,206.00702 -30.9196,2.88928 18.88177,6.49971 30.9196,-2.88929 z"
         id="path5921"
         inkscape:connector-curvature="0" />
    </g>
    <g
       id="g5987"
       transform="matrix(0.91279757,0.21430361,-0.27406489,1.0311891,73.219737,-13.097525)"
       inkscape:export-xdpi="96"
       inkscape:export-ydpi="96">
      <g
         id="g5996">
        <path
           style="fill:#806600;fill-opacity:0.9906977;stroke:#000000;stroke-width:0.16155711;stroke-opacity:0.6"
           inkscape:connector-curvature="0"
           d="m 152.42983,215.44195 0.0255,3.69511 v 0 l -0.0255,-3.69511 v 0"
           id="path5973" />
        <path
           style="opacity:1;fill:#aa8800;fill-opacity:0.9906977;fill-rule:evenodd;stroke:#281717;stroke-width:0.20128331;stroke-linecap:round;stroke-linejoin:miter;stroke-miterlimit:4;stroke-dasharray:none;stroke-opacity:0.91162809;paint-order:fill markers stroke"
           d="m 148.36431,209.52596 -30.12275,2.64927 17.37012,6.95504 30.12276,-2.64926 z"
           id="path5975"
           inkscape:connector-curvature="0" />
        <path
           style="fill:#aa8800;fill-opacity:0.9906977;stroke:#000000;stroke-width:0.16155712;stroke-opacity:0.6"
           inkscape:connector-curvature="0"
           d="m 148.42037,205.82982 -0.0561,3.69614 -30.12275,2.64927 0.056,-3.69615 30.12276,-2.64926"
           id="path5977" />
        <path
           style="fill:#806600;fill-opacity:0.9906977;stroke:#000000;stroke-width:0.16155712;stroke-opacity:0.6"
           inkscape:connector-curvature="0"
           d="m 118.29761,208.47908 -0.056,3.69615 17.37012,6.95504 0.056,-3.69615 -17.37012,-6.95504"
           id="path5979" />
        <path
           style="fill:#aa8800;fill-opacity:0.9906977;stroke:#000000;stroke-width:0.16155712;stroke-opacity:0.6"
           inkscape:connector-curvature="0"
           d="m 165.79049,212.78486 -0.056,3.69615 -17.37013,-6.95505 0.0561,-3.69614 17.37012,6.95504"
           id="path5981" />
        <path
           style="fill:#aa8800;fill-opacity:0.9906977;stroke:#000000;stroke-width:0.16155712;stroke-opacity:0.6"
           inkscape:connector-curvature="0"
           d="m 135.66773,215.43412 -0.056,3.69615 30.12276,-2.64926 0.056,-3.69615 -30.12276,2.64926"
           id="path5983" />
        <path
           inkscape:connector-curvature="0"
           id="path5985"
           d="m 148.42037,205.82982 -30.12276,2.64926 17.37012,6.95504 30.12276,-2.64926 z"
           style="opacity:1;fill:#927608;fill-opacity:0.9906977;fill-rule:evenodd;stroke:#281717;stroke-width:0.20128331;stroke-linecap:round;stroke-linejoin:miter;stroke-miterlimit:4;stroke-dasharray:none;stroke-opacity:0.91162809;paint-order:fill markers stroke" />
      </g>
    </g>
    <g
       id="g5955"
       transform="rotate(17.182585,62.341199,284.6813)"
       inkscape:export-xdpi="96"
       inkscape:export-ydpi="96">
      <path
         id="path5941"
         d="m 153.1836,215.2149 0.48475,3.55677 v 0 l -0.48475,-3.55677 v 0"
         inkscape:connector-curvature="0"
         style="fill:#806600;fill-opacity:0.9906977;stroke:#000000;stroke-width:0.16155711;stroke-opacity:0.6" />
      <path
         inkscape:connector-curvature="0"
         id="path5943"
         d="m 148.23239,209.5657 -30.91959,2.88929 18.88177,6.4997 30.9196,-2.88928 z"
         style="opacity:1;fill:#aa8800;fill-opacity:0.9906977;fill-rule:evenodd;stroke:#281717;stroke-width:0.20128331;stroke-linecap:round;stroke-linejoin:miter;stroke-miterlimit:4;stroke-dasharray:none;stroke-opacity:0.91162809;paint-order:fill markers stroke" />
      <path
         id="path5945"
         d="m 147.83209,206.00702 0.4003,3.55868 -30.91959,2.88929 -0.40031,-3.55869 30.9196,-2.88928"
         inkscape:connector-curvature="0"
         style="fill:#aa8800;fill-opacity:0.9906977;stroke:#000000;stroke-width:0.16155712;stroke-opacity:0.6" />
      <path
         id="path5947"
         d="m 116.91249,208.8963 0.40031,3.55869 18.88177,6.4997 -0.40031,-3.55868 -18.88177,-6.49971"
         inkscape:connector-curvature="0"
         style="fill:#806600;fill-opacity:0.9906977;stroke:#000000;stroke-width:0.16155712;stroke-opacity:0.6" />
      <path
         id="path5949"
         d="m 166.71386,212.50672 0.40031,3.55869 -18.88178,-6.49971 -0.4003,-3.55868 18.88177,6.4997"
         inkscape:connector-curvature="0"
         style="fill:#aa8800;fill-opacity:0.9906977;stroke:#000000;stroke-width:0.16155712;stroke-opacity:0.6" />
      <path
         id="path5951"
         d="m 135.79426,215.39601 0.40031,3.55868 30.9196,-2.88928 -0.40031,-3.55869 -30.9196,2.88929"
         inkscape:connector-curvature="0"
         style="fill:#aa8800;fill-opacity:0.9906977;stroke:#000000;stroke-width:0.16155712;stroke-opacity:0.6" />
      <path
         style="opacity:1;fill:#927608;fill-opacity:0.9906977;fill-rule:evenodd;stroke:#281717;stroke-width:0.20128331;stroke-linecap:round;stroke-linejoin:miter;stroke-miterlimit:4;stroke-dasharray:none;stroke-opacity:0.91162809;paint-order:fill markers stroke"
         d="m 147.83209,206.00702 -30.9196,2.88928 18.88177,6.49971 30.9196,-2.88929 z"
         id="path5953"
         inkscape:connector-curvature="0" />
    </g>
    <g
       id="g6025"
       transform="rotate(1.0622472,365.95322,598.27136)"
       inkscape:export-xdpi="96"
       inkscape:export-ydpi="96">
      <path
         style="fill:#aa8800;fill-opacity:0.9906977;stroke:#000000;stroke-width:0.16155712;stroke-opacity:0.6"
         inkscape:connector-curvature="0"
         d="m 186.43029,251.58859 0.32295,3.56653 v 0 l -0.32295,-3.56653 v 0"
         id="path1492" />
      <path
         inkscape:connector-curvature="0"
         id="path1500"
         d="m 187.4561,249.16705 -30.97504,2.21737 18.73621,6.90807 30.97504,-2.21735 z"
         style="opacity:1;fill:#665101;fill-opacity:0.9906977;fill-rule:evenodd;stroke:#281717;stroke-width:0.20128331;stroke-linecap:round;stroke-linejoin:miter;stroke-miterlimit:4;stroke-dasharray:none;stroke-opacity:1;paint-order:fill markers stroke" />
      <path
         id="path1502"
         d="m 187.13315,245.60052 0.32296,3.56653 -30.97503,2.21737 -0.32295,-3.56653 30.97502,-2.21737"
         inkscape:connector-curvature="0"
         style="fill:#554400;fill-opacity:0.9906977;stroke:#000000;stroke-width:0.16155711;stroke-opacity:0.6" />
      <path
         id="path1504"
         d="m 156.15813,247.81789 0.32295,3.56653 18.73621,6.90807 -0.32295,-3.56653 -18.73621,-6.90807"
         inkscape:connector-curvature="0"
         style="fill:#806600;fill-opacity:0.9906977;stroke:#000000;stroke-width:0.16155711;stroke-opacity:0.6" />
      <path
         id="path1506"
         d="m 205.86937,252.5086 0.32296,3.56654 -18.73622,-6.90809 -0.32296,-3.56653 18.73622,6.90808"
         inkscape:connector-curvature="0"
         style="fill:#806600;fill-opacity:0.9906977;stroke:#000000;stroke-width:0.16155711;stroke-opacity:0.6" />
      <path
         id="path1508"
         d="m 174.89434,254.72596 0.32295,3.56653 30.97504,-2.21735 -0.32296,-3.56654 -30.97503,2.21736"
         inkscape:connector-curvature="0"
         style="fill:#aa8800;fill-opacity:0.9906977;stroke:#000000;stroke-width:0.16155711;stroke-opacity:0.6" />
      <path
         id="path1510"
         d="m 187.13315,245.60052 0.32296,3.56653 v 0 l -0.32296,-3.56653 v 0"
         inkscape:connector-curvature="0"
         style="fill:#aa8800;fill-opacity:0.9906977;stroke:#000000;stroke-width:0.16155711;stroke-opacity:0.6" />
      <path
         style="opacity:1;fill:#9a7b00;fill-opacity:0.9906977;fill-rule:evenodd;stroke:#281717;stroke-width:0.26700082;stroke-linecap:round;stroke-linejoin:miter;stroke-miterlimit:4;stroke-dasharray:none;stroke-opacity:0.91162809;paint-order:fill markers stroke"
         d="m 187.34289,245.65637 -31.28149,2.13489 18.71579,4.34994 31.2815,-2.13488 z"
         id="path1514"
         inkscape:connector-curvature="0" />
    </g>
    <g
       id="g2354"
       transform="matrix(0.00263379,0.54429146,-0.58077877,-0.03560221,290.72885,212.51811)"
       inkscape:export-xdpi="96"
       inkscape:export-ydpi="96">
      <path
         id="path7269"
         d="m 85.880646,155.50322 c -0.349279,-0.11842 -1.420498,0.004 -1.552041,0.21861 -0.07081,0.11582 0.300024,0.007 0.427572,0.0975 0.152194,0.10777 0.222981,0.29554 0.304331,0.17168 0.303703,-0.46249 0.978448,-0.4341 0.820138,-0.48777 z"
         inkscape:connector-curvature="0"
         style="fill:#ffffff;stroke-width:0.09624013" />
      <path
         id="path7271"
         d="m 84.873228,159.78404 -0.714043,0.93299 -0.800107,0.74363 0.14743,0.32416 1.128632,0.05 0.763474,-0.14482 0.157825,0.52575 0.105863,1.16216 0.179568,1.32414 0.372624,1.14096 0.749666,0.68279 0.725693,0.34379 0.902937,-0.48185 0.30098,-0.16072 0.48074,0.19877 0.20208,-0.0918 0.16534,-0.17287 -0.0118,-0.31192 0.0574,-0.19554 0.35603,0.10338 0.19623,-0.24786 -0.064,-0.35537 0.2873,-0.29787 0.35777,-0.0713 0.35198,-0.2273 0.13029,-0.42859 -0.0983,-0.21598 -0.30491,-0.17 -0.26187,-0.21791 -0.19061,-0.27621 0.18857,-0.22906 0.36345,-0.59529 0.21658,0.44042 0.52294,0.72065 0.73342,0.32511 0.22213,-0.0835 -0.23667,-0.44882 -0.16375,-0.68166 0.81859,0.1191 0.87139,-0.12207 0.83045,-0.53379 0.45319,-0.75558 0.11459,-1.07111 -0.16077,-0.74613 -0.54562,-0.9493 -0.89999,-0.26248 -0.91414,-0.11477 -0.41286,-0.19268 0.0427,0.23693 0.54221,0.33382 0.50524,0.25273 0.59265,0.55208 0.0986,0.89605 -0.28777,0.58274 -0.32154,0.43718 -0.48303,0.26078 -0.44395,-0.11776 -0.4647,-0.52104 -0.31753,-0.87695 -0.55794,-0.97625 -0.64368,-0.48541 -0.74616,-0.0673 -0.36252,0.0255 -0.36451,-0.47961 -0.9874,-0.56182 -0.670567,-0.0799 -0.703452,0.16964 -0.621934,0.31298 -0.705283,0.34431 -0.616851,0.0739 -0.697866,-0.35435 -0.273493,-0.52974 0.255504,-0.61795 0.412501,-0.48744 0.514078,-0.3356 0.547799,-0.19017 0.784786,-0.0264 0.688837,0.26295 0.733411,0.32512 0.59815,0.0281 -0.53893,-0.39827 -0.480137,-0.48368 -0.559,-0.40647 -0.739774,-0.19624 -1.080798,-0.0522 -0.866953,0.16783 -0.813606,0.60656 -0.460821,0.77429 -0.213633,0.45993 -0.107608,0.65723 0.06818,0.68608 0.316244,0.76659 0.651362,0.46682 0.671939,0.19006 z"
         inkscape:connector-curvature="0"
         style="fill:#e6e6e6;stroke-width:0.09624013" />
      <g
         transform="translate(-12.03937,-11.982867)"
         id="g2221">
        <path
           inkscape:connector-curvature="0"
           d="m 99.087849,167.0659 c -1.35093,-0.55726 -3.565043,-0.48463 -4.196855,1.69214 -0.67577,2.32838 0.896244,3.15843 1.544771,3.39575 -0.36114,0.50222 -0.675515,0.96111 -1.366951,1.24746 -0.969536,0.40162 1.280506,1.04517 2.301411,0.6138 -0.204337,0.30548 -0.47369,0.75335 -0.360004,1.29058 0.02117,0.10005 0.17274,-0.17152 0.230157,-0.12088 0.05361,0.0474 -0.273683,0.65618 -0.0029,0.99074 0.05012,0.062 0.168673,-0.0846 0.236372,-0.13071 0.200919,-0.13659 -0.266655,0.78888 0.167928,1.19428 0.06331,0.059 0.134188,-0.0705 0.209733,-0.10272 0.06088,1.46984 2.282939,2.9167 2.734819,1.51639 0.0751,-0.32838 0.44237,-0.38449 0.65483,-0.16424 0.21242,0.22033 0.82766,-0.0931 0.62514,-0.63078 0.38389,0.0168 0.87487,-0.0998 0.68082,-0.39967 -0.27801,-0.40586 0.24213,-0.4682 0.58265,-0.60088 0.55941,-0.21801 0.59431,-1.03207 0.18585,-1.08649 -0.33922,-0.0451 -0.50225,-0.32556 -0.57414,-0.49505 0.12234,-0.18863 0.3051,-0.3555 0.40514,-0.61724 0.4391,1.5698 1.96952,1.60081 2.04952,1.36021 0.0702,-0.21132 -0.44188,-0.10088 -0.60278,-1.09636 1.06355,0.31439 1.4743,0.22556 2.50651,-0.74153 1.10942,-1.03956 0.66338,-3.74603 -0.9442,-3.8419 -0.84349,-0.0503 -1.21684,-0.1576 -1.69468,-0.34308 -0.12519,-0.0486 -0.0307,0.29533 0.27107,0.49942 0.44026,0.29771 1.15558,0.38831 1.49761,1.1183 0.39311,0.83918 -0.66122,2.42882 -1.38341,1.82248 -0.72232,-0.60629 -0.51429,-1.69721 -1.41951,-2.55305 -0.59117,-0.55902 -1.27819,-0.48718 -1.68382,-0.37014 a 2.3815094,2.22955 22.463707 0 0 -0.11261,-0.19882 c -0.63966,-1.01366 -1.872717,-1.26534 -3.263164,-0.41271 -1.159721,0.71113 -1.946992,0.20545 -1.996191,-0.39742 -0.07878,-0.96606 1.606754,-2.05157 3.078309,-1.2157 0.320329,0.1783 1.208596,0.52612 1.354706,0.21753 0.0599,-0.12638 -0.35885,-0.10645 -0.74342,-0.72706 -0.168007,-0.271 -0.522347,-0.52684 -0.97275,-0.71257 z m 1.522551,4.11328 c 0.89315,0.36103 1.21695,1.02655 1.56442,1.1418 0.28776,0.0954 0.58671,-0.002 0.73294,0.0173 0.86912,0.11197 1.35677,0.97603 1.35858,1.80467 0.002,1.02913 0.18496,1.45373 0.37771,1.58602 0.109,0.0748 -0.46609,0.041 -0.69665,-0.66914 -0.0582,-0.17902 -0.23005,0.1706 -0.34909,-0.17587 -0.15951,-0.46468 -0.0129,-0.93944 0.002,-1.34193 0.009,-0.24837 -0.12315,-0.57681 -0.19691,-0.53899 -0.0984,0.0506 0.002,0.5582 -0.13049,0.74642 -0.17298,-0.30428 -0.57177,-0.29384 -0.66139,-0.33715 -0.0787,-0.0381 -0.0579,-0.18093 -0.087,-0.17694 -0.0383,0.005 -0.0445,0.0846 -0.11171,0.19938 -0.0357,0.0608 -0.10646,0.0852 -0.11409,0.15697 -0.0212,0.19781 0.22986,0.75606 0.19274,1.17592 -0.0367,0.41789 0.10835,1.07441 0.60466,1.11991 0.38653,0.0354 0.22503,0.72716 -0.18622,0.84087 -0.41125,0.11372 -0.8632,0.16083 -0.67906,0.54198 0.11996,0.2482 0.0223,0.50257 -0.35047,0.30903 -0.4893,-0.32121 -1.20132,-0.23472 -1.57108,-0.40826 -0.487757,-0.23956 -0.694497,-0.96329 -0.711267,-1.21609 -0.0169,-0.25297 -0.16456,0.0549 -0.0601,0.43855 0.10439,0.38375 0.481597,1.13564 1.379487,1.16631 0.89789,0.0307 0.94984,0.63859 0.66896,0.73064 -0.28084,0.092 -1.02346,-0.46106 -1.49324,-0.3526 -0.314867,0.0727 -0.541907,0.38133 -0.451397,0.74291 -1.422361,-0.75336 -1.341569,-2.09701 -1.003261,-3.51082 0.113712,-0.22686 -0.357589,0.0701 -0.447036,0.17892 -0.148016,0.17993 0.07963,-1.11358 0.237518,-1.32832 0.270908,-0.36833 -0.08649,-0.21643 -0.274557,-0.0617 -0.164619,0.13548 -0.04745,-0.34912 0.113575,-0.47903 0.416761,-0.33634 0.470096,-0.41536 0.936337,-1.32041 0.378574,-0.73494 0.764494,-0.46514 0.892941,-0.51965 0.078,-0.0331 0.0505,-0.10134 -0.206437,-0.16113 -0.3138,-0.073 -0.92595,-0.0612 -1.279977,0.79502 -0.177547,0.42941 -0.684245,0.77502 -0.732056,0.62929 -0.07509,-0.22865 -0.511551,0.47944 -0.606378,0.50079 -0.09474,0.0214 0.01492,-0.26126 -0.213844,-0.1388 -0.275291,0.14725 -0.421087,0.30593 -0.995665,0.30133 -0.85905,-0.007 0.275948,-0.31597 0.577278,-0.906 0.327141,-0.64022 1.101184,-1.89534 2.598623,-1.61224 0.414079,0.0783 0.994936,-0.0213 1.371946,0.13105 z m 2.2489,2.51458 c 0.14453,0.0753 0.31351,0.16278 0.33154,0.32481 0.0311,0.27938 -0.17001,0.54992 -0.41453,0.95284 -0.12833,0.21145 -0.15084,-0.009 -0.103,-0.41653 0.0548,-0.46604 -0.26008,-0.6564 -0.21371,-0.86929 0.0326,-0.14945 0.22491,-0.0829 0.39974,0.008 z"
           id="path7273"
           style="stroke-width:0.09624013" />
      </g>
      <path
         style="stroke-width:0.09624013"
         id="path7275"
         d="m 88.87958,161.21071 c -0.0554,0.1339 -0.21632,0.19441 -0.35944,0.13523 -0.14312,-0.0592 -0.21438,-0.2156 -0.15902,-0.3495 0.0554,-0.1339 0.21629,-0.19432 0.35941,-0.13515 0.14312,0.0592 0.21438,0.2156 0.15901,0.3495 z"
         inkscape:connector-curvature="0" />
      <path
         style="stroke-width:0.09624013"
         id="path7277"
         d="m 88.14589,161.36341 c 0.0909,0.0534 0.0782,0.007 0.0631,-0.0366 -0.18748,-0.54306 0.41462,-0.6886 0.8273,-0.19169 0.0569,0.0685 0.25142,0.004 0.15113,-0.17079 -0.0142,-0.0248 0.0852,-0.28136 0.0491,-0.31331 -0.0361,-0.032 -0.13207,0.2093 -0.18669,0.17976 -0.24554,-0.17488 -0.67543,-0.30527 -0.91439,-0.0816 -0.12396,0.11601 -0.202457,0.37043 0.0104,0.61422 z m 1.69348,2.46157 c 0,0 -0.37173,-0.96767 -1.11465,-0.98162 -0.74293,-0.014 -0.68861,0.8121 -0.57637,0.85851 0.0546,-0.31892 0.22025,-0.75032 0.71556,-0.67843 0.42557,0.0719 0.68214,0.74355 0.78851,0.93142 0.0974,0.17207 0.30485,0.0439 0.18695,-0.12988 z"
         inkscape:connector-curvature="0" />
      <path
         style="stroke-width:0.09624013"
         id="path7279"
         d="m 89.05279,164.03845 c 0.0477,-0.0696 0.0366,-0.63803 -0.36973,-0.69761 -0.50672,-0.0745 -0.2722,0.48831 0.0101,0.43808 0.0852,-0.0152 0.11644,-0.0395 0.15057,-0.0153 0.0964,0.0681 0.0698,0.19614 0.0459,0.27018 -0.0367,0.11311 0.13078,0.0521 0.16317,0.005 z m 2.02999,-1.91678 c -0.0554,0.13389 -0.21633,0.19441 -0.35945,0.13523 -0.14311,-0.0592 -0.21437,-0.2156 -0.15901,-0.3495 0.0554,-0.1339 0.2162,-0.19436 0.3594,-0.13515 0.14321,0.0592 0.21438,0.2156 0.15902,0.3495 z"
         inkscape:connector-curvature="0" />
      <path
         id="path7281"
         d="m 88.88698,161.0866 a 0.10732567,0.10047743 22.463707 1 1 -0.19833,-0.0821 0.10732567,0.10047743 22.463707 0 1 0.19833,0.0821 z m 2.20626,0.91241 a 0.10733368,0.10048493 22.463707 1 0 -0.19843,-0.0819 0.10733368,0.10048493 22.463707 0 0 0.19843,0.0819 z"
         inkscape:connector-curvature="0"
         style="fill:#ffffff;stroke-width:0.09624013" />
      <path
         id="path7283"
         d="m 87.069472,155.40529 a 2.8636201,2.6808981 22.463707 0 0 -0.383942,-0.1257 c 0.25008,0.33647 -0.135847,0.16612 -0.260506,0.12244 -0.774375,-0.27162 -1.462047,-0.19793 -1.336178,-0.17592 0.286055,0.0501 0.694195,0.31585 0.343983,0.28794 -0.754335,-0.0603 -1.363376,-0.13174 -2.072457,1.04513 -0.402448,0.66774 -0.261001,1.83 -0.222251,1.69125 0.146288,-0.52406 0.472454,-0.68242 0.431289,-0.43292 -0.103501,0.6283 0.03589,1.1825 0.258466,1.37046 -0.02895,-0.40455 0.128439,-0.94033 0.273307,-0.58812 0.184039,0.44752 0.374997,0.7018 0.866054,0.88237 0,0 1.025526,-0.76298 2.069258,-0.65942 0.767178,0.0761 -0.352666,-0.40438 0.402538,-0.27018 0.50356,0.0894 1.053617,0.34465 0.903357,0.20877 -0.446357,-0.40372 0.10525,-0.26392 0.4452,-0.0779 1.09059,0.59703 1.08821,1.68935 1.93621,1.47599 0.15566,-0.0391 0.39717,-0.17365 0.55659,-0.10965 0.15938,0.0641 -0.16154,0.16316 0.16033,0.2513 0.48488,0.13277 0.23745,0.18272 0.30817,0.22879 0.26278,0.17143 0.45247,0.50167 0.45247,0.50167 0,0 -0.39332,-2.27848 -1.6399,-2.07757 -0.20745,0.0334 -0.15839,0.11548 -0.007,0.11144 0.23165,-0.006 0.66429,0.26116 0.30327,0.1654 -0.49107,-0.13029 -0.70553,0.14994 -0.70553,0.14994 -1.32525,-2.34238 -2.902627,-1.59133 -3.796308,-1.08005 -0.605875,0.37826 -1.635418,0.47232 -2.036491,-0.14273 -0.326518,-0.50068 -0.323373,0.19379 -0.412412,-0.11046 -0.206575,-0.70643 0.500535,-1.40528 0.857324,-1.63563 0.471523,-0.30453 0.848063,-0.46212 1.212572,-0.50679 0.364453,-0.0448 -0.137572,-0.40553 0.146794,-0.31546 0.284275,0.09 1.00552,0.28345 1.639504,0.70016 0.10702,0.0705 0.423447,0.21861 0.627977,0.20343 -0.473497,-0.27771 -0.537097,-0.76763 -1.322017,-1.08793 z m 5.391448,6.0213 c 0,0 0.83375,1.07165 1.60666,-0.0146 0.11586,-0.1628 0.20749,0.14141 0.22039,0.30182 0.0125,0.15481 0.26789,-0.11504 0.26228,-0.41724 -0.005,-0.26766 0.005,-0.76183 0.0604,-0.63937 0.12674,0.28074 0.18908,0.19688 0.20824,-0.071 0.0192,-0.26784 -0.005,-0.71984 -0.52846,-1.26596 -0.24533,-0.25581 -0.4919,-0.43806 -0.78839,-0.57718 -0.29645,-0.1392 -0.64272,-0.23521 -0.71864,-0.38037 0.25654,0.10608 0.96411,0.31852 1.33145,0.30969 0.93827,-0.0225 2.36371,2.57404 0.29651,3.85453 -0.33165,0.20547 0.20046,-0.32421 -0.0167,-0.284 -0.23454,0.0435 -0.55544,0.39528 -1.12184,0.30972 -0.19619,-0.0297 0.15848,-0.0634 0.18346,-0.26876 0.0191,-0.15694 -0.69263,-0.0872 -0.99534,-0.85733 z"
         inkscape:connector-curvature="0"
         style="fill:#e6e6e6;stroke-width:0.09624013" />
    </g>
    <ellipse
       inkscape:export-ydpi="96"
       inkscape:export-xdpi="96"
       transform="matrix(0.88063306,-0.47379892,0.37875562,0.92549672,0,0)"
       ry="1.87209"
       rx="4.2835717"
       cy="203.06044"
       cx="9.3164101"
       id="ellipse5133"
       style="opacity:1;fill:#000000;fill-opacity:1;fill-rule:nonzero;stroke:none;stroke-width:0.03401145;stroke-linecap:round;stroke-linejoin:round;stroke-miterlimit:4;stroke-dasharray:none;stroke-dashoffset:0;stroke-opacity:1;paint-order:stroke fill markers"
       inkscape:transform-center-x="-2.0165157"
       inkscape:transform-center-y="0.027665963" />
    <ellipse
       inkscape:export-ydpi="96"
       inkscape:export-xdpi="96"
       style="opacity:1;fill:#000000;fill-opacity:1;fill-rule:nonzero;stroke:none;stroke-width:0.03339889;stroke-linecap:round;stroke-linejoin:round;stroke-miterlimit:4;stroke-dasharray:none;stroke-dashoffset:0;stroke-opacity:1;paint-order:stroke fill markers"
       id="ellipse5135"
       cx="136.57681"
       cy="117.59235"
       rx="3.6547706"
       ry="2.1158578"
       transform="matrix(0.84824994,0.52959611,-0.33026499,0.94388825,0,0)"
       inkscape:transform-center-x="2.5293149"
       inkscape:transform-center-y="1.4748666" />
    <path
       inkscape:export-ydpi="96"
       inkscape:export-xdpi="96"
       sodipodi:nodetypes="csccc"
       inkscape:connector-curvature="0"
       id="path5137"
       d="m 88.016604,181.1853 c -0.820935,0.99175 -2.666616,0.99947 -2.789727,1.06538 -2.349583,1.25801 -2.82114,3.56679 -2.548533,3.23881 1.533955,-3.36146 5.477888,-2.25696 5.338293,-4.30417 z"
       style="fill:#f2f2f2;stroke:#000000;stroke-width:0;stroke-linecap:butt;stroke-linejoin:miter;stroke-miterlimit:4;stroke-dasharray:none;stroke-opacity:1" />
    <path
       style="fill:#f2f2f2;stroke:#000000;stroke-width:0;stroke-linecap:butt;stroke-linejoin:miter;stroke-miterlimit:4;stroke-dasharray:none;stroke-opacity:1"
       d="m 74.731354,181.61341 c 0.808916,0.88867 2.401369,0.67996 2.514246,0.73098 2.154287,0.97388 2.795986,3.21146 2.527507,2.9177 -1.665048,-3.15845 -4.953751,-1.5992 -5.041779,-3.64865 z"
       inkscape:connector-curvature="0"
       sodipodi:nodetypes="csccc"
       inkscape:export-xdpi="96"
       inkscape:export-ydpi="96"
       id="path6078" />
    <path
       sodipodi:nodetypes="csssscc"
       style="stroke:#ffffff;stroke-width:0.49900001;stroke-miterlimit:4;stroke-dasharray:none;stroke-opacity:0.91162809"
       id="path6089"
       d="m 75.186752,198.65626 c -2.746502,0.0876 -6.117921,13.41948 -7.124083,10.44254 -1.042895,-3.08562 -5.389478,-3.57823 -4.464447,-13.91842 0.626599,-7.00427 8.719739,-15.24633 11.968968,-17.97052 3.25178,-2.72633 9.040545,-3.75414 9.0938,1.61061 0.06986,7.03746 -9.419828,8.09959 -13.090734,15.23865 -0.583313,3.26858 3.616496,4.59714 3.616496,4.59714 z"
       inkscape:connector-curvature="0"
       inkscape:export-xdpi="96"
       inkscape:export-ydpi="96" />
  </g>
</svg>
