<?xml version="1.0" encoding="UTF-8" standalone="no"?>
<!-- Created with Inkscape (http://www.inkscape.org/) -->

<svg
   xmlns:dc="http://purl.org/dc/elements/1.1/"
   xmlns:cc="http://creativecommons.org/ns#"
   xmlns:rdf="http://www.w3.org/1999/02/22-rdf-syntax-ns#"
   xmlns:svg="http://www.w3.org/2000/svg"
   xmlns="http://www.w3.org/2000/svg"
   xmlns:sodipodi="http://sodipodi.sourceforge.net/DTD/sodipodi-0.dtd"
   xmlns:inkscape="http://www.inkscape.org/namespaces/inkscape"
   width="210mm"
   height="297mm"
   viewBox="0 0 210 297"
   version="1.1"
   id="svg6510"
   inkscape:version="0.92.2 (5c3e80d, 2017-08-06)"
   sodipodi:docname="linuxpodden.svg"
   inkscape:export-filename="C:\Users\anna-\Desktop\Linuxpodden\linuxpodden_below1.png"
   inkscape:export-xdpi="96"
   inkscape:export-ydpi="96">
  <defs
     id="defs6504" />
  <sodipodi:namedview
     id="base"
     pagecolor="#ffffff"
     bordercolor="#666666"
     borderopacity="1.0"
     inkscape:pageopacity="0.0"
     inkscape:pageshadow="2"
     inkscape:zoom="0.49497475"
     inkscape:cx="116.92735"
     inkscape:cy="577.83088"
     inkscape:document-units="mm"
     inkscape:current-layer="layer1"
     showgrid="false"
     inkscape:window-width="1920"
     inkscape:window-height="1137"
     inkscape:window-x="1912"
     inkscape:window-y="-8"
     inkscape:window-maximized="1" />
  <metadata
     id="metadata6507">
    <rdf:RDF>
      <cc:Work
         rdf:about="">
        <dc:format>image/svg+xml</dc:format>
        <dc:type
           rdf:resource="http://purl.org/dc/dcmitype/StillImage" />
        <dc:title></dc:title>
      </cc:Work>
    </rdf:RDF>
  </metadata>
  <g
     inkscape:label="Layer 1"
     inkscape:groupmode="layer"
     id="layer1">
    <rect
       ry="0.18379451"
       y="99.913994"
       x="-141.63577"
       height="10.537584"
       width="2.828331"
       id="rect5365"
       style="opacity:1;fill:#1a1a1a;fill-opacity:1;fill-rule:evenodd;stroke:none;stroke-width:0.17257734;stroke-miterlimit:4;stroke-dasharray:none;stroke-opacity:0.94472363"
       transform="scale(-1,1)" />
    <rect
       style="opacity:1;fill:#333333;fill-opacity:1;fill-rule:evenodd;stroke:none;stroke-width:0.14172567;stroke-miterlimit:4;stroke-dasharray:none;stroke-opacity:0.94472363"
       id="rect5367"
       width="2.828331"
       height="7.1067429"
       x="-141.63577"
       y="101.05353"
       ry="0.12395444"
       transform="scale(-1,1)" />
    <path
       inkscape:connector-curvature="0"
       id="path5369"
       d="m 137.62196,96.832087 c 0.0233,0 0.0462,0.001 0.0692,0.002 h -0.0613 v 18.866083 c -0.003,2e-5 -0.005,2.1e-4 -0.008,2.1e-4 h -3.64779 c -1.01264,0 -1.82786,-1.03559 -1.82786,-2.32195 V 99.153837 c 0,-1.28636 0.81522,-2.32195 1.82786,-2.32195 z"
       style="opacity:1;fill:#d3bc5f;fill-opacity:1;fill-rule:evenodd;stroke:none;stroke-width:0.1955249;stroke-miterlimit:4;stroke-dasharray:none;stroke-opacity:0.94472363" />
    <path
       inkscape:connector-curvature="0"
       id="path5371"
       d="m 136.64424,96.829937 c 0.0142,0 0.0284,0.001 0.0425,0.002 h -0.0376 v 18.866093 c -0.002,1e-5 -0.003,2.1e-4 -0.005,2.1e-4 h -2.23625 c -0.62079,0 -1.12055,-1.0356 -1.12055,-2.32196 V 99.151687 c 0,-1.28636 0.49976,-2.32195 1.12055,-2.32195 z"
       style="opacity:1;fill:#ffd42a;fill-opacity:1;fill-rule:evenodd;stroke:none;stroke-width:0.15309034;stroke-miterlimit:4;stroke-dasharray:none;stroke-opacity:0.94472363" />
    <rect
       style="opacity:1;fill:#a0892c;fill-opacity:1;fill-rule:evenodd;stroke:none;stroke-width:0.1896611;stroke-miterlimit:4;stroke-dasharray:none;stroke-opacity:0.94472363"
       id="rect5373"
       width="0.010816135"
       height="0.7476393"
       x="-135.27441"
       y="96.829933"
       transform="scale(-1,1)" />
    <rect
       ry="0.6810351"
       y="96.844742"
       x="-138.44289"
       height="18.841013"
       width="2.7513561"
       id="rect5377"
       style="opacity:1;fill:#d4aa00;fill-opacity:1;fill-rule:evenodd;stroke:none;stroke-width:0.2039393;stroke-miterlimit:4;stroke-dasharray:none;stroke-opacity:0.94472363"
       transform="scale(-1,1)" />
    <path
       inkscape:connector-curvature="0"
       id="path5379"
       d="m 135.499,96.829937 c -0.006,0 -0.0121,0.001 -0.0182,0.002 h 0.0162 v 18.866093 c 6.5e-4,1e-5 10e-4,2.1e-4 0.002,2.1e-4 h 0.96124 c 0.26685,0 0.48167,-1.0356 0.48167,-2.32196 V 99.151687 c 0,-1.28636 -0.21482,-2.32195 -0.48167,-2.32195 z"
       style="opacity:1;fill:#ffd42a;fill-opacity:1;fill-rule:evenodd;stroke:none;stroke-width:0.10036968;stroke-miterlimit:4;stroke-dasharray:none;stroke-opacity:0.94472363" />
    <rect
       ry="0.10258298"
       y="101.05353"
       x="-141.63577"
       height="5.8814425"
       width="2.828331"
       id="rect5383"
       style="opacity:1;fill:#4d4d4d;fill-opacity:1;fill-rule:evenodd;stroke:none;stroke-width:0.12893033;stroke-miterlimit:4;stroke-dasharray:none;stroke-opacity:0.94472363"
       transform="scale(-1,1)" />
    <rect
       style="opacity:1;fill:#333333;fill-opacity:1;fill-rule:evenodd;stroke:none;stroke-width:0.17068714;stroke-miterlimit:4;stroke-dasharray:none;stroke-opacity:0.94472363"
       id="rect5385"
       width="2.9006469"
       height="1.7766863"
       x="-141.32806"
       y="104.2332"
       ry="0.88834316"
       transform="scale(-1,1)" />
    <rect
       ry="0.88834316"
       y="104.06165"
       x="-141.36655"
       height="1.7766863"
       width="2.9391222"
       id="rect5387"
       style="opacity:1;fill:#666666;fill-opacity:1;fill-rule:evenodd;stroke:none;stroke-width:0.17181545;stroke-miterlimit:4;stroke-dasharray:none;stroke-opacity:0.94472363"
       transform="scale(-1,1)" />
    <rect
       ry="0.14929062"
       y="97.385918"
       x="-138.98125"
       height="17.565681"
       width="0.57093054"
       id="rect5389"
       style="opacity:1;fill:#4d4d4d;fill-opacity:1;fill-rule:evenodd;stroke:none;stroke-width:0.19904554;stroke-miterlimit:4;stroke-dasharray:none;stroke-opacity:0.94472363"
       transform="scale(-1,1)" />
    <rect
       ry="0.47480389"
       y="99.944633"
       x="-140.88054"
       height="5.3178043"
       width="0.8430602"
       id="rect5391"
       style="opacity:1;fill:#4d4d4d;fill-opacity:1;fill-rule:evenodd;stroke:none;stroke-width:0.13711728;stroke-miterlimit:4;stroke-dasharray:none;stroke-opacity:0.94472363"
       transform="scale(-1,1)" />
    <rect
       style="opacity:1;fill:#808080;fill-opacity:1;fill-rule:evenodd;stroke:none;stroke-width:0.13488759;stroke-miterlimit:4;stroke-dasharray:none;stroke-opacity:0.94472363"
       id="rect5393"
       width="0.8430602"
       height="5.1462622"
       x="-140.88054"
       y="99.944633"
       ry="0.47480389"
       transform="scale(-1,1)" />
    <rect
       ry="0"
       y="98.970497"
       x="-140.88054"
       height="1.317198"
       width="0.8430602"
       id="rect5395"
       style="opacity:1;fill:#333333;fill-opacity:1;fill-rule:evenodd;stroke:none;stroke-width:0.06824195;stroke-miterlimit:4;stroke-dasharray:none;stroke-opacity:0.94472363"
       transform="scale(-1,1)" />
    <path
       inkscape:connector-curvature="0"
       id="path5397"
       d="m 141.7671,94.755417 v 2.17292 l -0.96716,1.07415 h -0.82053 l -0.93191,-1.0646 v -2.18247 z"
       style="opacity:1;fill:#666666;fill-opacity:1;fill-rule:evenodd;stroke:none;stroke-width:0.17257731;stroke-miterlimit:4;stroke-dasharray:none;stroke-opacity:0.94472363" />
    <ellipse
       cy="98.097992"
       cx="-140.43925"
       id="circle5399"
       style="opacity:1;fill:#999999;fill-opacity:1;fill-rule:evenodd;stroke:none;stroke-width:0.18243888;stroke-miterlimit:4;stroke-dasharray:none;stroke-opacity:0.94472363"
       transform="scale(-1,1)"
       rx="1.0062332"
       ry="1.1334029" />
    <ellipse
       style="opacity:1;fill:#333333;fill-opacity:1;fill-rule:evenodd;stroke:none;stroke-width:0.13806182;stroke-miterlimit:4;stroke-dasharray:none;stroke-opacity:0.94472363"
       id="circle5401"
       cx="-140.437"
       cy="98.095444"
       transform="scale(-1,1)"
       rx="0.76147372"
       ry="0.85771036" />
    <path
       inkscape:connector-curvature="0"
       id="path5403"
       d="m 141.64204,92.992257 v 1.84586 c 0,0.73821 -0.52766,1.33257 -1.18305,1.33257 -0.65539,0 -1.18305,-0.59436 -1.18305,-1.33257 v -1.84586 z"
       style="opacity:1;fill:#4d4d4d;fill-opacity:1;fill-rule:evenodd;stroke:none;stroke-width:0.22597;stroke-miterlimit:4;stroke-dasharray:none;stroke-opacity:0.94472363" />
    <path
       inkscape:connector-curvature="0"
       id="path5405"
       d="m 141.64338,92.412077 v 1.92104 c 0,0.93155 -0.52767,1.68163 -1.18304,1.68163 -0.6554,0 -1.18304,-0.75008 -1.18304,-1.68163 v -1.92104 z"
       style="opacity:1;fill:#808080;fill-opacity:1;fill-rule:evenodd;stroke:none;stroke-width:0.25384235;stroke-miterlimit:4;stroke-dasharray:none;stroke-opacity:0.94472363;paint-order:markers stroke fill" />
    <rect
       style="opacity:1;fill:#1a1a1a;fill-opacity:1;fill-rule:evenodd;stroke:none;stroke-width:0.17257734;stroke-miterlimit:4;stroke-dasharray:none;stroke-opacity:0.94472363"
       id="rect6329"
       width="2.828331"
       height="10.537584"
       x="87.205978"
       y="100.1966"
       ry="0.18379451" />
    <rect
       ry="0.12395444"
       y="101.33613"
       x="87.205978"
       height="7.1067429"
       width="2.828331"
       id="rect6331"
       style="opacity:1;fill:#333333;fill-opacity:1;fill-rule:evenodd;stroke:none;stroke-width:0.14172567;stroke-miterlimit:4;stroke-dasharray:none;stroke-opacity:0.94472363" />
    <path
       style="opacity:1;fill:#d3bc5f;fill-opacity:1;fill-rule:evenodd;stroke:none;stroke-width:0.1955249;stroke-miterlimit:4;stroke-dasharray:none;stroke-opacity:0.94472363"
       d="m 91.219768,97.114687 c -0.02322,0 -0.0462,10e-4 -0.06918,0.002 h 0.06124 v 18.866093 c 0.0025,10e-6 0.0053,2e-4 0.0079,2e-4 h 3.647789 c 1.012644,0 1.827864,-1.03559 1.827864,-2.32195 V 99.436417 c 0,-1.28636 -0.81522,-2.32196 -1.827864,-2.32196 z"
       id="path6333"
       inkscape:connector-curvature="0" />
    <path
       style="opacity:1;fill:#c8ab37;fill-opacity:1;fill-rule:evenodd;stroke:none;stroke-width:0.15309034;stroke-miterlimit:4;stroke-dasharray:none;stroke-opacity:0.94472363"
       d="m 92.197494,97.112537 c -0.01423,0 -0.02833,10e-4 -0.04241,0.002 h 0.03754 v 18.866093 c 0.0016,10e-6 0.0033,2.1e-4 0.0049,2.1e-4 h 2.236253 c 0.620791,0 1.120559,-1.0356 1.120559,-2.32196 V 99.434297 c 0,-1.28637 -0.499768,-2.32196 -1.120559,-2.32196 z"
       id="path6335"
       inkscape:connector-curvature="0" />
    <rect
       y="97.112541"
       x="93.567337"
       height="0.7476393"
       width="0.010816135"
       id="rect6337"
       style="opacity:1;fill:#a0892c;fill-opacity:1;fill-rule:evenodd;stroke:none;stroke-width:0.1896611;stroke-miterlimit:4;stroke-dasharray:none;stroke-opacity:0.94472363" />
    <path
       style="opacity:1;fill:#ffd42a;fill-opacity:1;fill-rule:evenodd;stroke:none;stroke-width:0.13516153;stroke-miterlimit:4;stroke-dasharray:none;stroke-opacity:0.94472363"
       d="m 94.79477,97.110317 c 0.01095,0 0.02207,0.001 0.03303,0.002 h -0.02924 v 18.866093 c -0.0016,1e-5 -0.0025,2.1e-4 -0.0041,2.1e-4 h -1.743105 c -0.483903,0 -0.873464,-1.0356 -0.873464,-2.32196 V 99.432067 c 0,-1.28636 0.389561,-2.32195 0.873464,-2.32195 z"
       id="path6339"
       inkscape:connector-curvature="0" />
    <rect
       style="opacity:1;fill:#d4aa00;fill-opacity:1;fill-rule:evenodd;stroke:none;stroke-width:0.2039393;stroke-miterlimit:4;stroke-dasharray:none;stroke-opacity:0.94472363"
       id="rect6341"
       width="2.7513561"
       height="18.841013"
       x="90.39888"
       y="97.127342"
       ry="0.6810351" />
    <path
       style="opacity:1;fill:#ffd42a;fill-opacity:1;fill-rule:evenodd;stroke:none;stroke-width:0.10036968;stroke-miterlimit:4;stroke-dasharray:none;stroke-opacity:0.94472363"
       d="m 93.342727,97.112537 c 0.0062,0 0.01217,10e-4 0.01823,0.002 h -0.01615 v 18.866093 c -6.5e-4,10e-6 -0.0013,2.1e-4 -0.002,2.1e-4 h -0.961235 c -0.266843,0 -0.481666,-1.0356 -0.481666,-2.32196 V 99.434297 c 0,-1.28637 0.214823,-2.32196 0.481666,-2.32196 z"
       id="path6343"
       inkscape:connector-curvature="0" />
    <rect
       style="opacity:1;fill:#4d4d4d;fill-opacity:1;fill-rule:evenodd;stroke:none;stroke-width:0.12893033;stroke-miterlimit:4;stroke-dasharray:none;stroke-opacity:0.94472363"
       id="rect6347"
       width="2.828331"
       height="5.8814425"
       x="87.205978"
       y="101.33613"
       ry="0.10258298" />
    <rect
       ry="0.88834316"
       y="104.5158"
       x="87.513702"
       height="1.7766863"
       width="2.9006469"
       id="rect6349"
       style="opacity:1;fill:#333333;fill-opacity:1;fill-rule:evenodd;stroke:none;stroke-width:0.17068714;stroke-miterlimit:4;stroke-dasharray:none;stroke-opacity:0.94472363" />
    <path
       style="opacity:1;fill:none;fill-opacity:1;fill-rule:evenodd;stroke:#242730;stroke-width:2.91046739;stroke-linecap:butt;stroke-linejoin:bevel;stroke-miterlimit:4;stroke-dasharray:none;stroke-opacity:1;paint-order:stroke fill markers"
       id="path5310"
       sodipodi:type="arc"
       sodipodi:cx="114.4652"
       sodipodi:cy="92.914673"
       sodipodi:rx="26.50848"
       sodipodi:ry="18.764614"
       sodipodi:start="3.1415927"
       sodipodi:end="0"
       sodipodi:open="true"
       d="M 87.956722,92.914672 A 26.50848,18.764614 0 0 1 114.4652,74.150059 26.50848,18.764614 0 0 1 140.97368,92.914673" />
    <rect
       style="opacity:1;fill:#666666;fill-opacity:1;fill-rule:evenodd;stroke:none;stroke-width:0.17181545;stroke-miterlimit:4;stroke-dasharray:none;stroke-opacity:0.94472363"
       id="rect6351"
       width="2.9391222"
       height="1.7766863"
       x="87.475235"
       y="104.34425"
       ry="0.88834316" />
    <path
       d="M 89.779041,92.926231 A 24.708591,17.845896 0 0 1 114.48763,75.080336 24.708591,17.845896 0 0 1 139.19622,92.926231"
       sodipodi:open="true"
       sodipodi:end="0"
       sodipodi:start="3.1415927"
       sodipodi:ry="17.845896"
       sodipodi:rx="24.708591"
       sodipodi:cy="92.926231"
       sodipodi:cx="114.48763"
       sodipodi:type="arc"
       id="path5363"
       style="opacity:1;fill:none;fill-opacity:1;fill-rule:evenodd;stroke:#36373f;stroke-width:2.01747823;stroke-linecap:butt;stroke-linejoin:round;stroke-miterlimit:4;stroke-dasharray:none;stroke-opacity:1;paint-order:stroke fill markers" />
    <path
       style="fill:#ffffff;stroke-width:1.12350607"
       inkscape:connector-curvature="0"
       d="m 113.00414,83.306746 c -3.59859,0 -4.20191,0.0449 -6.59385,0.670727 -2.95033,0.781954 -4.67154,1.765018 -6.683737,3.799679 -1.028004,1.005534 -1.542571,1.653788 -2.033538,2.480685 -1.229104,2.123418 -2.033528,4.538943 -2.525615,7.801585 -0.26965,1.586381 -0.29212,2.168358 -0.26965,6.101748 0,4.13563 0.493217,16.74248 0.783087,20.51971 0.202217,2.5043 0.112337,2.77282 -1.988601,5.70067 a 93.033044,93.033044 0 0 0 -2.280695,3.33007 c -1.407754,2.16838 -3.397472,4.96254 -5.028793,7.10843 -3.01773,3.88957 -3.778344,5.3198 -5.678193,10.48344 -1.832437,5.05128 -2.950326,7.55558 -5.654606,12.80796 -1.386406,2.638 -1.743681,3.75589 -1.811092,5.63327 -0.08988,1.60885 0.134821,3.84463 0.379745,4.24685 0.202232,0.26851 0.447156,0.33481 0.939252,0.20223 -0.06742,0.0662 -0.112351,0.11123 -0.157291,0.13258 -0.781961,0.51456 -1.676271,1.60998 -2.234653,2.99526 -0.02247,0.0225 -0.02247,0.0674 -0.04494,0.0899 -0.201108,0.31347 -0.424684,0.84938 -0.693203,1.67628 -0.80443,2.28072 -1.475163,3.28626 -2.681809,3.93452 -1.028008,0.55838 -1.943666,0.6932 -4.626598,0.6932 -2.771689,0 -3.376136,0.1337 -4.201913,0.84937 -1.476286,1.25159 -1.699864,3.73229 -0.693203,7.17472 0.915658,3.10761 0.870717,4.53783 -0.313458,8.0252 -0.648263,1.92119 -0.738144,2.32453 -0.738144,3.15143 0,0.6258 0.06741,1.09542 0.202231,1.38528 0.289866,0.60445 1.206647,1.34147 2.100957,1.72122 1.005538,0.38086 6.056821,1.63245 9.677881,2.34812 5.610789,1.13924 7.622989,1.74256 12.83044,3.82217 4.627711,1.83243 6.594959,2.50318 8.15887,2.74922 0.738137,0.11235 2.258238,-0.0225 2.951435,-0.29099 0.826894,-0.29099 1.608851,-0.8269 3.330049,-2.28072 3.040195,-2.54698 4.693995,-3.35254 8.091475,-3.88845 1.27406,-0.20223 2.43688,-0.2247 12.15971,-0.2247 5.90177,0 11.10922,0.045 11.57885,0.11235 1.09542,0.13482 1.5201,0.4921 2.43688,2.10096 1.40776,2.52676 3.12897,3.64465 6.25793,4.11315 1.47629,0.2247 4.00193,0.24718 5.16476,0.0674 2.54811,-0.42468 3.82217,-1.18418 6.70508,-4.06709 3.35367,-3.37614 6.48263,-5.49956 10.88678,-7.42189 2.23465,-0.98419 3.24019,-1.54257 5.87818,-3.33119 3.24132,-2.19084 3.86711,-2.88291 3.86711,-4.31426 0,-1.49764 -0.80443,-2.43576 -3.77835,-4.40302 -2.83798,-1.87738 -4.11203,-3.01774 -5.29733,-4.76142 -0.8269,-1.22912 -1.11789,-2.16836 -1.22912,-4.0008 -0.0449,-0.84938 -0.13482,-1.43023 -0.24605,-1.78862 -0.11235,-1.27406 -0.62579,-2.72676 -1.54257,-3.19638 -1.27405,-0.67074 -1.72121,-0.46963 -2.1459,-0.20111 1.43135,-1.60886 1.89985,-2.36948 2.3706,-3.75476 0.82578,-2.45935 0.64714,-5.20858 -0.78308,-12.36081 -1.6538,-8.31619 -4.47156,-14.26179 -10.28233,-21.72748 -3.68847,-4.76142 -5.1861,-7.1309 -8.78469,-13.88092 -1.78863,-3.37501 -2.30319,-4.53785 -2.72675,-6.34781 -0.6258,-2.61552 -0.91678,-4.96253 -1.38641,-11.64627 -0.44715,-6.23545 -0.75949,-8.807151 -1.34146,-10.975509 -1.54146,-5.900617 -6.16805,-10.37102 -12.62821,-12.227041 -2.75035,-0.781954 -3.93452,-0.938124 -7.64546,-0.938124 z"
       id="path7285" />
    <rect
       style="opacity:1;fill:#24221c;fill-opacity:1;fill-rule:evenodd;stroke:#62636d;stroke-width:0.1;stroke-miterlimit:4;stroke-dasharray:none;stroke-opacity:1"
       id="rect1404"
       width="17.828163"
       height="30.824131"
       x="149.14464"
       y="111.72935"
       ry="1.3621167"
       transform="rotate(21.876533)" />
    <g
       id="g7237"
       transform="translate(-4.3089286,-21.544643)"
       style="fill:#aca793">
      <rect
         transform="rotate(21.876533)"
         ry="0.25346366"
         y="130.77466"
         x="167.36131"
         height="0.86028397"
         width="7.169034"
         id="rect1412"
         style="opacity:1;fill:#aca793;fill-opacity:1;fill-rule:evenodd;stroke:#62636d;stroke-width:0.1;stroke-miterlimit:4;stroke-dasharray:none;stroke-opacity:1" />
      <rect
         transform="rotate(21.876533)"
         ry="0.40554154"
         y="130.77031"
         x="165.21643"
         height="0.93632305"
         width="1.3454711"
         id="rect1414"
         style="opacity:1;fill:#aca793;fill-opacity:1;fill-rule:evenodd;stroke:#62636d;stroke-width:0.1;stroke-miterlimit:4;stroke-dasharray:none;stroke-opacity:1" />
    </g>
    <g
       id="g7233"
       transform="translate(-4.3089286,-21.544643)"
       style="fill:#333333">
      <rect
         transform="rotate(21.876533)"
         y="132.37733"
         x="161.88145"
         height="26.145359"
         width="16.422108"
         id="rect1408"
         style="opacity:1;fill:#333333;fill-opacity:1;fill-rule:evenodd;stroke:#62636d;stroke-width:0.1;stroke-miterlimit:4;stroke-dasharray:none;stroke-opacity:1" />
    </g>
    <path
       style="fill:#ffd42a;stroke-width:1.12350607"
       inkscape:connector-curvature="0"
       d="m 126.73934,120.29275 c 0,3.11774 -3.71431,3.77611 -5.51529,4.894 -1.67627,1.55269 -11.32831,5.93773 -13.88654,5.93773 -4.11203,-0.8696 -9.117249,-7.00618 -9.763259,-11.08002 0,-2.37284 3.018859,-4.27269 4.707489,-5.82538 1.67739,-1.55268 3.61432,-3.01886 6.91855,-2.39756 2.55934,0 6.55903,1.21788 8.2353,2.77057 3.35366,1.11788 9.30263,1.83805 9.30263,5.70066 z m -67.621582,83.3091 c 3.819921,1.7392 12.719213,3.96261 15.8493,4.33562 2.099833,0.86959 15.961651,4.09854 19.153532,4.09854 4.732211,-3.35366 5.515293,-8.43416 4.186181,-13.57644 -5.900651,-9.52733 -10.458715,-22.00948 -21.488175,-26.30802 -1.10553,0.54603 -2.013323,2.02456 -2.40992,2.27285 -0.795443,0.50895 -1.677395,1.61448 -2.235777,2.99414 -0.584224,1.44034 -1.117888,3.20424 -1.769522,5.77483 -1.274056,2.55935 -6.477012,0.24942 -10.040774,2.11219 -1.299896,3.93788 0.917905,13.6506 -1.244845,18.29629 z M 161.79161,189.00751 c 2.3852,1.94928 6.1231,3.4031 7.81286,6.64442 -3.2166,3.83901 -5.98717,5.19284 -10.061,7.13088 -5.58944,2.65711 -9.09253,5.15466 -11.65076,6.89272 -2.55934,2.23578 -8.49595,3.60309 -11.19124,3.23008 -1.70211,-1.11789 -3.61544,-14.69434 -2.99414,-19.12882 0,-2.35935 -2.89416,-11.81254 1.73918,-17.57612 4.48392,-0.85724 8.33417,3.24243 11.17889,6.03659 2.34813,-1.5774 6.06131,-3.99968 8.86896,-4.6075 0.91902,-0.21122 0.9561,-1.16844 2.88179,-0.16178 0.91903,0.48423 1.45269,1.99984 1.55268,3.29187 0.16179,2.08636 0.37301,6.50847 1.86278,8.24654 z"
       id="path7287" />
    <path
       inkscape:connector-curvature="0"
       d="m 91.152287,215.01667 c -1.565044,-0.24717 -3.539045,-0.86847 -8.160024,-2.73236 -5.217562,-2.11219 -7.217404,-2.60878 -12.831563,-3.85026 -3.61432,-0.6213 -8.684702,-1.92569 -9.673388,-2.3234 -0.895434,-0.35953 -1.825697,-1.10554 -2.111068,-1.71335 -0.132574,-0.27301 -0.202231,-0.75837 -0.202231,-1.37855 0,-0.84487 0.08988,-1.21788 0.741514,-3.14357 1.180805,-3.50197 1.238104,-4.93107 0.319076,-8.03643 -1.017897,-3.44018 -0.779713,-5.92425 0.686462,-7.17921 0.829148,-0.70781 1.432471,-0.83139 4.198542,-0.83139 2.688551,0 3.596343,-0.13707 4.63671,-0.70782 1.198781,-0.65949 1.874008,-1.65267 2.668327,-3.93788 0.510072,-1.47853 0.844876,-2.06276 1.168446,-2.06276 0.260654,0 0.483108,0.64601 0.483108,1.42911 0,0.69545 -0.781961,3.62667 -1.167323,4.38391 -0.408956,0.82017 -0.968462,1.45382 -1.613355,1.82682 -1.202151,0.70782 -3.518821,0.89432 -6.060192,0.50895 -1.623466,-0.26065 -2.554852,-0.19886 -3.176152,0.17415 -0.919027,0.55838 -1.069577,1.81334 -0.402215,3.36602 1.292032,2.99302 1.539204,3.64016 1.812216,4.6457 0.324693,1.20439 0.376375,2.26049 0.17302,3.51432 -0.202231,1.2426 -0.559506,2.02456 -1.613355,3.50309 -0.5449,0.77073 -1.042614,1.58977 -1.1089,1.83806 -0.185379,0.67073 0.08875,1.17969 0.829147,1.56505 0.629164,0.31121 9.591372,2.63349 15.923452,4.0626 1.950406,0.49658 5.502933,1.36618 7.887012,1.98748 2.397562,0.62017 4.882758,1.11789 5.52765,1.24147 1.999841,0.24829 3.851379,0 5.131051,-0.74488 1.775137,-1.11789 3.017737,-3.6896 3.167167,-6.68262 0.0989,-1.97513 -0.33593,-3.75138 -1.49089,-6.04895 -0.88196,-1.76391 -1.316757,-2.447 -5.502937,-8.7701 -7.390423,-11.12945 -10.594662,-14.84263 -13.327029,-15.41449 -0.881953,-0.17415 -1.466176,-0.0742 -2.645857,0.46063 -1.130247,0.50782 -1.516734,0.53367 -1.788621,0.12358 -0.261778,-0.39771 -0.471873,-2.62114 -0.397722,-4.23561 0.08651,-1.87625 0.447156,-2.99414 1.813339,-5.65123 2.70765,-5.24228 3.81318,-7.7522 5.663594,-12.79449 1.900972,-5.16813 2.670574,-6.59499 5.664718,-10.4958 a 117.35021,117.35021 0 0 0 5.029936,-7.09269 147.48265,147.48265 0 0 1 2.298694,-3.3413 c 2.086355,-2.93236 2.186345,-3.20425 1.987478,-5.7018 -0.29885,-3.76375 -0.795438,-16.38297 -0.795438,-20.50736 -0.01236,-3.92441 0.01235,-4.520993 0.260654,-6.111873 0.510074,-3.24806 1.304391,-5.68719 2.546991,-7.79826 0.47187,-0.82465 1.00553,-1.47741 2.011072,-2.49306 2.013317,-2.02905 3.752507,-3.00313 6.696097,-3.77385 2.39756,-0.62692 3.00538,-0.68984 6.59498,-0.68534 3.70195,0.002 4.88163,0.1483 7.63984,0.9415 6.45904,1.8549 11.09125,6.32983 12.64394,12.22037 0.57186,2.17399 0.88195,4.758053 1.32911,10.993513 0.47187,6.67025 0.75836,9.01726 1.39202,11.65076 0.42244,1.78862 0.93139,2.9683 2.71888,6.33433 3.60309,6.75789 5.09398,9.11724 8.78245,13.86294 5.81302,7.47693 8.62066,13.41465 10.28458,21.73646 1.4291,7.1545 1.60324,9.90034 0.78308,12.37206 -0.49659,1.48977 -0.98082,2.23577 -2.68293,4.11202 -3.57725,3.96149 -7.56457,6.44557 -10.29694,6.44557 -2.48407,0 -4.75804,-1.68864 -6.38488,-4.75693 -0.75724,-1.68976 -0.65838,-3.04358 -2.83124,-2.55935 -1.05609,0.2865 -1.92569,1.56504 -2.18746,3.21773 -0.19774,1.17967 -0.16066,5.70067 0.0505,6.83091 0.0865,0.51007 0.38424,2.02456 0.63366,3.35367 0.44715,2.29868 0.47187,2.54698 0.47187,4.90635 0,2.17398 -0.0506,2.83236 -0.41008,5.21756 -0.33593,2.23577 -0.39772,3.00538 -0.35952,4.22326 0.0483,1.41561 0.0742,1.55268 0.49547,2.43463 0.51007,1.11789 1.62796,2.35937 2.59642,2.98067 2.13691,1.36618 5.11757,1.49089 7.62636,0.24829 0.70781,-0.37188 1.73918,-1.11789 3.47837,-2.48294 2.82,-2.28635 4.91871,-3.74016 6.50847,-4.54683 0.60894,-0.29886 2.07399,-0.85724 3.2548,-1.24261 4.89399,-1.5774 7.12977,-2.52114 8.37124,-3.55252 1.47854,-1.2044 2.18635,-2.50879 1.92569,-3.49073 -0.33593,-1.21676 -1.73918,-2.08636 -4.60862,-2.83124 -2.1605,-0.57186 -2.68293,-0.83252 -3.56488,-1.80098 -0.78196,-0.85723 -1.3909,-2.08747 -1.83806,-3.72667 -0.4348,-1.60212 -0.49659,-4.19854 -0.12359,-5.21644 0.26066,-0.72129 0.52131,-1.05609 0.82016,-1.05609 0.34717,0 0.52131,0.60894 0.62018,2.23578 0.12358,1.81333 0.41008,2.76944 1.2426,3.98732 1.17968,1.75155 2.43351,2.88179 5.27823,4.76928 2.96943,1.96277 3.78846,2.90651 3.78846,4.40976 0,1.42798 -0.63366,2.12343 -3.86261,4.29741 -2.64586,1.78862 -3.64016,2.35936 -5.87594,3.32895 -4.40864,1.92569 -7.53873,4.06147 -10.90475,7.41514 -2.88179,2.85708 -4.13675,3.72668 -6.70733,4.09967 -1.15609,0.12359 -3.67724,0.12359 -5.15577,-0.12358 -3.13009,-0.373 -4.83108,-1.49089 -6.26018,-4.1008 -0.90667,-1.61336 -1.3291,-1.98635 -2.42227,-2.11107 -0.47188,0 -5.68832,-0.12359 -11.60133,-0.12359 -9.71271,0 -10.88115,0.12359 -12.13499,0.24831 -3.40422,0.62129 -5.08049,1.36618 -8.111709,3.85025 -1.71335,1.49089 -2.496432,1.9886 -3.32895,2.35936 -0.683092,0.24942 -2.209936,0.37413 -2.943586,0.24942 z m 11.203603,-8.01059 c 0.27413,-0.23594 0.68421,-0.78308 0.92015,-1.21789 0.37188,-0.69656 0.42244,-0.90666 0.45951,-1.97512 0.0865,-1.96276 -0.33592,-3.06717 -1.72682,-4.53335 -0.95611,-1.00665 -1.09318,-1.44145 -0.54715,-1.68975 0.51007,-0.22357 1.15609,0.0618 2.31105,1.03139 2.18634,1.8504 3.47725,2.16161 8.24653,2.06163 5.13106,-0.12359 7.92522,-0.65838 10.74522,-2.074 1.82569,-0.91902 3.03122,-1.96276 4.55918,-3.98845 1.07969,-1.41561 1.56505,-1.89872 2.17286,-2.14813 1.00667,-0.42244 1.54033,0.39771 1.51674,2.34812 -0.0135,0.90667 -0.11235,1.47741 -0.52243,2.99302 -1.11789,4.03676 -1.46618,6.31074 -1.15497,7.4657 0.18538,0.67073 0.76961,1.17968 1.30327,1.13024 0.373,-0.0371 0.38536,-0.0618 0.48536,-0.78308 0.0494,-0.41008 0.26065,-1.80098 0.47187,-3.10537 0.19886,-1.29203 0.44715,-2.9683 0.55838,-3.72554 0.26065,-1.96277 0.46064,-8.04993 0.47187,-14.65726 0.0124,-5.70179 0.0124,-5.71416 0.31121,-6.58375 0.23594,-0.67074 0.44716,-1.00553 0.93139,-1.48977 0.75724,-0.74601 1.46618,-1.01902 3.06717,-1.13137 l 1.06958,-0.0865 0.1483,-0.75725 c 0.35952,-1.72682 1.3909,-2.70764 3.42894,-3.25479 0.65838,-0.17415 1.31563,-0.23593 2.73237,-0.23593 2.04927,0 2.62114,0.12358 4.47155,1.01902 0.8314,0.39659 1.55269,0.53366 1.55269,0.29772 0,-0.1865 -1.00666,-1.13024 -1.81334,-1.7021 a 8.9858015,8.9858015 0 0 0 -1.6156,-0.89432 c -0.63254,-0.26065 -0.86847,-0.42244 -0.89431,-0.60781 -0.0247,-0.14944 0.16178,-0.98195 0.41008,-1.86391 0.72129,-2.60877 0.95722,-4.26032 0.96958,-6.74439 0.0247,-4.0862 -0.69657,-6.79498 -3.06829,-11.37776 -2.1987,-4.24797 -4.52099,-7.3657 -6.35905,-8.53303 -0.53478,-0.32356 -1.16844,-0.54714 -1.16844,-0.41007 0,0.0494 0.44715,0.70781 0.98194,1.47741 2.53351,3.5896 5.16701,8.17351 6.2849,10.96878 0.90666,2.23578 1.58976,5.26588 1.80098,8.02409 0.35952,4.52099 -0.8696,8.3836 -2.98179,9.32735 -0.42131,0.19885 -0.89431,0.27413 -1.92457,0.29885 -1.64031,0.0618 -1.86389,-0.0248 -2.29869,-0.89432 l -0.31009,-0.62129 -0.0742,-4.96814 c -0.13707,-8.46001 -0.53479,-9.90034 -4.96927,-17.91206 -1.36618,-2.45936 -1.63919,-3.10537 -2.22341,-5.34115 -1.19092,-4.59514 -2.34813,-7.29155 -4.16035,-9.72507 -2.77056,-3.70195 -3.13008,-5.24228 -2.02455,-8.65774 0.7078,-2.22454 0.69545,-3.36602 -0.0506,-4.12327 -0.54602,-0.5595 -0.96846,-0.75836 -3.46489,-1.5538 -3.78846,-1.2044 -5.54001,-2.28521 -6.02424,-3.71319 -0.48423,-1.40438 -0.13707,-3.68959 0.73253,-4.81984 0.62129,-0.82016 1.41561,-1.16845 2.63349,-1.16845 0.80781,0.0135 1.13025,0.0753 1.68976,0.32357 0.85611,0.41008 1.5392,0.9943 1.88749,1.65156 0.373,0.7078 0.35952,2.3852 -0.0247,3.61544 -0.63366,1.99984 -0.60894,1.78862 -0.16178,2.18634 0.8078,0.71904 2.08747,0.78196 2.64585,0.11235 0.48423,-0.57299 0.63366,-1.15609 0.69658,-2.79528 0.0742,-1.78862 -0.11235,-2.98179 -0.846,-5.22992 -1.00554,-3.08066 -2.01108,-3.97497 -5.05578,-4.47156 -2.27173,-0.373 -3.51433,-0.0742 -4.65693,1.10553 -1.78863,1.86278 -2.68294,4.83108 -2.32341,7.81286 0.19886,1.65156 0.16178,1.72683 -0.76961,1.4291 -0.83139,-0.26177 -2.65821,-0.47187 -3.71431,-0.43479 -1.13024,0.0494 -1.22911,-0.0506 -1.22911,-1.31675 -0.0124,-5.15465 -1.56505,-7.96229 -4.40976,-7.93757 -1.97513,0 -3.577249,1.50325 -4.173829,3.88733 -0.23594,0.93251 -0.1865,3.60308 0.0753,5.15577 0.53367,3.05593 1.688629,4.5839 2.595299,3.39074 0.373,-0.50895 0.69657,-1.15497 0.69657,-1.36618 0,-0.0876 -0.28649,-0.2865 -0.62129,-0.44716 -0.37301,-0.17414 -0.70781,-0.44716 -0.85724,-0.69657 -0.707809,-1.12913 -1.056099,-3.15481 -0.758369,-4.23562 0.385372,-1.36619 2.260499,-2.20994 3.552529,-1.60212 1.09317,0.52243 2.26049,2.93235 2.13691,4.44684 -0.1,1.20552 -0.32357,1.5774 -1.41562,2.3852 -0.54715,0.39772 -1.4291,1.11789 -1.97512,1.60212 -0.54603,0.48423 -1.21788,1.04374 -1.4909,1.2426 -1.390899,1.00554 -2.173979,2.18634 -2.173979,3.30311 0,0.73365 0.29773,1.13136 1.23024,1.59088 0.732529,0.37188 1.390899,1.01789 2.086349,2.03691 0.93251,1.34147 2.03692,1.76391 4.57155,1.75156 3.09188,-0.0123 5.86245,-0.67074 11.0553,-2.60879 2.81887,-1.05609 3.60083,-1.3909 3.76374,-1.64032 0.45839,-0.66961 0.99318,-1.14148 1.31563,-1.14148 0.43479,0 0.82016,0.40895 0.82016,0.85611 0,0.75837 -1.16845,1.37966 -5.21757,2.75821 a 49.437638,49.437638 0 0 0 -4.09855,1.65155 c -2.1369,1.01902 -2.73236,1.23024 -4.13675,1.50325 -1.15496,0.22358 -3.82553,0.2483 -5.29171,0.0494 -1.19092,-0.16177 -1.91221,-0.0741 -1.85041,0.23594 0.0618,0.32357 2.82,2.47172 3.45365,2.70765 0.89432,0.31121 2.65822,0.37301 3.80083,0.11236 1.72682,-0.37301 7.1792,-2.72001 9.88685,-4.23562 0.90667,-0.50895 1.41562,-0.72017 1.73919,-0.72017 0.54602,-0.0123 0.96846,0.33481 0.96846,0.7696 0,0.47187 -0.91903,1.27968 -1.92457,1.70212 -1.77626,0.72016 -2.14926,0.91902 -3.91317,2.03691 -2.40992,1.5392 -3.46489,2.30993 -5.05578,3.70195 -1.70098,1.47741 -2.18522,1.67628 -4.07383,1.70099 -1.50325,0.0123 -1.96276,-0.13595 -2.94359,-0.98082 -0.77072,-0.65838 -2.60878,-2.94359 -3.13008,-3.90081 -0.54715,-0.99319 -1.763909,-2.37173 -2.087479,-2.37173 -0.21009,0 -0.23593,0.0494 -0.59546,1.61448 -0.24829,1.11789 -1.16844,3.22895 -2.65821,6.14783 -1.788623,3.51657 -1.876257,3.82666 -1.876257,7.51626 0,3.07953 0.07527,2.81887 -1.427975,4.90522 -1.838056,2.58407 -4.695133,9.32847 -5.378224,12.73157 -0.521307,2.54699 -0.881952,6.88148 -0.783083,9.31611 0.07527,1.93806 -0.02472,2.50879 -0.483108,2.79529 -0.471872,0.29773 -1.031379,-0.0123 -2.187467,-1.15497 -1.813338,-1.82682 -2.396438,-3.3413 -2.38408,-6.23545 0.01123,-1.83919 0.17302,-3.2548 0.533666,-4.62098 0.310087,-1.16846 0.32357,-1.50326 0.03708,-1.44146 -0.297729,0.0505 -0.968462,1.42909 -1.292032,2.65821 -0.197738,0.73364 -0.273012,1.49089 -0.322447,3.03122 -0.04943,1.88749 -0.03707,2.16163 0.260654,3.47725 a 11.673228,11.673228 0 0 0 2.061633,4.48504 c 1.503252,1.98748 9.117253,8.74425 14.18539,12.60686 1.21788,0.91903 2.5717,2.07511 3.018862,2.55934 2.682927,2.90651 2.160497,5.56473 -1.503252,7.61401 -0.57187,0.32244 -1.04374,0.60893 -1.04374,0.63365 0,0.0248 0.47187,0.6831 1.04374,1.44033 2.098709,2.83124 3.316589,4.90636 3.739029,6.35905 0.28537,0.95722 0.27301,2.3369 -0.0371,3.21772 -0.12471,0.39772 -0.19886,0.72017 -0.14943,0.72017 0.0494,0 0.31009,-0.24717 0.58422,-0.4348 z m 2.14927,-92.48927 c -0.38537,-0.73252 0.33592,-1.36618 1.56504,-1.36618 0.4348,0 0.82016,0.0494 0.85723,0.12358 0.0865,0.14943 -0.3348,0.37301 -0.7078,0.37301 -0.22471,0 -0.34829,0.12471 -0.53479,0.53479 -0.19774,0.43479 -0.31009,0.53366 -0.6449,0.55838 -0.29885,0.0247 -0.42243,-0.0247 -0.53478,-0.22358 z m 7.3657,-0.53366 c -0.72017,-0.26066 -1.27967,-0.6213 -1.1426,-0.75837 0.0371,-0.0371 0.46063,-0.0989 0.93251,-0.1483 1.11676,-0.1 1.5392,0.0618 1.5392,0.55838 0,0.24829 -0.0865,0.42244 -0.23594,0.51007 -0.13706,0.0618 -0.26065,0.12359 -0.28537,0.11235 -0.0123,0 -0.38536,-0.12471 -0.8078,-0.27413 z M 86.01,148.8006 c 1.19204,-1.23024 1.527968,-1.85154 1.453817,-2.73349 -0.0382,-0.60894 -0.274136,-0.82016 -0.770726,-0.69658 -0.359521,0.0876 -0.558382,0.46064 -0.881952,1.59089 -0.135944,0.54602 -0.359522,0.90667 -0.869593,1.47853 -0.683093,0.7696 -0.806678,1.0561 -0.533666,1.32911 0.285371,0.28537 0.521307,0.1483 1.60212,-0.96959 z m 47.77148,-20.96799 c 0.26177,-0.16179 0.78308,-1.44034 0.78308,-1.92569 0,-0.38424 -0.0742,-0.55839 -0.38536,-0.84375 -0.21122,-0.19887 -0.4348,-0.36066 -0.49659,-0.36066 -0.0618,0 -0.54603,-0.19885 -1.08081,-0.45951 a 6.4803831,6.4803831 0 0 1 -1.77514,-1.24259 c -0.44828,-0.42244 -0.88308,-0.78197 -0.95723,-0.78197 -0.0742,0 -0.17414,0.14943 -0.22358,0.32245 -0.13707,0.57187 0.0618,1.45382 0.58422,2.49756 0.44716,0.93139 0.60782,1.11788 1.6392,1.96164 1.10553,0.90667 1.51561,1.08081 1.91333,0.83252 z m -29.88526,-16.63239 c 0.14942,-0.38424 0.11235,-0.68309 -0.27302,-1.93692 -0.16178,-0.54715 -0.39772,-1.00666 -0.64601,-1.27968 -0.35952,-0.38536 -0.42244,-0.41008 -0.70781,-0.26065 -0.41008,0.22358 -0.37301,0.72017 0.11235,1.26619 0.35952,0.41008 0.67073,1.19316 0.82016,2.08747 0.0989,0.57075 0.49659,0.64602 0.69433,0.12359 z m 17.50197,-0.34829 c 0.27301,-0.32244 0.0742,-1.86277 -0.29773,-2.43351 -0.38536,-0.58422 -1.28079,-1.11789 -1.9886,-1.19204 -0.47187,-0.0629 -0.55838,-0.0258 -0.69433,0.21122 -0.17414,0.32244 -0.0876,0.42131 0.52131,0.60782 0.7696,0.24829 1.47853,1.30439 1.66391,2.47171 0.0753,0.4348 0.13707,0.52243 0.36065,0.52243 a 0.64039846,0.64039846 0 0 0 0.43479,-0.1865 z m 0.8314,-16.730133 c 0.89543,-0.61792 0.95722,-0.64489 1.81446,-0.66736 1.09317,-0.0281 1.32911,-0.12021 1.32911,-0.50558 0,-0.59995 -2.06164,-2.42789 -2.93235,-2.58968 -0.86847,-0.16403 -1.17968,0.30784 -1.3527,2.07512 -0.0753,0.66174 -0.16179,0.937 -0.44716,1.29203 -0.38536,0.4876 -0.44716,0.7741 -0.19886,1.02014 0.24717,0.25392 0.78196,0.0674 1.78862,-0.62467 z"
       id="path7289"
       style="stroke-width:1.12350607" />
    <path
       style="fill:none;stroke:#f3df54;stroke-width:0.27653882px;stroke-linecap:butt;stroke-linejoin:miter;stroke-opacity:1"
       d="m 139.96095,115.25561 c 1.24458,8.91293 2.31314,42.80475 5.36129,51.31601 5.10334,14.24992 -2.08692,25.09247 -9.45743,20.31691 -11.70734,-7.58551 -20.08454,-45.9871 -35.84655,-27.90593"
       id="path7230"
       inkscape:connector-curvature="0"
       sodipodi:nodetypes="cssc" />
    <g
       id="g7393"
       transform="matrix(1.0204856,0.44590423,-0.42297648,1.0758018,70.261654,-81.566394)">
      <rect
         y="180.30345"
         x="103.8008"
         height="1.4866952"
         width="0.5345391"
         id="rect7387"
         style="opacity:1;fill:#333333;fill-opacity:1;fill-rule:evenodd;stroke:none;stroke-width:0.2;stroke-linecap:round;stroke-linejoin:miter;stroke-miterlimit:4;stroke-dasharray:none;stroke-opacity:1;paint-order:fill markers stroke" />
      <rect
         inkscape:transform-center-y="-0.059857302"
         inkscape:transform-center-x="0.1378108"
         style="opacity:1;fill:#808080;fill-opacity:1;fill-rule:evenodd;stroke:none;stroke-width:0.1812381;stroke-linecap:round;stroke-linejoin:miter;stroke-miterlimit:4;stroke-dasharray:none;stroke-opacity:1;paint-order:fill markers stroke"
         id="rect7389"
         width="0.18374701"
         height="0.71829444"
         x="103.97533"
         y="180.50346" />
    </g>
    <rect
       style="opacity:1;fill:#4d4d4d;fill-opacity:1;fill-rule:evenodd;stroke:none;stroke-width:0.19904554;stroke-miterlimit:4;stroke-dasharray:none;stroke-opacity:0.94472363"
       id="rect6353"
       width="0.57093054"
       height="17.565681"
       x="89.860504"
       y="97.668533"
       ry="0.14929062" />
    <rect
       style="opacity:1;fill:#4d4d4d;fill-opacity:1;fill-rule:evenodd;stroke:none;stroke-width:0.13711728;stroke-miterlimit:4;stroke-dasharray:none;stroke-opacity:0.94472363"
       id="rect6355"
       width="0.8430602"
       height="5.3178043"
       x="87.961227"
       y="100.22723"
       ry="0.47480389" />
    <rect
       ry="0.47480389"
       y="100.22723"
       x="87.961227"
       height="5.1462622"
       width="0.8430602"
       id="rect6357"
       style="opacity:1;fill:#808080;fill-opacity:1;fill-rule:evenodd;stroke:none;stroke-width:0.13488759;stroke-miterlimit:4;stroke-dasharray:none;stroke-opacity:0.94472363" />
    <rect
       style="opacity:1;fill:#333333;fill-opacity:1;fill-rule:evenodd;stroke:none;stroke-width:0.06824195;stroke-miterlimit:4;stroke-dasharray:none;stroke-opacity:0.94472363"
       id="rect6359"
       width="0.8430602"
       height="1.317198"
       x="87.961227"
       y="99.253113"
       ry="0" />
    <path
       style="opacity:1;fill:#666666;fill-opacity:1;fill-rule:evenodd;stroke:none;stroke-width:0.17257731;stroke-miterlimit:4;stroke-dasharray:none;stroke-opacity:0.94472363"
       d="m 87.074618,95.038027 v 2.17292 l 0.967163,1.07415 h 0.820527 l 0.931903,-1.0646 v -2.18247 z"
       id="path6361"
       inkscape:connector-curvature="0" />
    <ellipse
       ry="1.1334029"
       rx="1.0062332"
       style="opacity:1;fill:#999999;fill-opacity:1;fill-rule:evenodd;stroke:none;stroke-width:0.18243888;stroke-miterlimit:4;stroke-dasharray:none;stroke-opacity:0.94472363"
       id="ellipse6363"
       cx="88.402489"
       cy="98.380592" />
    <ellipse
       ry="0.85771036"
       rx="0.76147372"
       cy="98.378044"
       cx="88.404762"
       id="ellipse6365"
       style="opacity:1;fill:#333333;fill-opacity:1;fill-rule:evenodd;stroke:none;stroke-width:0.13806182;stroke-miterlimit:4;stroke-dasharray:none;stroke-opacity:0.94472363" />
    <path
       style="opacity:1;fill:#4d4d4d;fill-opacity:1;fill-rule:evenodd;stroke:none;stroke-width:0.22597;stroke-miterlimit:4;stroke-dasharray:none;stroke-opacity:0.94472363"
       d="m 87.199676,93.274857 v 1.84586 c 0,0.73822 0.527671,1.33257 1.183051,1.33257 0.655392,0 1.183054,-0.59435 1.183054,-1.33257 v -1.84586 z"
       id="path6367"
       inkscape:connector-curvature="0" />
    <path
       style="opacity:1;fill:#808080;fill-opacity:1;fill-rule:evenodd;stroke:none;stroke-width:0.25384235;stroke-miterlimit:4;stroke-dasharray:none;stroke-opacity:0.94472363;paint-order:markers stroke fill"
       d="m 87.19834,92.694677 v 1.92104 c 0,0.93156 0.527673,1.68163 1.183043,1.68163 0.655389,0 1.183042,-0.75007 1.183042,-1.68163 v -1.92104 z"
       id="path6369"
       inkscape:connector-curvature="0" />
    <rect
       y="113.04446"
       x="139.65219"
       height="2.7403274"
       width="0.75595224"
       id="rect7224"
       style="opacity:1;fill:#333333;fill-opacity:1;fill-rule:evenodd;stroke:none;stroke-width:0.08994816;stroke-linecap:round;stroke-linejoin:miter;stroke-miterlimit:4;stroke-dasharray:none;stroke-opacity:1;paint-order:fill markers stroke" />
    <rect
       style="opacity:1;fill:#000000;fill-opacity:1;fill-rule:evenodd;stroke:none;stroke-width:0.16263951;stroke-linecap:round;stroke-linejoin:miter;stroke-miterlimit:4;stroke-dasharray:none;stroke-opacity:1;paint-order:fill markers stroke"
       id="rect7222"
       width="1.9371278"
       height="3.4962797"
       x="139.00017"
       y="110.39866" />
    <path
       style="fill:#ffffff;stroke-width:0.09624013"
       inkscape:connector-curvature="0"
       d="m 97.920016,167.48609 c -0.349279,-0.11842 -1.420498,0.004 -1.552041,0.21861 -0.07081,0.11582 0.300024,0.007 0.427572,0.0975 0.152194,0.10777 0.222981,0.29554 0.304331,0.17168 0.303703,-0.46249 0.978448,-0.4341 0.820138,-0.48777 z"
       id="path7269" />
    <path
       style="fill:#e6e6e6;stroke-width:0.09624013"
       inkscape:connector-curvature="0"
       d="m 96.912598,171.76691 -0.714043,0.93299 -0.800107,0.74363 0.14743,0.32416 1.128632,0.05 0.763474,-0.14482 0.157825,0.52575 0.105863,1.16216 0.179568,1.32414 0.372624,1.14096 0.749666,0.68279 0.725693,0.34379 0.902937,-0.48185 0.30098,-0.16072 0.48074,0.19877 0.20208,-0.0918 0.16534,-0.17287 -0.0118,-0.31192 0.0574,-0.19554 0.35603,0.10338 0.19623,-0.24786 -0.064,-0.35537 0.2873,-0.29787 0.35777,-0.0713 0.35198,-0.2273 0.13029,-0.42859 -0.0983,-0.21598 -0.30491,-0.17 -0.26187,-0.21791 -0.19061,-0.27621 0.18857,-0.22906 0.36345,-0.59529 0.21658,0.44042 0.52294,0.72065 0.73342,0.32511 0.22213,-0.0835 -0.23667,-0.44882 -0.16375,-0.68166 0.81859,0.1191 0.87139,-0.12207 0.83045,-0.53379 0.45319,-0.75558 0.11459,-1.07111 -0.16077,-0.74613 -0.54562,-0.9493 -0.89999,-0.26248 -0.91414,-0.11477 -0.41286,-0.19268 0.0427,0.23693 0.54221,0.33382 0.50524,0.25273 0.59265,0.55208 0.0986,0.89605 -0.28777,0.58274 -0.32154,0.43718 -0.48303,0.26078 -0.44395,-0.11776 -0.4647,-0.52104 -0.31753,-0.87695 -0.55794,-0.97625 -0.64368,-0.48541 -0.74616,-0.0673 -0.36252,0.0255 -0.36451,-0.47961 -0.9874,-0.56182 -0.670567,-0.0799 -0.703452,0.16964 -0.621934,0.31298 -0.705283,0.34431 -0.616851,0.0739 -0.697866,-0.35435 -0.273493,-0.52974 0.255504,-0.61795 0.412501,-0.48744 0.514078,-0.3356 0.547799,-0.19017 0.784786,-0.0264 0.688837,0.26295 0.733411,0.32512 0.59815,0.0281 -0.53893,-0.39827 -0.480137,-0.48368 -0.559,-0.40647 -0.739774,-0.19624 -1.080798,-0.0522 -0.866953,0.16783 -0.813606,0.60656 -0.460821,0.77429 -0.213633,0.45993 -0.107608,0.65723 0.06818,0.68608 0.316244,0.76659 0.651362,0.46682 0.671939,0.19006 z"
       id="path7271" />
    <path
       inkscape:connector-curvature="0"
       d="m 99.087849,167.0659 c -1.35093,-0.55726 -3.565043,-0.48463 -4.196855,1.69214 -0.67577,2.32838 0.896244,3.15843 1.544771,3.39575 -0.36114,0.50222 -0.675515,0.96111 -1.366951,1.24746 -0.969536,0.40162 1.280506,1.04517 2.301411,0.6138 -0.204337,0.30548 -0.47369,0.75335 -0.360004,1.29058 0.02117,0.10005 0.17274,-0.17152 0.230157,-0.12088 0.05361,0.0474 -0.273683,0.65618 -0.0029,0.99074 0.05012,0.062 0.168673,-0.0846 0.236372,-0.13071 0.200919,-0.13659 -0.266655,0.78888 0.167928,1.19428 0.06331,0.059 0.134188,-0.0705 0.209733,-0.10272 0.06088,1.46984 2.282939,2.9167 2.734819,1.51639 0.0751,-0.32838 0.44237,-0.38449 0.65483,-0.16424 0.21242,0.22033 0.82766,-0.0931 0.62514,-0.63078 0.38389,0.0168 0.87487,-0.0998 0.68082,-0.39967 -0.27801,-0.40586 0.24213,-0.4682 0.58265,-0.60088 0.55941,-0.21801 0.59431,-1.03207 0.18585,-1.08649 -0.33922,-0.0451 -0.50225,-0.32556 -0.57414,-0.49505 0.12234,-0.18863 0.3051,-0.3555 0.40514,-0.61724 0.4391,1.5698 1.96952,1.60081 2.04952,1.36021 0.0702,-0.21132 -0.44188,-0.10088 -0.60278,-1.09636 1.06355,0.31439 1.4743,0.22556 2.50651,-0.74153 1.10942,-1.03956 0.66338,-3.74603 -0.9442,-3.8419 -0.84349,-0.0503 -1.21684,-0.1576 -1.69468,-0.34308 -0.12519,-0.0486 -0.0307,0.29533 0.27107,0.49942 0.44026,0.29771 1.15558,0.38831 1.49761,1.1183 0.39311,0.83918 -0.66122,2.42882 -1.38341,1.82248 -0.72232,-0.60629 -0.51429,-1.69721 -1.41951,-2.55305 -0.59117,-0.55902 -1.27819,-0.48718 -1.68382,-0.37014 a 2.3815094,2.22955 22.463707 0 0 -0.11261,-0.19882 c -0.63966,-1.01366 -1.872717,-1.26534 -3.263164,-0.41271 -1.159721,0.71113 -1.946992,0.20545 -1.996191,-0.39742 -0.07878,-0.96606 1.606754,-2.05157 3.078309,-1.2157 0.320329,0.1783 1.208596,0.52612 1.354706,0.21753 0.0599,-0.12638 -0.35885,-0.10645 -0.74342,-0.72706 -0.168007,-0.271 -0.522347,-0.52684 -0.97275,-0.71257 z m 1.522551,4.11328 c 0.89315,0.36103 1.21695,1.02655 1.56442,1.1418 0.28776,0.0954 0.58671,-0.002 0.73294,0.0173 0.86912,0.11197 1.35677,0.97603 1.35858,1.80467 0.002,1.02913 0.18496,1.45373 0.37771,1.58602 0.109,0.0748 -0.46609,0.041 -0.69665,-0.66914 -0.0582,-0.17902 -0.23005,0.1706 -0.34909,-0.17587 -0.15951,-0.46468 -0.0129,-0.93944 0.002,-1.34193 0.009,-0.24837 -0.12315,-0.57681 -0.19691,-0.53899 -0.0984,0.0506 0.002,0.5582 -0.13049,0.74642 -0.17298,-0.30428 -0.57177,-0.29384 -0.66139,-0.33715 -0.0787,-0.0381 -0.0579,-0.18093 -0.087,-0.17694 -0.0383,0.005 -0.0445,0.0846 -0.11171,0.19938 -0.0357,0.0608 -0.10646,0.0852 -0.11409,0.15697 -0.0212,0.19781 0.22986,0.75606 0.19274,1.17592 -0.0367,0.41789 0.10835,1.07441 0.60466,1.11991 0.38653,0.0354 0.22503,0.72716 -0.18622,0.84087 -0.41125,0.11372 -0.8632,0.16083 -0.67906,0.54198 0.11996,0.2482 0.0223,0.50257 -0.35047,0.30903 -0.4893,-0.32121 -1.20132,-0.23472 -1.57108,-0.40826 -0.487757,-0.23956 -0.694497,-0.96329 -0.711267,-1.21609 -0.0169,-0.25297 -0.16456,0.0549 -0.0601,0.43855 0.10439,0.38375 0.481597,1.13564 1.379487,1.16631 0.89789,0.0307 0.94984,0.63859 0.66896,0.73064 -0.28084,0.092 -1.02346,-0.46106 -1.49324,-0.3526 -0.314867,0.0727 -0.541907,0.38133 -0.451397,0.74291 -1.422361,-0.75336 -1.341569,-2.09701 -1.003261,-3.51082 0.113712,-0.22686 -0.357589,0.0701 -0.447036,0.17892 -0.148016,0.17993 0.07963,-1.11358 0.237518,-1.32832 0.270908,-0.36833 -0.08649,-0.21643 -0.274557,-0.0617 -0.164619,0.13548 -0.04745,-0.34912 0.113575,-0.47903 0.416761,-0.33634 0.470096,-0.41536 0.936337,-1.32041 0.378574,-0.73494 0.764494,-0.46514 0.892941,-0.51965 0.078,-0.0331 0.0505,-0.10134 -0.206437,-0.16113 -0.3138,-0.073 -0.92595,-0.0612 -1.279977,0.79502 -0.177547,0.42941 -0.684245,0.77502 -0.732056,0.62929 -0.07509,-0.22865 -0.511551,0.47944 -0.606378,0.50079 -0.09474,0.0214 0.01492,-0.26126 -0.213844,-0.1388 -0.275291,0.14725 -0.421087,0.30593 -0.995665,0.30133 -0.85905,-0.007 0.275948,-0.31597 0.577278,-0.906 0.327141,-0.64022 1.101184,-1.89534 2.598623,-1.61224 0.414079,0.0783 0.994936,-0.0213 1.371946,0.13105 z m 2.2489,2.51458 c 0.14453,0.0753 0.31351,0.16278 0.33154,0.32481 0.0311,0.27938 -0.17001,0.54992 -0.41453,0.95284 -0.12833,0.21145 -0.15084,-0.009 -0.103,-0.41653 0.0548,-0.46604 -0.26008,-0.6564 -0.21371,-0.86929 0.0326,-0.14945 0.22491,-0.0829 0.39974,0.008 z"
       id="path7273"
       style="stroke-width:0.09624013" />
    <path
       inkscape:connector-curvature="0"
       d="m 100.91895,173.19358 c -0.0554,0.1339 -0.21632,0.19441 -0.35944,0.13523 -0.14312,-0.0592 -0.21438,-0.2156 -0.15902,-0.3495 0.0554,-0.1339 0.21629,-0.19432 0.35941,-0.13515 0.14312,0.0592 0.21438,0.2156 0.15901,0.3495 z"
       id="path7275"
       style="stroke-width:0.09624013" />
    <path
       inkscape:connector-curvature="0"
       d="m 100.18526,173.34628 c 0.0909,0.0534 0.0782,0.007 0.0631,-0.0366 -0.18748,-0.54306 0.41462,-0.6886 0.8273,-0.19169 0.0569,0.0685 0.25142,0.004 0.15113,-0.17079 -0.0142,-0.0248 0.0852,-0.28136 0.0491,-0.31331 -0.0361,-0.032 -0.13207,0.2093 -0.18669,0.17976 -0.24554,-0.17488 -0.67543,-0.30527 -0.91439,-0.0816 -0.12396,0.11601 -0.202457,0.37043 0.0104,0.61422 z m 1.69348,2.46157 c 0,0 -0.37173,-0.96767 -1.11465,-0.98162 -0.74293,-0.014 -0.68861,0.8121 -0.57637,0.85851 0.0546,-0.31892 0.22025,-0.75032 0.71556,-0.67843 0.42557,0.0719 0.68214,0.74355 0.78851,0.93142 0.0974,0.17207 0.30485,0.0439 0.18695,-0.12988 z"
       id="path7277"
       style="stroke-width:0.09624013" />
    <path
       inkscape:connector-curvature="0"
       d="m 101.09216,176.02132 c 0.0477,-0.0696 0.0366,-0.63803 -0.36973,-0.69761 -0.50672,-0.0745 -0.2722,0.48831 0.0101,0.43808 0.0852,-0.0152 0.11644,-0.0395 0.15057,-0.0153 0.0964,0.0681 0.0698,0.19614 0.0459,0.27018 -0.0367,0.11311 0.13078,0.0521 0.16317,0.005 z m 2.02999,-1.91678 c -0.0554,0.13389 -0.21633,0.19441 -0.35945,0.13523 -0.14311,-0.0592 -0.21437,-0.2156 -0.15901,-0.3495 0.0554,-0.1339 0.2162,-0.19436 0.3594,-0.13515 0.14321,0.0592 0.21438,0.2156 0.15902,0.3495 z"
       id="path7279"
       style="stroke-width:0.09624013" />
    <path
       style="fill:#ffffff;stroke-width:0.09624013"
       inkscape:connector-curvature="0"
       d="m 100.92635,173.06947 a 0.10732567,0.10047743 22.463707 1 1 -0.19833,-0.0821 0.10732567,0.10047743 22.463707 0 1 0.19833,0.0821 z m 2.20626,0.91241 a 0.10733368,0.10048493 22.463707 1 0 -0.19843,-0.0819 0.10733368,0.10048493 22.463707 0 0 0.19843,0.0819 z"
       id="path7281" />
    <path
       style="fill:#e6e6e6;stroke-width:0.09624013"
       inkscape:connector-curvature="0"
       d="m 99.108842,167.38816 a 2.8636201,2.6808981 22.463707 0 0 -0.383942,-0.1257 c 0.25008,0.33647 -0.135847,0.16612 -0.260506,0.12244 -0.774375,-0.27162 -1.462047,-0.19793 -1.336178,-0.17592 0.286055,0.0501 0.694195,0.31585 0.343983,0.28794 -0.754335,-0.0603 -1.363376,-0.13174 -2.072457,1.04513 -0.402448,0.66774 -0.261001,1.83 -0.222251,1.69125 0.146288,-0.52406 0.472454,-0.68242 0.431289,-0.43292 -0.103501,0.6283 0.03589,1.1825 0.258466,1.37046 -0.02895,-0.40455 0.128439,-0.94033 0.273307,-0.58812 0.184039,0.44752 0.374997,0.7018 0.866054,0.88237 0,0 1.025526,-0.76298 2.069258,-0.65942 0.767178,0.0761 -0.352666,-0.40438 0.402538,-0.27018 0.50356,0.0894 1.053617,0.34465 0.903357,0.20877 -0.446357,-0.40372 0.10525,-0.26392 0.4452,-0.0779 1.09059,0.59703 1.08821,1.68935 1.93621,1.47599 0.15566,-0.0391 0.39717,-0.17365 0.55659,-0.10965 0.15938,0.0641 -0.16154,0.16316 0.16033,0.2513 0.48488,0.13277 0.23745,0.18272 0.30817,0.22879 0.26278,0.17143 0.45247,0.50167 0.45247,0.50167 0,0 -0.39332,-2.27848 -1.6399,-2.07757 -0.20745,0.0334 -0.15839,0.11548 -0.007,0.11144 0.23165,-0.006 0.66429,0.26116 0.30327,0.1654 -0.49107,-0.13029 -0.70553,0.14994 -0.70553,0.14994 -1.32525,-2.34238 -2.902627,-1.59133 -3.796308,-1.08005 -0.605875,0.37826 -1.635418,0.47232 -2.036491,-0.14273 -0.326518,-0.50068 -0.323373,0.19379 -0.412412,-0.11046 -0.206575,-0.70643 0.500535,-1.40528 0.857324,-1.63563 0.471523,-0.30453 0.848063,-0.46212 1.212572,-0.50679 0.364453,-0.0448 -0.137572,-0.40553 0.146794,-0.31546 0.284275,0.09 1.00552,0.28345 1.639504,0.70016 0.10702,0.0705 0.423447,0.21861 0.627977,0.20343 -0.473497,-0.27771 -0.537097,-0.76763 -1.322017,-1.08793 z m 5.391448,6.0213 c 0,0 0.83375,1.07165 1.60666,-0.0146 0.11586,-0.1628 0.20749,0.14141 0.22039,0.30182 0.0125,0.15481 0.26789,-0.11504 0.26228,-0.41724 -0.005,-0.26766 0.005,-0.76183 0.0604,-0.63937 0.12674,0.28074 0.18908,0.19688 0.20824,-0.071 0.0192,-0.26784 -0.005,-0.71984 -0.52846,-1.26596 -0.24533,-0.25581 -0.4919,-0.43806 -0.78839,-0.57718 -0.29645,-0.1392 -0.64272,-0.23521 -0.71864,-0.38037 0.25654,0.10608 0.96411,0.31852 1.33145,0.30969 0.93827,-0.0225 2.36371,2.57404 0.29651,3.85453 -0.33165,0.20547 0.20046,-0.32421 -0.0167,-0.284 -0.23454,0.0435 -0.55544,0.39528 -1.12184,0.30972 -0.19619,-0.0297 0.15848,-0.0634 0.18346,-0.26876 0.0191,-0.15694 -0.69263,-0.0872 -0.99534,-0.85733 z"
       id="path7283" />
  </g>
</svg>
